NotoSansCoptic-Regular.ufo
<glyph name="comma" format="2">
  <advance width="268"/>
  <unicode hex="002C"/>
  <outline>
    <contour>
      <point x="192" y="105" type="curve"/>
      <point x="185" y="116" type="line"/>
      <point x="91" y="116" type="line"/>
      <point x="81" y="46"/>
      <point x="60" y="-53"/>
      <point x="41" y="-129" type="curve"/>
      <point x="106" y="-129" type="line"/>
      <point x="138" y="-57"/>
      <point x="174" y="34"/>
    </contour>
  </outline>
</glyph>
<glyph name="period" format="2">
  <advance width="268"/>
  <unicode hex="002E"/>
  <outline>
    <contour>
      <point x="72" y="54" type="curve" smooth="yes"/>
      <point x="72" y="6"/>
      <point x="99" y="-14"/>
      <point x="133" y="-14" type="curve" smooth="yes"/>
      <point x="167" y="-14"/>
      <point x="196" y="6"/>
      <point x="196" y="54" type="curve" smooth="yes"/>
      <point x="196" y="103"/>
      <point x="167" y="121"/>
      <point x="133" y="121" type="curve" smooth="yes"/>
      <point x="99" y="121"/>
      <point x="72" y="103"/>
    </contour>
  </outline>
</glyph>
<glyph name="semicolon" format="2">
  <advance width="268"/>
  <unicode hex="003B"/>
  <outline>
    <contour>
      <point x="183" y="105" type="curve"/>
      <point x="176" y="116" type="line"/>
      <point x="82" y="116" type="line"/>
      <point x="72" y="46"/>
      <point x="50" y="-54"/>
      <point x="31" y="-129" type="curve"/>
      <point x="97" y="-129" type="line"/>
      <point x="129" y="-58"/>
      <point x="165" y="35"/>
    </contour>
    <contour>
      <point x="70" y="482" type="curve" smooth="yes"/>
      <point x="70" y="434"/>
      <point x="97" y="414"/>
      <point x="131" y="414" type="curve" smooth="yes"/>
      <point x="166" y="414"/>
      <point x="194" y="434"/>
      <point x="194" y="482" type="curve" smooth="yes"/>
      <point x="194" y="532"/>
      <point x="166" y="550"/>
      <point x="131" y="550" type="curve" smooth="yes"/>
      <point x="97" y="550"/>
      <point x="70" y="532"/>
    </contour>
  </outline>
</glyph>
<glyph name="gravecomb" format="2">
  <unicode hex="0300"/>
  <anchor x="-303" y="603" name="_top"/>
  <outline>
    <contour>
      <point x="-321" y="606" type="curve"/>
      <point x="-262" y="606" type="line"/>
      <point x="-262" y="618" type="line"/>
      <point x="-293" y="655"/>
      <point x="-336" y="721"/>
      <point x="-358" y="766" type="curve"/>
      <point x="-463" y="766" type="line"/>
      <point x="-463" y="756" type="line"/>
      <point x="-440" y="719"/>
      <point x="-367" y="642"/>
    </contour>
  </outline>
</glyph>
<glyph name="uni0300" format="2">
  <unicode hex="0300"/>
  <outline>
    <contour>
      <point x="-321" y="606" type="curve"/>
      <point x="-262" y="606" type="line"/>
      <point x="-262" y="618" type="line"/>
      <point x="-293" y="655"/>
      <point x="-336" y="721"/>
      <point x="-358" y="766" type="curve"/>
      <point x="-463" y="766" type="line"/>
      <point x="-463" y="756" type="line"/>
      <point x="-440" y="719"/>
      <point x="-367" y="642"/>
    </contour>
  </outline>
</glyph>
<glyph name="acutecomb" format="2">
  <unicode hex="0301"/>
  <anchor x="-303" y="603" name="_top"/>
  <outline>
    <contour>
      <point x="-372" y="606" type="line"/>
      <point x="-314" y="606" type="line"/>
      <point x="-267" y="642"/>
      <point x="-196" y="719"/>
      <point x="-171" y="756" type="curve"/>
      <point x="-171" y="766" type="line"/>
      <point x="-277" y="766" type="line"/>
      <point x="-300" y="721"/>
      <point x="-343" y="655"/>
      <point x="-372" y="618" type="curve"/>
    </contour>
  </outline>
</glyph>
<glyph name="circumflexcomb" format="2">
  <unicode hex="0302"/>
  <anchor x="0" y="603" name="_top"/>
  <outline>
    <contour>
      <point x="-169" y="606" type="line"/>
      <point x="-109" y="606" type="line"/>
      <point x="-74" y="628"/>
      <point x="-38" y="660"/>
      <point x="-2" y="696" type="curve"/>
      <point x="34" y="660"/>
      <point x="72" y="627"/>
      <point x="107" y="606" type="curve"/>
      <point x="169" y="606" type="line"/>
      <point x="169" y="617" type="line"/>
      <point x="131" y="655"/>
      <point x="68" y="721"/>
      <point x="44" y="766" type="curve"/>
      <point x="-46" y="766" type="line"/>
      <point x="-72" y="721"/>
      <point x="-132" y="656"/>
      <point x="-169" y="617" type="curve"/>
    </contour>
  </outline>
</glyph>
<glyph name="macroncomb" format="2">
  <unicode hex="0304"/>
  <anchor x="-313" y="585" name="_top"/>
  <anchor x="-313" y="781" name="top"/>
  <outline>
    <contour>
      <point x="-473" y="606" type="line"/>
      <point x="-176" y="606" type="line"/>
      <point x="-176" y="677" type="line"/>
      <point x="-473" y="677" type="line"/>
    </contour>
  </outline>
</glyph>
<glyph name="uni0304" format="2">
  <unicode hex="0304"/>
  <outline>
    <contour>
      <point x="-473" y="606" type="line"/>
      <point x="-176" y="606" type="line"/>
      <point x="-176" y="677" type="line"/>
      <point x="-473" y="677" type="line"/>
    </contour>
  </outline>
</glyph>
<glyph name="overlinecomb" format="2">
  <unicode hex="0305"/>
  <anchor x="0" y="810" name="_above"/>
  <anchor x="0" y="976" name="top"/>
  <outline>
    <contour>
      <point x="-313" y="831" type="line"/>
      <point x="313" y="831" type="line"/>
      <point x="313" y="877" type="line"/>
      <point x="-313" y="877" type="line"/>
    </contour>
  </outline>
</glyph>
<glyph name="dotaccentcomb" format="2">
  <unicode hex="0307"/>
  <anchor x="0" y="603" name="_top"/>
  <outline>
    <contour>
      <point x="0" y="625" type="curve" smooth="yes"/>
      <point x="27" y="625"/>
      <point x="51" y="643"/>
      <point x="51" y="681" type="curve" smooth="yes"/>
      <point x="51" y="720"/>
      <point x="27" y="737"/>
      <point x="0" y="737" type="curve" smooth="yes"/>
      <point x="-29" y="737"/>
      <point x="-52" y="720"/>
      <point x="-52" y="681" type="curve" smooth="yes"/>
      <point x="-52" y="643"/>
      <point x="-29" y="625"/>
    </contour>
  </outline>
</glyph>
<glyph name="dieresiscomb" format="2">
  <unicode hex="0308"/>
  <anchor x="-123" y="603" name="_top"/>
  <outline>
    <contour>
      <point x="-223" y="631" type="curve" smooth="yes"/>
      <point x="-198" y="631"/>
      <point x="-176" y="647"/>
      <point x="-176" y="681" type="curve" smooth="yes"/>
      <point x="-176" y="716"/>
      <point x="-198" y="730"/>
      <point x="-223" y="730" type="curve" smooth="yes"/>
      <point x="-249" y="730"/>
      <point x="-270" y="716"/>
      <point x="-270" y="681" type="curve" smooth="yes"/>
      <point x="-270" y="647"/>
      <point x="-249" y="631"/>
    </contour>
    <contour>
      <point x="-36" y="631" type="curve" smooth="yes"/>
      <point x="-11" y="631"/>
      <point x="11" y="647"/>
      <point x="11" y="681" type="curve" smooth="yes"/>
      <point x="11" y="716"/>
      <point x="-11" y="730"/>
      <point x="-36" y="730" type="curve" smooth="yes"/>
      <point x="-61" y="730"/>
      <point x="-82" y="716"/>
      <point x="-82" y="681" type="curve" smooth="yes"/>
      <point x="-82" y="647"/>
      <point x="-61" y="631"/>
    </contour>
  </outline>
</glyph>
<glyph name="breveinvertedcomb" format="2">
  <unicode hex="0311"/>
  <anchor x="0" y="536" name="_top"/>
  <anchor x="2" y="740" name="top"/>
  <outline>
    <contour>
      <point x="2" y="740" type="curve" smooth="yes"/>
      <point x="-94" y="740"/>
      <point x="-149" y="686"/>
      <point x="-156" y="606" type="curve"/>
      <point x="-101" y="606" type="line"/>
      <point x="-94" y="658"/>
      <point x="-52" y="669"/>
      <point x="0" y="669" type="curve" smooth="yes"/>
      <point x="61" y="669"/>
      <point x="95" y="661"/>
      <point x="101" y="606" type="curve"/>
      <point x="155" y="606" type="line"/>
      <point x="150" y="688"/>
      <point x="101" y="740"/>
    </contour>
  </outline>
</glyph>
<glyph name="dotbelowcomb" format="2">
  <unicode hex="0323"/>
  <anchor x="48" y="24" name="_bottom"/>
  <outline>
    <contour>
      <point x="0" y="-105" type="curve" smooth="yes"/>
      <point x="0" y="-143"/>
      <point x="24" y="-161"/>
      <point x="52" y="-161" type="curve" smooth="yes"/>
      <point x="80" y="-161"/>
      <point x="104" y="-143"/>
      <point x="104" y="-105" type="curve" smooth="yes"/>
      <point x="104" y="-66"/>
      <point x="80" y="-49"/>
      <point x="52" y="-49" type="curve" smooth="yes"/>
      <point x="24" y="-49"/>
      <point x="0" y="-66"/>
    </contour>
  </outline>
</glyph>
<glyph name="uni0323" format="2">
  <unicode hex="0323"/>
  <outline>
    <contour>
      <point x="0" y="-105" type="curve" smooth="yes"/>
      <point x="0" y="-143"/>
      <point x="24" y="-161"/>
      <point x="52" y="-161" type="curve" smooth="yes"/>
      <point x="80" y="-161"/>
      <point x="104" y="-143"/>
      <point x="104" y="-105" type="curve" smooth="yes"/>
      <point x="104" y="-66"/>
      <point x="80" y="-49"/>
      <point x="52" y="-49" type="curve" smooth="yes"/>
      <point x="24" y="-49"/>
      <point x="0" y="-66"/>
    </contour>
  </outline>
</glyph>
<glyph name="dbloverlinecomb" format="2">
  <unicode hex="033F"/>
  <anchor x="0" y="603" name="_above"/>
  <anchor x="0" y="810" name="top"/>
  <outline>
    <contour>
      <point x="-313" y="606" type="line"/>
      <point x="313" y="606" type="line"/>
      <point x="313" y="643" type="line"/>
      <point x="-313" y="643" type="line"/>
    </contour>
    <contour>
      <point x="-313" y="689" type="line"/>
      <point x="313" y="689" type="line"/>
      <point x="313" y="726" type="line"/>
      <point x="-313" y="726" type="line"/>
    </contour>
  </outline>
</glyph>
<glyph name="doublemacroncomb" format="2">
  <unicode hex="035E"/>
  <anchor x="0" y="585" name="_rsb"/>
  <anchor x="2" y="676" name="top"/>
  <outline>
    <contour>
      <point x="300" y="606" type="line"/>
      <point x="300" y="677" type="line"/>
      <point x="-300" y="677" type="line"/>
      <point x="-300" y="606" type="line"/>
    </contour>
  </outline>
</glyph>
<glyph name="breveinverteddoublecomb" format="2">
  <unicode hex="0361"/>
  <anchor x="0" y="603" name="_rsb"/>
  <outline>
    <contour>
      <point x="-392" y="606" type="curve"/>
      <point x="-284" y="606" type="line"/>
      <point x="-244" y="690"/>
      <point x="-118" y="715"/>
      <point x="0" y="715" type="curve" smooth="yes"/>
      <point x="118" y="715"/>
      <point x="243" y="690"/>
      <point x="284" y="606" type="curve"/>
      <point x="392" y="606" type="line"/>
      <point x="330" y="739"/>
      <point x="169" y="784"/>
      <point x="0" y="784" type="curve" smooth="yes"/>
      <point x="-168" y="784"/>
      <point x="-333" y="737"/>
    </contour>
  </outline>
</glyph>
<glyph name="uni0361" format="2">
  <unicode hex="0361"/>
  <outline>
    <contour>
      <point x="-825" y="606" type="curve"/>
      <point x="-717" y="606" type="line"/>
      <point x="-677" y="690"/>
      <point x="-551" y="715"/>
      <point x="-433" y="715" type="curve" smooth="yes"/>
      <point x="-315" y="715"/>
      <point x="-190" y="690"/>
      <point x="-149" y="606" type="curve"/>
      <point x="-41" y="606" type="line"/>
      <point x="-103" y="739"/>
      <point x="-264" y="784"/>
      <point x="-433" y="784" type="curve" smooth="yes"/>
      <point x="-601" y="784"/>
      <point x="-766" y="737"/>
    </contour>
  </outline>
</glyph>
<glyph name="numeral-greek" format="2">
  <advance width="221"/>
  <unicode hex="0374"/>
  <unicode hex="02B9"/>
  <outline>
    <contour>
      <point x="20" y="554" type="line"/>
      <point x="78" y="554" type="line"/>
      <point x="125" y="590"/>
      <point x="171" y="653"/>
      <point x="201" y="704" type="curve"/>
      <point x="201" y="714" type="line"/>
      <point x="95" y="714" type="line"/>
      <point x="77" y="668"/>
      <point x="49" y="611"/>
      <point x="20" y="566" type="curve"/>
    </contour>
  </outline>
</glyph>
<glyph name="uni0374" format="2">
  <advance width="221"/>
  <unicode hex="0374"/>
  <outline>
    <contour>
      <point x="20" y="554" type="line"/>
      <point x="78" y="554" type="line"/>
      <point x="125" y="590"/>
      <point x="171" y="653"/>
      <point x="201" y="704" type="curve"/>
      <point x="201" y="714" type="line"/>
      <point x="95" y="714" type="line"/>
      <point x="77" y="668"/>
      <point x="49" y="611"/>
      <point x="20" y="566" type="curve"/>
    </contour>
  </outline>
</glyph>
<glyph name="lowernumeral-greek" format="2">
  <advance width="221"/>
  <unicode hex="0375"/>
  <outline>
    <contour>
      <point x="20" y="-220" type="line"/>
      <point x="126" y="-220" type="line"/>
      <point x="144" y="-174"/>
      <point x="172" y="-117"/>
      <point x="201" y="-72" type="curve"/>
      <point x="201" y="-60" type="line"/>
      <point x="143" y="-60" type="line"/>
      <point x="96" y="-96"/>
      <point x="50" y="-159"/>
      <point x="20" y="-210" type="curve"/>
    </contour>
  </outline>
</glyph>
<glyph name="Shei-coptic" format="2">
  <advance width="1032"/>
  <unicode hex="03E2"/>
  <anchor x="532" y="810" name="above"/>
  <anchor x="512" y="810" name="above.cap"/>
  <anchor x="322" y="0" name="bottom"/>
  <anchor x="512" y="810" name="top"/>
  <outline>
    <contour>
      <point x="569" y="-195" type="curve" smooth="yes"/>
      <point x="830" y="-195"/>
      <point x="971" y="25"/>
      <point x="971" y="347" type="curve" smooth="yes"/>
      <point x="971" y="502"/>
      <point x="913" y="646"/>
      <point x="771" y="731" type="curve"/>
      <point x="705" y="674" type="line"/>
      <point x="822" y="607"/>
      <point x="876" y="488"/>
      <point x="876" y="341" type="curve" smooth="yes"/>
      <point x="876" y="150"/>
      <point x="798" y="72"/>
      <point x="702" y="72" type="curve" smooth="yes"/>
      <point x="605" y="72"/>
      <point x="560" y="143"/>
      <point x="560" y="319" type="curve" smooth="yes"/>
      <point x="560" y="694" type="line"/>
      <point x="470" y="694" type="line"/>
      <point x="470" y="319" type="line" smooth="yes"/>
      <point x="470" y="126"/>
      <point x="417" y="72"/>
      <point x="329" y="72" type="curve" smooth="yes"/>
      <point x="231" y="72"/>
      <point x="155" y="168"/>
      <point x="155" y="341" type="curve" smooth="yes"/>
      <point x="155" y="495"/>
      <point x="204" y="599"/>
      <point x="322" y="669" type="curve"/>
      <point x="271" y="729" type="line"/>
      <point x="128" y="649"/>
      <point x="61" y="520"/>
      <point x="61" y="341" type="curve" smooth="yes"/>
      <point x="61" y="116"/>
      <point x="172" y="-10"/>
      <point x="326" y="-10" type="curve" smooth="yes"/>
      <point x="412" y="-10"/>
      <point x="479" y="37"/>
      <point x="513" y="141" type="curve"/>
      <point x="516" y="141" type="line"/>
      <point x="542" y="41"/>
      <point x="601" y="-10"/>
      <point x="683" y="-10" type="curve" smooth="yes"/>
      <point x="743" y="-10"/>
      <point x="788" y="8"/>
      <point x="833" y="59" type="curve"/>
      <point x="836" y="56" type="line"/>
      <point x="785" y="-46"/>
      <point x="704" y="-115"/>
      <point x="568" y="-115" type="curve" smooth="yes"/>
      <point x="529" y="-115"/>
      <point x="494" y="-109"/>
      <point x="471" y="-102" type="curve"/>
      <point x="471" y="-182" type="line"/>
      <point x="492" y="-189"/>
      <point x="526" y="-195"/>
    </contour>
  </outline>
</glyph>
<glyph name="shei-coptic" format="2">
  <advance width="816"/>
  <unicode hex="03E3"/>
  <anchor x="419" y="603" name="above"/>
  <anchor x="407" y="810" name="above.cap"/>
  <anchor x="273" y="0" name="bottom"/>
  <anchor x="0" y="603" name="lsb"/>
  <anchor x="0" y="810" name="lsb.cap"/>
  <anchor x="816" y="603" name="rsb"/>
  <anchor x="816" y="810" name="rsb.cap"/>
  <anchor x="407" y="603" name="top"/>
  <outline>
    <contour>
      <point x="447" y="-190" type="curve" smooth="yes"/>
      <point x="596" y="-190"/>
      <point x="761" y="-58"/>
      <point x="761" y="256" type="curve" smooth="yes"/>
      <point x="761" y="419"/>
      <point x="690" y="508"/>
      <point x="627" y="560" type="curve"/>
      <point x="562" y="511" type="line"/>
      <point x="622" y="458"/>
      <point x="673" y="378"/>
      <point x="673" y="257" type="curve" smooth="yes"/>
      <point x="673" y="129"/>
      <point x="613" y="68"/>
      <point x="551" y="68" type="curve" smooth="yes"/>
      <point x="479" y="68"/>
      <point x="450" y="137"/>
      <point x="450" y="223" type="curve" smooth="yes"/>
      <point x="450" y="536" type="line"/>
      <point x="366" y="536" type="line"/>
      <point x="366" y="223" type="line" smooth="yes"/>
      <point x="366" y="150"/>
      <point x="341" y="68"/>
      <point x="257" y="68" type="curve" smooth="yes"/>
      <point x="194" y="68"/>
      <point x="143" y="129"/>
      <point x="143" y="257" type="curve" smooth="yes"/>
      <point x="143" y="386"/>
      <point x="188" y="457"/>
      <point x="257" y="511" type="curve"/>
      <point x="194" y="560" type="line"/>
      <point x="116" y="502"/>
      <point x="55" y="409"/>
      <point x="55" y="257" type="curve" smooth="yes"/>
      <point x="55" y="80"/>
      <point x="148" y="-10"/>
      <point x="249" y="-10" type="curve" smooth="yes"/>
      <point x="330" y="-10"/>
      <point x="383" y="34"/>
      <point x="406" y="104" type="curve"/>
      <point x="409" y="104" type="line"/>
      <point x="429" y="30"/>
      <point x="471" y="-10"/>
      <point x="536" y="-10" type="curve" smooth="yes"/>
      <point x="585" y="-10"/>
      <point x="621" y="11"/>
      <point x="652" y="49" type="curve"/>
      <point x="655" y="47" type="line"/>
      <point x="608" y="-59"/>
      <point x="548" y="-109"/>
      <point x="446" y="-109" type="curve" smooth="yes"/>
      <point x="417" y="-109"/>
      <point x="390" y="-105"/>
      <point x="373" y="-100" type="curve"/>
      <point x="373" y="-180" type="line"/>
      <point x="389" y="-185"/>
      <point x="414" y="-190"/>
    </contour>
  </outline>
</glyph>
<glyph name="Fei-coptic" format="2">
  <advance width="681"/>
  <unicode hex="03E4"/>
  <anchor x="371" y="810" name="above"/>
  <anchor x="380" y="810" name="above.cap"/>
  <anchor x="316" y="0" name="bottom"/>
  <anchor x="380" y="810" name="top"/>
  <outline>
    <contour>
      <point x="493" y="0" type="line"/>
      <point x="584" y="0" type="line"/>
      <point x="584" y="714" type="line"/>
      <point x="493" y="714" type="line"/>
      <point x="493" y="262" type="line"/>
      <point x="454" y="239"/>
      <point x="397" y="220"/>
      <point x="334" y="220" type="curve" smooth="yes"/>
      <point x="208" y="220"/>
      <point x="144" y="308"/>
      <point x="144" y="435" type="curve" smooth="yes"/>
      <point x="144" y="540"/>
      <point x="187" y="640"/>
      <point x="313" y="647" type="curve"/>
      <point x="313" y="725" type="line"/>
      <point x="144" y="725"/>
      <point x="49" y="601"/>
      <point x="49" y="425" type="curve" smooth="yes"/>
      <point x="49" y="250"/>
      <point x="152" y="141"/>
      <point x="328" y="141" type="curve" smooth="yes"/>
      <point x="391" y="141"/>
      <point x="456" y="163"/>
      <point x="493" y="184" type="curve"/>
    </contour>
  </outline>
</glyph>
<glyph name="fei-coptic" format="2">
  <advance width="619"/>
  <unicode hex="03E5"/>
  <anchor x="307" y="603" name="above"/>
  <anchor x="356" y="810" name="above.cap"/>
  <anchor x="300" y="0" name="bottom"/>
  <anchor x="0" y="603" name="lsb"/>
  <anchor x="0" y="810" name="lsb.cap"/>
  <anchor x="619" y="603" name="rsb"/>
  <anchor x="619" y="810" name="rsb.cap"/>
  <anchor x="356" y="603" name="top"/>
  <outline>
    <contour>
      <point x="446" y="-240" type="line"/>
      <point x="534" y="-240" type="line"/>
      <point x="534" y="536" type="line"/>
      <point x="446" y="536" type="line"/>
      <point x="446" y="140" type="line"/>
      <point x="408" y="112"/>
      <point x="368" y="89"/>
      <point x="300" y="89" type="curve" smooth="yes"/>
      <point x="201" y="89"/>
      <point x="146" y="164"/>
      <point x="146" y="273" type="curve" smooth="yes"/>
      <point x="146" y="415"/>
      <point x="222" y="467"/>
      <point x="303" y="474" type="curve"/>
      <point x="303" y="547" type="line"/>
      <point x="164" y="538"/>
      <point x="55" y="449"/>
      <point x="55" y="271" type="curve" smooth="yes"/>
      <point x="55" y="140"/>
      <point x="131" y="14"/>
      <point x="292" y="14" type="curve" smooth="yes"/>
      <point x="363" y="14"/>
      <point x="408" y="36"/>
      <point x="446" y="61" type="curve"/>
    </contour>
  </outline>
</glyph>
<glyph name="uni03E5" format="2">
  <advance width="619"/>
  <unicode hex="03E5"/>
  <outline>
    <contour>
      <point x="446" y="-240" type="line"/>
      <point x="534" y="-240" type="line"/>
      <point x="534" y="536" type="line"/>
      <point x="446" y="536" type="line"/>
      <point x="446" y="140" type="line"/>
      <point x="408" y="112"/>
      <point x="368" y="89"/>
      <point x="300" y="89" type="curve" smooth="yes"/>
      <point x="201" y="89"/>
      <point x="146" y="164"/>
      <point x="146" y="273" type="curve" smooth="yes"/>
      <point x="146" y="415"/>
      <point x="222" y="467"/>
      <point x="303" y="474" type="curve"/>
      <point x="303" y="547" type="line"/>
      <point x="164" y="538"/>
      <point x="55" y="449"/>
      <point x="55" y="271" type="curve" smooth="yes"/>
      <point x="55" y="140"/>
      <point x="131" y="14"/>
      <point x="292" y="14" type="curve" smooth="yes"/>
      <point x="363" y="14"/>
      <point x="408" y="36"/>
      <point x="446" y="61" type="curve"/>
    </contour>
  </outline>
</glyph>
<glyph name="Khei-coptic" format="2">
  <advance width="651"/>
  <unicode hex="03E6"/>
  <anchor x="371" y="810" name="above"/>
  <anchor x="341" y="810" name="above.cap"/>
  <anchor x="241" y="-220" name="bottom"/>
  <anchor x="341" y="810" name="top"/>
  <outline>
    <contour>
      <point x="195" y="-232" type="curve"/>
      <point x="285" y="-232" type="line"/>
      <point x="285" y="-62"/>
      <point x="632" y="-60"/>
      <point x="632" y="289" type="curve" smooth="yes"/>
      <point x="632" y="464"/>
      <point x="529" y="573"/>
      <point x="353" y="573" type="curve" smooth="yes"/>
      <point x="290" y="573"/>
      <point x="225" y="551"/>
      <point x="188" y="530" type="curve"/>
      <point x="188" y="714" type="line"/>
      <point x="97" y="714" type="line"/>
      <point x="97" y="0" type="line"/>
      <point x="188" y="0" type="line"/>
      <point x="188" y="452" type="line"/>
      <point x="227" y="475"/>
      <point x="284" y="494"/>
      <point x="347" y="494" type="curve" smooth="yes"/>
      <point x="473" y="494"/>
      <point x="537" y="406"/>
      <point x="537" y="279" type="curve" smooth="yes"/>
      <point x="537" y="-30"/>
      <point x="195" y="8"/>
    </contour>
  </outline>
</glyph>
<glyph name="uni03E6" format="2">
  <advance width="651"/>
  <unicode hex="03E6"/>
  <outline>
    <contour>
      <point x="195" y="-232" type="curve"/>
      <point x="285" y="-232" type="line"/>
      <point x="285" y="-62"/>
      <point x="632" y="-60"/>
      <point x="632" y="289" type="curve" smooth="yes"/>
      <point x="632" y="464"/>
      <point x="529" y="573"/>
      <point x="353" y="573" type="curve" smooth="yes"/>
      <point x="290" y="573"/>
      <point x="225" y="551"/>
      <point x="188" y="530" type="curve"/>
      <point x="188" y="714" type="line"/>
      <point x="97" y="714" type="line"/>
      <point x="97" y="0" type="line"/>
      <point x="188" y="0" type="line"/>
      <point x="188" y="452" type="line"/>
      <point x="227" y="475"/>
      <point x="284" y="494"/>
      <point x="347" y="494" type="curve" smooth="yes"/>
      <point x="473" y="494"/>
      <point x="537" y="406"/>
      <point x="537" y="279" type="curve" smooth="yes"/>
      <point x="537" y="-30"/>
      <point x="195" y="8"/>
    </contour>
  </outline>
</glyph>
<glyph name="khei-coptic" format="2">
  <advance width="546"/>
  <unicode hex="03E7"/>
  <anchor x="307" y="603" name="above"/>
  <anchor x="283" y="810" name="above.cap"/>
  <anchor x="204" y="-206" name="bottom"/>
  <anchor x="0" y="603" name="lsb"/>
  <anchor x="0" y="810" name="lsb.cap"/>
  <anchor x="546" y="603" name="rsb"/>
  <anchor x="546" y="810" name="rsb.cap"/>
  <anchor x="302" y="603" name="top"/>
  <outline>
    <contour>
      <point x="154" y="-240" type="curve"/>
      <point x="244" y="-240" type="line"/>
      <point x="244" y="-116"/>
      <point x="517" y="-132"/>
      <point x="517" y="143" type="curve" smooth="yes"/>
      <point x="517" y="277"/>
      <point x="437" y="358"/>
      <point x="322" y="358" type="curve" smooth="yes"/>
      <point x="250" y="358"/>
      <point x="209" y="337"/>
      <point x="173" y="311" type="curve"/>
      <point x="173" y="536" type="line"/>
      <point x="85" y="536" type="line"/>
      <point x="85" y="0" type="line"/>
      <point x="173" y="0" type="line"/>
      <point x="173" y="233" type="line"/>
      <point x="200" y="257"/>
      <point x="242" y="281"/>
      <point x="299" y="281" type="curve" smooth="yes"/>
      <point x="378" y="281"/>
      <point x="426" y="222"/>
      <point x="426" y="136" type="curve" smooth="yes"/>
      <point x="426" y="-106"/>
      <point x="154" y="-54"/>
    </contour>
  </outline>
</glyph>
<glyph name="Hori-coptic" format="2">
  <advance width="549"/>
  <unicode hex="03E8"/>
  <anchor x="307" y="810" name="above"/>
  <anchor x="288" y="810" name="above.cap"/>
  <anchor x="295" y="-108" name="bottom"/>
  <anchor x="288" y="810" name="top"/>
  <outline>
    <contour>
      <point x="391" y="-99" type="curve" smooth="yes"/>
      <point x="443" y="-99"/>
      <point x="490" y="-88"/>
      <point x="511" y="-82" type="curve"/>
      <point x="511" y="2" type="line"/>
      <point x="483" y="-7"/>
      <point x="442" y="-13"/>
      <point x="393" y="-13" type="curve" smooth="yes"/>
      <point x="269" y="-13"/>
      <point x="185" y="32"/>
      <point x="157" y="143" type="curve"/>
      <point x="412" y="216"/>
      <point x="530" y="329"/>
      <point x="530" y="496" type="curve" smooth="yes"/>
      <point x="530" y="616"/>
      <point x="455" y="724"/>
      <point x="285" y="724" type="curve" smooth="yes"/>
      <point x="148" y="724"/>
      <point x="39" y="650"/>
      <point x="39" y="517" type="curve" smooth="yes"/>
      <point x="39" y="483"/>
      <point x="50" y="440"/>
      <point x="69" y="409" type="curve"/>
      <point x="152" y="441" type="line"/>
      <point x="139" y="464"/>
      <point x="132" y="496"/>
      <point x="132" y="514" type="curve" smooth="yes"/>
      <point x="132" y="598"/>
      <point x="190" y="645"/>
      <point x="279" y="645" type="curve" smooth="yes"/>
      <point x="380" y="645"/>
      <point x="434" y="579"/>
      <point x="434" y="480" type="curve" smooth="yes"/>
      <point x="434" y="337"/>
      <point x="301" y="250"/>
      <point x="49" y="193" type="curve"/>
      <point x="82" y="-18"/>
      <point x="222" y="-99"/>
    </contour>
  </outline>
</glyph>
<glyph name="hori-coptic" format="2">
  <advance width="525"/>
  <unicode hex="03E9"/>
  <anchor x="307" y="603" name="above"/>
  <anchor x="273" y="810" name="above.cap"/>
  <anchor x="322" y="-118" name="bottom"/>
  <anchor x="0" y="603" name="lsb"/>
  <anchor x="0" y="810" name="lsb.cap"/>
  <anchor x="525" y="603" name="rsb"/>
  <anchor x="525" y="810" name="rsb.cap"/>
  <anchor x="273" y="603" name="top"/>
  <outline>
    <contour>
      <point x="342" y="-134" type="curve" smooth="yes"/>
      <point x="407" y="-134"/>
      <point x="463" y="-118"/>
      <point x="482" y="-110" type="curve"/>
      <point x="482" y="-35" type="line"/>
      <point x="453" y="-49"/>
      <point x="400" y="-61"/>
      <point x="354" y="-61" type="curve" smooth="yes"/>
      <point x="239" y="-61"/>
      <point x="169" y="-9"/>
      <point x="143" y="94" type="curve"/>
      <point x="335" y="150"/>
      <point x="473" y="216"/>
      <point x="473" y="373" type="curve" smooth="yes"/>
      <point x="473" y="446"/>
      <point x="427" y="546"/>
      <point x="275" y="546" type="curve" smooth="yes"/>
      <point x="127" y="546"/>
      <point x="63" y="454"/>
      <point x="63" y="370" type="curve" smooth="yes"/>
      <point x="63" y="339"/>
      <point x="72" y="308"/>
      <point x="90" y="279" type="curve"/>
      <point x="168" y="309" type="line"/>
      <point x="156" y="330"/>
      <point x="150" y="351"/>
      <point x="150" y="368" type="curve" smooth="yes"/>
      <point x="150" y="436"/>
      <point x="194" y="474"/>
      <point x="269" y="474" type="curve" smooth="yes"/>
      <point x="352" y="474"/>
      <point x="384" y="418"/>
      <point x="384" y="363" type="curve" smooth="yes"/>
      <point x="384" y="267"/>
      <point x="300" y="199"/>
      <point x="50" y="143" type="curve"/>
      <point x="81" y="-53"/>
      <point x="185" y="-134"/>
    </contour>
  </outline>
</glyph>
<glyph name="Gangia-coptic" format="2">
  <advance width="816"/>
  <unicode hex="03EA"/>
  <anchor x="419" y="810" name="above"/>
  <anchor x="449" y="810" name="above.cap"/>
  <anchor x="451" y="0" name="bottom"/>
  <anchor x="449" y="810" name="top"/>
  <outline>
    <contour>
      <point x="156" y="0" type="curve" smooth="yes"/>
      <point x="799" y="0" type="line"/>
      <point x="799" y="79" type="line"/>
      <point x="742" y="79"/>
      <point x="720" y="95"/>
      <point x="675" y="171" type="curve" smooth="yes"/>
      <point x="521" y="431" type="line"/>
      <point x="707" y="713" type="line"/>
      <point x="599" y="713" type="line"/>
      <point x="463" y="499" type="line"/>
      <point x="387" y="619" type="line" smooth="yes"/>
      <point x="339" y="694"/>
      <point x="287" y="714"/>
      <point x="210" y="714" type="curve" smooth="yes"/>
      <point x="190" y="714" type="line"/>
      <point x="190" y="635" type="line"/>
      <point x="250" y="635"/>
      <point x="281" y="620"/>
      <point x="322" y="555" type="curve" smooth="yes"/>
      <point x="404" y="424" type="line"/>
      <point x="184" y="79" type="line"/>
      <point x="131" y="79"/>
      <point x="101" y="86"/>
      <point x="101" y="142" type="curve"/>
      <point x="16" y="142" type="line"/>
      <point x="16" y="55"/>
      <point x="50" y="0"/>
    </contour>
    <contour>
      <point x="288" y="79" type="line"/>
      <point x="461" y="358" type="line"/>
      <point x="624" y="79" type="line"/>
    </contour>
  </outline>
</glyph>
<glyph name="gangia-coptic" format="2">
  <advance width="657"/>
  <unicode hex="03EB"/>
  <anchor x="371" y="603" name="above"/>
  <anchor x="366" y="810" name="above.cap"/>
  <anchor x="375" y="0" name="bottom"/>
  <anchor x="0" y="603" name="lsb"/>
  <anchor x="0" y="810" name="lsb.cap"/>
  <anchor x="657" y="603" name="rsb"/>
  <anchor x="657" y="810" name="rsb.cap"/>
  <anchor x="366" y="603" name="top"/>
  <outline>
    <contour>
      <point x="117" y="0" type="curve" smooth="yes"/>
      <point x="654" y="0" type="line"/>
      <point x="654" y="71" type="line"/>
      <point x="609" y="71"/>
      <point x="588" y="84"/>
      <point x="552" y="135" type="curve" smooth="yes"/>
      <point x="426" y="310" type="line"/>
      <point x="588" y="536" type="line"/>
      <point x="491" y="536" type="line"/>
      <point x="371" y="367" type="line"/>
      <point x="310" y="455" type="line" smooth="yes"/>
      <point x="271" y="512"/>
      <point x="235" y="537"/>
      <point x="166" y="537" type="curve" smooth="yes"/>
      <point x="142" y="537" type="line"/>
      <point x="142" y="468" type="line"/>
      <point x="186" y="468"/>
      <point x="206" y="459"/>
      <point x="240" y="412" type="curve" smooth="yes"/>
      <point x="318" y="304" type="line"/>
      <point x="146" y="71" type="line"/>
      <point x="109" y="71"/>
      <point x="85" y="77"/>
      <point x="85" y="119" type="curve"/>
      <point x="12" y="119" type="line"/>
      <point x="12" y="53"/>
      <point x="37" y="0"/>
    </contour>
    <contour>
      <point x="247" y="71" type="line"/>
      <point x="371" y="245" type="line"/>
      <point x="494" y="71" type="line"/>
    </contour>
  </outline>
</glyph>
<glyph name="Shima-coptic" format="2">
  <advance width="702"/>
  <unicode hex="03EC"/>
  <anchor x="371" y="810" name="above"/>
  <anchor x="371" y="810" name="above.cap"/>
  <anchor x="370" y="0" name="bottom"/>
  <anchor x="371" y="810" name="top"/>
  <outline>
    <contour>
      <point x="353" y="-10" type="curve" smooth="yes"/>
      <point x="535" y="-10"/>
      <point x="662" y="117"/>
      <point x="662" y="286" type="curve" smooth="yes"/>
      <point x="662" y="430"/>
      <point x="574" y="557"/>
      <point x="394" y="557" type="curve" smooth="yes"/>
      <point x="286" y="557"/>
      <point x="209" y="511"/>
      <point x="171" y="469" type="curve"/>
      <point x="169" y="471" type="line"/>
      <point x="198" y="569"/>
      <point x="270" y="640"/>
      <point x="432" y="660" type="curve" smooth="yes"/>
      <point x="587" y="679"/>
      <point x="644" y="690"/>
      <point x="695" y="704" type="curve"/>
      <point x="695" y="786" type="line"/>
      <point x="654" y="772"/>
      <point x="596" y="759"/>
      <point x="441" y="741" type="curve" smooth="yes"/>
      <point x="157" y="708"/>
      <point x="61" y="543"/>
      <point x="61" y="316" type="curve" smooth="yes"/>
      <point x="61" y="110"/>
      <point x="183" y="-10"/>
    </contour>
    <contour>
      <point x="355" y="68" type="curve" smooth="yes"/>
      <point x="236" y="68"/>
      <point x="156" y="161"/>
      <point x="156" y="277" type="curve" smooth="yes"/>
      <point x="156" y="395"/>
      <point x="234" y="478"/>
      <point x="372" y="478" type="curve" smooth="yes"/>
      <point x="524" y="478"/>
      <point x="567" y="374"/>
      <point x="567" y="281" type="curve" smooth="yes"/>
      <point x="567" y="151"/>
      <point x="487" y="68"/>
    </contour>
  </outline>
</glyph>
<glyph name="shima-coptic" format="2">
  <advance width="600"/>
  <unicode hex="03ED"/>
  <anchor x="307" y="810" name="above"/>
  <anchor x="292" y="810" name="above.cap"/>
  <anchor x="302" y="0" name="bottom"/>
  <anchor x="0" y="603" name="lsb"/>
  <anchor x="0" y="810" name="lsb.cap"/>
  <anchor x="600" y="603" name="rsb"/>
  <anchor x="600" y="810" name="rsb.cap"/>
  <anchor x="292" y="683" name="top"/>
  <outline>
    <contour>
      <point x="303" y="-10" type="curve" smooth="yes"/>
      <point x="454" y="-10"/>
      <point x="552" y="103"/>
      <point x="552" y="240" type="curve" smooth="yes"/>
      <point x="552" y="384"/>
      <point x="469" y="480"/>
      <point x="329" y="493" type="curve"/>
      <point x="349" y="500"/>
      <point x="370" y="506"/>
      <point x="393" y="512" type="curve" smooth="yes"/>
      <point x="539" y="547"/>
      <point x="605" y="574"/>
      <point x="649" y="599" type="curve"/>
      <point x="649" y="678" type="line"/>
      <point x="604" y="647"/>
      <point x="529" y="619"/>
      <point x="375" y="582" type="curve" smooth="yes"/>
      <point x="184" y="536"/>
      <point x="55" y="428"/>
      <point x="55" y="247" type="curve" smooth="yes"/>
      <point x="55" y="104"/>
      <point x="137" y="-10"/>
    </contour>
    <contour>
      <point x="303" y="63" type="curve" smooth="yes"/>
      <point x="210" y="63"/>
      <point x="146" y="131"/>
      <point x="146" y="252" type="curve" smooth="yes"/>
      <point x="146" y="334"/>
      <point x="171" y="397"/>
      <point x="232" y="443" type="curve"/>
      <point x="378" y="449"/>
      <point x="459" y="374"/>
      <point x="459" y="234" type="curve" smooth="yes"/>
      <point x="459" y="134"/>
      <point x="404" y="63"/>
    </contour>
  </outline>
</glyph>
<glyph name="Dei-coptic" format="2">
  <advance width="610"/>
  <unicode hex="03EE"/>
  <anchor x="307" y="810" name="above"/>
  <anchor x="302" y="810" name="above.cap"/>
  <anchor x="306" y="0" name="bottom"/>
  <anchor x="302" y="810" name="top"/>
  <outline>
    <contour>
      <point x="260" y="0" type="line"/>
      <point x="350" y="0" type="line"/>
      <point x="350" y="527" type="line"/>
      <point x="452" y="527" type="line" smooth="yes"/>
      <point x="496" y="527"/>
      <point x="513" y="501"/>
      <point x="513" y="463" type="curve"/>
      <point x="599" y="463" type="line"/>
      <point x="599" y="530"/>
      <point x="576" y="606"/>
      <point x="457" y="606" type="curve" smooth="yes"/>
      <point x="350" y="606" type="line"/>
      <point x="350" y="714" type="line"/>
      <point x="260" y="714" type="line"/>
      <point x="260" y="606" type="line"/>
      <point x="153" y="606" type="line" smooth="yes"/>
      <point x="34" y="606"/>
      <point x="11" y="530"/>
      <point x="11" y="463" type="curve"/>
      <point x="97" y="463" type="line"/>
      <point x="97" y="501"/>
      <point x="114" y="527"/>
      <point x="158" y="527" type="curve" smooth="yes"/>
      <point x="260" y="527" type="line"/>
    </contour>
  </outline>
</glyph>
<glyph name="uni03EE" format="2">
  <advance width="610"/>
  <unicode hex="03EE"/>
  <outline>
    <contour>
      <point x="260" y="0" type="line"/>
      <point x="350" y="0" type="line"/>
      <point x="350" y="527" type="line"/>
      <point x="452" y="527" type="line" smooth="yes"/>
      <point x="496" y="527"/>
      <point x="513" y="501"/>
      <point x="513" y="463" type="curve"/>
      <point x="599" y="463" type="line"/>
      <point x="599" y="530"/>
      <point x="576" y="606"/>
      <point x="457" y="606" type="curve" smooth="yes"/>
      <point x="350" y="606" type="line"/>
      <point x="350" y="714" type="line"/>
      <point x="260" y="714" type="line"/>
      <point x="260" y="606" type="line"/>
      <point x="153" y="606" type="line" smooth="yes"/>
      <point x="34" y="606"/>
      <point x="11" y="530"/>
      <point x="11" y="463" type="curve"/>
      <point x="97" y="463" type="line"/>
      <point x="97" y="501"/>
      <point x="114" y="527"/>
      <point x="158" y="527" type="curve" smooth="yes"/>
      <point x="260" y="527" type="line"/>
    </contour>
  </outline>
</glyph>
<glyph name="numbermark-ar" format="2">
  <unicode hex="0605"/>
  <outline>
    <contour>
      <point x="2" y="547" type="line"/>
      <point x="41" y="619"/>
      <point x="56" y="642"/>
      <point x="92" y="642" type="curve" smooth="yes"/>
      <point x="150" y="642"/>
      <point x="183" y="575"/>
      <point x="278" y="575" type="curve" smooth="yes"/>
      <point x="352" y="575"/>
      <point x="444" y="605"/>
      <point x="526" y="647" type="curve"/>
      <point x="499" y="704" type="line"/>
      <point x="415" y="666"/>
      <point x="347" y="653"/>
      <point x="295" y="653" type="curve" smooth="yes"/>
      <point x="198" y="653"/>
      <point x="184" y="725"/>
      <point x="91" y="725" type="curve" smooth="yes"/>
      <point x="16" y="725"/>
      <point x="-14" y="668"/>
      <point x="-56" y="574" type="curve"/>
    </contour>
  </outline>
</glyph>
<glyph name="doublecircumflexcomb" format="2">
  <unicode hex="1DCD"/>
  <anchor x="0" y="603" name="_rsb"/>
  <outline>
    <contour>
      <point x="-420" y="606" type="line"/>
      <point x="-361" y="606" type="line"/>
      <point x="-241" y="633"/>
      <point x="-116" y="664"/>
      <point x="0" y="701" type="curve"/>
      <point x="107" y="664"/>
      <point x="230" y="633"/>
      <point x="355" y="606" type="curve"/>
      <point x="415" y="606" type="line"/>
      <point x="415" y="616" type="line"/>
      <point x="266" y="668"/>
      <point x="122" y="725"/>
      <point x="50" y="766" type="curve"/>
      <point x="-48" y="766" type="line"/>
      <point x="-131" y="722"/>
      <point x="-308" y="654"/>
      <point x="-420" y="616" type="curve"/>
    </contour>
  </outline>
</glyph>
<glyph name="swungdash" format="2">
  <advance width="1000"/>
  <unicode hex="2053"/>
  <outline>
    <contour>
      <point x="741" y="281" type="curve" smooth="yes"/>
      <point x="600" y="281"/>
      <point x="433" y="373"/>
      <point x="275" y="373" type="curve" smooth="yes"/>
      <point x="175" y="373"/>
      <point x="93" y="320"/>
      <point x="79" y="217" type="curve"/>
      <point x="131" y="217" type="line"/>
      <point x="146" y="266"/>
      <point x="188" y="306"/>
      <point x="261" y="306" type="curve" smooth="yes"/>
      <point x="398" y="306"/>
      <point x="575" y="214"/>
      <point x="728" y="214" type="curve" smooth="yes"/>
      <point x="828" y="214"/>
      <point x="910" y="266"/>
      <point x="924" y="369" type="curve"/>
      <point x="872" y="369" type="line"/>
      <point x="856" y="319"/>
      <point x="815" y="281"/>
    </contour>
  </outline>
</glyph>
<glyph name="dottedCircle" format="2">
  <advance width="731"/>
  <unicode hex="25CC"/>
  <note>
uni25CC
</note>
  <anchor x="366" y="810" name="above"/>
  <anchor x="366" y="810" name="above.cap"/>
  <anchor x="366" y="0" name="bottom"/>
  <anchor x="366" y="810" name="top"/>
  <outline>
    <contour>
      <point x="616" y="570" type="curve" smooth="yes"/>
      <point x="616" y="592"/>
      <point x="605" y="604"/>
      <point x="584" y="604" type="curve" smooth="yes"/>
      <point x="561" y="604"/>
      <point x="549" y="592"/>
      <point x="549" y="570" type="curve" smooth="yes"/>
      <point x="549" y="547"/>
      <point x="561" y="536"/>
      <point x="584" y="536" type="curve" smooth="yes"/>
      <point x="605" y="536"/>
      <point x="616" y="547"/>
    </contour>
    <contour>
      <point x="517" y="636" type="curve" smooth="yes"/>
      <point x="517" y="659"/>
      <point x="506" y="670"/>
      <point x="484" y="670" type="curve" smooth="yes"/>
      <point x="461" y="670"/>
      <point x="449" y="659"/>
      <point x="449" y="636" type="curve" smooth="yes"/>
      <point x="449" y="614"/>
      <point x="461" y="603"/>
      <point x="484" y="603" type="curve" smooth="yes"/>
      <point x="506" y="603"/>
      <point x="517" y="614"/>
    </contour>
    <contour>
      <point x="683" y="470" type="curve" smooth="yes"/>
      <point x="683" y="492"/>
      <point x="672" y="503"/>
      <point x="650" y="503" type="curve" smooth="yes"/>
      <point x="627" y="503"/>
      <point x="615" y="492"/>
      <point x="615" y="470" type="curve" smooth="yes"/>
      <point x="615" y="447"/>
      <point x="626" y="436"/>
      <point x="648" y="436" type="curve" smooth="yes"/>
      <point x="671" y="436"/>
      <point x="683" y="447"/>
    </contour>
    <contour>
      <point x="707" y="353" type="curve" smooth="yes"/>
      <point x="707" y="375"/>
      <point x="696" y="387"/>
      <point x="675" y="387" type="curve" smooth="yes"/>
      <point x="651" y="387"/>
      <point x="640" y="375"/>
      <point x="640" y="353" type="curve" smooth="yes"/>
      <point x="640" y="331"/>
      <point x="651" y="319"/>
      <point x="675" y="319" type="curve" smooth="yes"/>
      <point x="696" y="319"/>
      <point x="707" y="331"/>
    </contour>
    <contour>
      <point x="399" y="661" type="curve" smooth="yes"/>
      <point x="399" y="683"/>
      <point x="388" y="694"/>
      <point x="365" y="694" type="curve" smooth="yes"/>
      <point x="343" y="694"/>
      <point x="332" y="683"/>
      <point x="332" y="661" type="curve" smooth="yes"/>
      <point x="332" y="638"/>
      <point x="343" y="626"/>
      <point x="365" y="626" type="curve" smooth="yes"/>
      <point x="388" y="626"/>
      <point x="399" y="638"/>
    </contour>
    <contour>
      <point x="283" y="636" type="curve" smooth="yes"/>
      <point x="283" y="659"/>
      <point x="271" y="670"/>
      <point x="248" y="670" type="curve" smooth="yes"/>
      <point x="226" y="670"/>
      <point x="215" y="659"/>
      <point x="215" y="636" type="curve" smooth="yes"/>
      <point x="215" y="614"/>
      <point x="226" y="603"/>
      <point x="248" y="603" type="curve" smooth="yes"/>
      <point x="271" y="603"/>
      <point x="283" y="614"/>
    </contour>
    <contour>
      <point x="683" y="236" type="curve" smooth="yes"/>
      <point x="683" y="259"/>
      <point x="671" y="270"/>
      <point x="648" y="270" type="curve" smooth="yes"/>
      <point x="626" y="270"/>
      <point x="615" y="259"/>
      <point x="615" y="236" type="curve" smooth="yes"/>
      <point x="615" y="214"/>
      <point x="626" y="203"/>
      <point x="648" y="203" type="curve" smooth="yes"/>
      <point x="671" y="203"/>
      <point x="683" y="214"/>
    </contour>
    <contour>
      <point x="183" y="570" type="curve" smooth="yes"/>
      <point x="183" y="592"/>
      <point x="172" y="604"/>
      <point x="149" y="604" type="curve" smooth="yes"/>
      <point x="127" y="604"/>
      <point x="116" y="592"/>
      <point x="116" y="568" type="curve" smooth="yes"/>
      <point x="116" y="547"/>
      <point x="127" y="536"/>
      <point x="149" y="536" type="curve" smooth="yes"/>
      <point x="172" y="536"/>
      <point x="183" y="547"/>
    </contour>
    <contour>
      <point x="616" y="135" type="curve" smooth="yes"/>
      <point x="616" y="158"/>
      <point x="605" y="169"/>
      <point x="584" y="169" type="curve" smooth="yes"/>
      <point x="561" y="169"/>
      <point x="549" y="158"/>
      <point x="549" y="135" type="curve" smooth="yes"/>
      <point x="549" y="113"/>
      <point x="561" y="102"/>
      <point x="584" y="102" type="curve" smooth="yes"/>
      <point x="605" y="102"/>
      <point x="616" y="113"/>
    </contour>
    <contour>
      <point x="517" y="69" type="curve" smooth="yes"/>
      <point x="517" y="92"/>
      <point x="506" y="104"/>
      <point x="484" y="104" type="curve" smooth="yes"/>
      <point x="461" y="104"/>
      <point x="449" y="92"/>
      <point x="449" y="69" type="curve" smooth="yes"/>
      <point x="449" y="47"/>
      <point x="461" y="37"/>
      <point x="484" y="37" type="curve" smooth="yes"/>
      <point x="506" y="37"/>
      <point x="517" y="47"/>
    </contour>
    <contour>
      <point x="116" y="470" type="curve" smooth="yes"/>
      <point x="116" y="492"/>
      <point x="105" y="503"/>
      <point x="83" y="503" type="curve" smooth="yes"/>
      <point x="60" y="503"/>
      <point x="49" y="492"/>
      <point x="49" y="470" type="curve" smooth="yes"/>
      <point x="49" y="447"/>
      <point x="61" y="436"/>
      <point x="84" y="436" type="curve" smooth="yes"/>
      <point x="105" y="436"/>
      <point x="116" y="447"/>
    </contour>
    <contour>
      <point x="92" y="353" type="curve" smooth="yes"/>
      <point x="92" y="375"/>
      <point x="81" y="387"/>
      <point x="60" y="387" type="curve" smooth="yes"/>
      <point x="36" y="387"/>
      <point x="24" y="375"/>
      <point x="24" y="353" type="curve" smooth="yes"/>
      <point x="24" y="331"/>
      <point x="36" y="319"/>
      <point x="60" y="319" type="curve" smooth="yes"/>
      <point x="81" y="319"/>
      <point x="92" y="331"/>
    </contour>
    <contour>
      <point x="399" y="46" type="curve" smooth="yes"/>
      <point x="399" y="68"/>
      <point x="388" y="80"/>
      <point x="365" y="80" type="curve" smooth="yes"/>
      <point x="343" y="80"/>
      <point x="332" y="68"/>
      <point x="332" y="46" type="curve" smooth="yes"/>
      <point x="332" y="23"/>
      <point x="343" y="12"/>
      <point x="365" y="12" type="curve" smooth="yes"/>
      <point x="388" y="12"/>
      <point x="399" y="23"/>
    </contour>
    <contour>
      <point x="116" y="236" type="curve" smooth="yes"/>
      <point x="116" y="259"/>
      <point x="105" y="270"/>
      <point x="83" y="270" type="curve" smooth="yes"/>
      <point x="60" y="270"/>
      <point x="49" y="259"/>
      <point x="49" y="236" type="curve" smooth="yes"/>
      <point x="49" y="214"/>
      <point x="60" y="203"/>
      <point x="83" y="203" type="curve" smooth="yes"/>
      <point x="105" y="203"/>
      <point x="116" y="214"/>
    </contour>
    <contour>
      <point x="283" y="71" type="curve" smooth="yes"/>
      <point x="283" y="93"/>
      <point x="271" y="104"/>
      <point x="248" y="104" type="curve" smooth="yes"/>
      <point x="226" y="104"/>
      <point x="215" y="92"/>
      <point x="215" y="69" type="curve" smooth="yes"/>
      <point x="215" y="47"/>
      <point x="226" y="37"/>
      <point x="248" y="37" type="curve" smooth="yes"/>
      <point x="271" y="37"/>
      <point x="283" y="48"/>
    </contour>
    <contour>
      <point x="183" y="135" type="curve" smooth="yes"/>
      <point x="183" y="158"/>
      <point x="172" y="169"/>
      <point x="149" y="169" type="curve" smooth="yes"/>
      <point x="127" y="169"/>
      <point x="116" y="158"/>
      <point x="116" y="135" type="curve" smooth="yes"/>
      <point x="116" y="113"/>
      <point x="127" y="102"/>
      <point x="149" y="102" type="curve" smooth="yes"/>
      <point x="172" y="102"/>
      <point x="183" y="113"/>
    </contour>
  </outline>
</glyph>
<glyph name="Alfa-coptic" format="2">
  <advance width="633"/>
  <unicode hex="2C80"/>
  <anchor x="371" y="810" name="above"/>
  <anchor x="314" y="810" name="above.cap"/>
  <anchor x="273" y="0" name="bottom"/>
  <anchor x="361" y="810" name="top"/>
  <outline>
    <contour>
      <point x="239" y="-14" type="curve" smooth="yes"/>
      <point x="347" y="-14"/>
      <point x="428" y="41"/>
      <point x="479" y="102" type="curve"/>
      <point x="488" y="84" type="line" smooth="yes"/>
      <point x="516" y="27"/>
      <point x="556" y="0"/>
      <point x="626" y="0" type="curve" smooth="yes"/>
      <point x="645" y="0" type="line"/>
      <point x="645" y="86" type="line"/>
      <point x="612" y="86"/>
      <point x="578" y="104"/>
      <point x="546" y="176" type="curve" smooth="yes"/>
      <point x="370" y="578" type="line" smooth="yes"/>
      <point x="325" y="681"/>
      <point x="270" y="714"/>
      <point x="156" y="714" type="curve" smooth="yes"/>
      <point x="137" y="714" type="line"/>
      <point x="137" y="632" type="line"/>
      <point x="223" y="632"/>
      <point x="257" y="608"/>
      <point x="291" y="527" type="curve" smooth="yes"/>
      <point x="345" y="397" type="line"/>
      <point x="21" y="113" type="line"/>
      <point x="58" y="36"/>
      <point x="124" y="-14"/>
    </contour>
    <contour>
      <point x="240" y="68" type="curve" smooth="yes"/>
      <point x="203" y="68"/>
      <point x="156" y="87"/>
      <point x="139" y="112" type="curve"/>
      <point x="379" y="321" type="line"/>
      <point x="446" y="171" type="line"/>
      <point x="399" y="114"/>
      <point x="328" y="68"/>
    </contour>
  </outline>
</glyph>
<glyph name="alfa-coptic" format="2">
  <advance width="574"/>
  <unicode hex="2C81"/>
  <anchor x="307" y="603" name="above"/>
  <anchor x="283" y="810" name="above.cap"/>
  <anchor x="244" y="0" name="bottom"/>
  <anchor x="0" y="603" name="lsb"/>
  <anchor x="0" y="810" name="lsb.cap"/>
  <anchor x="574" y="603" name="rsb"/>
  <anchor x="574" y="810" name="rsb.cap"/>
  <anchor x="273" y="603" name="top"/>
  <outline>
    <contour>
      <point x="211" y="-10" type="curve" smooth="yes"/>
      <point x="312" y="-10"/>
      <point x="376" y="32"/>
      <point x="427" y="82" type="curve"/>
      <point x="435" y="70" type="line" smooth="yes"/>
      <point x="463" y="29"/>
      <point x="493" y="0"/>
      <point x="559" y="0" type="curve" smooth="yes"/>
      <point x="579" y="0" type="line"/>
      <point x="579" y="74" type="line"/>
      <point x="549" y="74"/>
      <point x="522" y="80"/>
      <point x="493" y="134" type="curve" smooth="yes"/>
      <point x="335" y="431" type="line" smooth="yes"/>
      <point x="298" y="501"/>
      <point x="252" y="536"/>
      <point x="148" y="536" type="curve" smooth="yes"/>
      <point x="133" y="536" type="line"/>
      <point x="133" y="461" type="line"/>
      <point x="202" y="461"/>
      <point x="234" y="437"/>
      <point x="262" y="386" type="curve" smooth="yes"/>
      <point x="301" y="314" type="line"/>
      <point x="20" y="100" type="line"/>
      <point x="48" y="39"/>
      <point x="112" y="-10"/>
    </contour>
    <contour>
      <point x="227" y="64" type="curve" smooth="yes"/>
      <point x="194" y="64"/>
      <point x="151" y="82"/>
      <point x="137" y="103" type="curve"/>
      <point x="334" y="252" type="line"/>
      <point x="395" y="137" type="line"/>
      <point x="350" y="94"/>
      <point x="297" y="64"/>
    </contour>
  </outline>
</glyph>
<glyph name="Vida-coptic" format="2">
  <advance width="650"/>
  <unicode hex="2C82"/>
  <anchor x="371" y="810" name="above"/>
  <anchor x="317" y="810" name="above.cap"/>
  <anchor x="312" y="0" name="bottom"/>
  <anchor x="312" y="810" name="top"/>
  <outline>
    <contour>
      <point x="97" y="0" type="line"/>
      <point x="348" y="0" type="line" smooth="yes"/>
      <point x="501" y="0"/>
      <point x="596" y="73"/>
      <point x="596" y="203" type="curve" smooth="yes"/>
      <point x="596" y="314"/>
      <point x="526" y="359"/>
      <point x="436" y="374" type="curve"/>
      <point x="436" y="379" type="line"/>
      <point x="524" y="395"/>
      <point x="572" y="453"/>
      <point x="572" y="537" type="curve" smooth="yes"/>
      <point x="572" y="667"/>
      <point x="479" y="714"/>
      <point x="301" y="714" type="curve" smooth="yes"/>
      <point x="97" y="714" type="line"/>
    </contour>
    <contour>
      <point x="187" y="76" type="line"/>
      <point x="187" y="335" type="line"/>
      <point x="324" y="335" type="line" smooth="yes"/>
      <point x="456" y="335"/>
      <point x="500" y="285"/>
      <point x="500" y="210" type="curve" smooth="yes"/>
      <point x="500" y="130"/>
      <point x="457" y="76"/>
      <point x="331" y="76" type="curve" smooth="yes"/>
    </contour>
    <contour>
      <point x="187" y="410" type="line"/>
      <point x="187" y="637" type="line"/>
      <point x="305" y="637" type="line" smooth="yes"/>
      <point x="426" y="637"/>
      <point x="479" y="605"/>
      <point x="479" y="527" type="curve" smooth="yes"/>
      <point x="479" y="450"/>
      <point x="441" y="410"/>
      <point x="319" y="410" type="curve" smooth="yes"/>
    </contour>
  </outline>
</glyph>
<glyph name="vida-coptic" format="2">
  <advance width="576"/>
  <unicode hex="2C83"/>
  <anchor x="307" y="603" name="above"/>
  <anchor x="288" y="810" name="above.cap"/>
  <anchor x="312" y="0" name="bottom"/>
  <anchor x="0" y="603" name="lsb"/>
  <anchor x="0" y="810" name="lsb.cap"/>
  <anchor x="576" y="603" name="rsb"/>
  <anchor x="576" y="810" name="rsb.cap"/>
  <anchor x="273" y="603" name="top"/>
  <outline>
    <contour>
      <point x="85" y="0" type="line"/>
      <point x="326" y="0" type="line" smooth="yes"/>
      <point x="480" y="0"/>
      <point x="543" y="66"/>
      <point x="543" y="157" type="curve" smooth="yes"/>
      <point x="543" y="238"/>
      <point x="489" y="271"/>
      <point x="413" y="281" type="curve"/>
      <point x="413" y="285" type="line"/>
      <point x="485" y="298"/>
      <point x="526" y="332"/>
      <point x="526" y="401" type="curve" smooth="yes"/>
      <point x="526" y="503"/>
      <point x="439" y="536"/>
      <point x="325" y="536" type="curve" smooth="yes"/>
      <point x="85" y="536" type="line"/>
    </contour>
    <contour>
      <point x="173" y="71" type="line"/>
      <point x="173" y="243" type="line"/>
      <point x="317" y="243" type="line" smooth="yes"/>
      <point x="407" y="243"/>
      <point x="455" y="222"/>
      <point x="455" y="162" type="curve" smooth="yes"/>
      <point x="455" y="95"/>
      <point x="399" y="71"/>
      <point x="319" y="71" type="curve" smooth="yes"/>
    </contour>
    <contour>
      <point x="173" y="316" type="line"/>
      <point x="173" y="463" type="line"/>
      <point x="323" y="463" type="line" smooth="yes"/>
      <point x="401" y="463"/>
      <point x="440" y="443"/>
      <point x="440" y="393" type="curve" smooth="yes"/>
      <point x="440" y="333"/>
      <point x="394" y="316"/>
      <point x="307" y="316" type="curve" smooth="yes"/>
    </contour>
  </outline>
</glyph>
<glyph name="Gamma-coptic" format="2">
  <advance width="524"/>
  <unicode hex="2C84"/>
  <anchor x="307" y="810" name="above"/>
  <anchor x="261" y="810" name="above.cap"/>
  <anchor x="273" y="0" name="bottom"/>
  <anchor x="302" y="810" name="top"/>
  <outline>
    <contour>
      <point x="97" y="0" type="line"/>
      <point x="187" y="0" type="line"/>
      <point x="187" y="634" type="line"/>
      <point x="341" y="634" type="line" smooth="yes"/>
      <point x="412" y="634"/>
      <point x="435" y="616"/>
      <point x="435" y="560" type="curve"/>
      <point x="520" y="560" type="line"/>
      <point x="520" y="663"/>
      <point x="486" y="714"/>
      <point x="370" y="714" type="curve" smooth="yes"/>
      <point x="97" y="714" type="line"/>
    </contour>
  </outline>
</glyph>
<glyph name="gamma-coptic" format="2">
  <advance width="433"/>
  <unicode hex="2C85"/>
  <anchor x="258" y="603" name="above"/>
  <anchor x="214" y="810" name="above.cap"/>
  <anchor x="244" y="0" name="bottom"/>
  <anchor x="0" y="603" name="lsb"/>
  <anchor x="0" y="810" name="lsb.cap"/>
  <anchor x="433" y="603" name="rsb"/>
  <anchor x="433" y="810" name="rsb.cap"/>
  <anchor x="244" y="603" name="top"/>
  <outline>
    <contour>
      <point x="85" y="0" type="line"/>
      <point x="173" y="0" type="line"/>
      <point x="173" y="462" type="line"/>
      <point x="253" y="462" type="line" smooth="yes"/>
      <point x="317" y="462"/>
      <point x="337" y="445"/>
      <point x="337" y="394" type="curve"/>
      <point x="414" y="394" type="line"/>
      <point x="414" y="483"/>
      <point x="387" y="536"/>
      <point x="279" y="536" type="curve" smooth="yes"/>
      <point x="85" y="536" type="line"/>
    </contour>
  </outline>
</glyph>
<glyph name="Dalda-coptic" format="2">
  <advance width="814"/>
  <unicode hex="2C86"/>
  <anchor x="419" y="810" name="above"/>
  <anchor x="356" y="810" name="above.cap"/>
  <anchor x="415" y="0" name="bottom"/>
  <anchor x="415" y="810" name="top"/>
  <outline>
    <contour>
      <point x="156" y="0" type="curve" smooth="yes"/>
      <point x="799" y="0" type="line"/>
      <point x="799" y="79" type="line"/>
      <point x="742" y="79"/>
      <point x="720" y="85"/>
      <point x="684" y="167" type="curve" smooth="yes"/>
      <point x="502" y="576" type="line" smooth="yes"/>
      <point x="456" y="679"/>
      <point x="404" y="714"/>
      <point x="290" y="714" type="curve" smooth="yes"/>
      <point x="271" y="714" type="line"/>
      <point x="271" y="635" type="line"/>
      <point x="367" y="635"/>
      <point x="386" y="615"/>
      <point x="417" y="554" type="curve"/>
      <point x="184" y="79" type="line"/>
      <point x="131" y="79"/>
      <point x="101" y="86"/>
      <point x="101" y="142" type="curve"/>
      <point x="16" y="142" type="line"/>
      <point x="16" y="55"/>
      <point x="50" y="0"/>
    </contour>
    <contour>
      <point x="274" y="79" type="line"/>
      <point x="458" y="474" type="line"/>
      <point x="631" y="79" type="line"/>
    </contour>
  </outline>
</glyph>
<glyph name="uni2C86" format="2">
  <advance width="814"/>
  <unicode hex="2C86"/>
  <outline>
    <contour>
      <point x="156" y="0" type="curve" smooth="yes"/>
      <point x="799" y="0" type="line"/>
      <point x="799" y="79" type="line"/>
      <point x="742" y="79"/>
      <point x="720" y="85"/>
      <point x="684" y="167" type="curve" smooth="yes"/>
      <point x="502" y="576" type="line" smooth="yes"/>
      <point x="456" y="679"/>
      <point x="404" y="714"/>
      <point x="290" y="714" type="curve" smooth="yes"/>
      <point x="271" y="714" type="line"/>
      <point x="271" y="635" type="line"/>
      <point x="367" y="635"/>
      <point x="386" y="615"/>
      <point x="417" y="554" type="curve"/>
      <point x="184" y="79" type="line"/>
      <point x="131" y="79"/>
      <point x="101" y="86"/>
      <point x="101" y="142" type="curve"/>
      <point x="16" y="142" type="line"/>
      <point x="16" y="55"/>
      <point x="50" y="0"/>
    </contour>
    <contour>
      <point x="274" y="79" type="line"/>
      <point x="458" y="474" type="line"/>
      <point x="631" y="79" type="line"/>
    </contour>
  </outline>
</glyph>
<glyph name="dalda-coptic" format="2">
  <advance width="658"/>
  <unicode hex="2C87"/>
  <anchor x="371" y="603" name="above"/>
  <anchor x="329" y="810" name="above.cap"/>
  <anchor x="366" y="0" name="bottom"/>
  <anchor x="0" y="603" name="lsb"/>
  <anchor x="0" y="810" name="lsb.cap"/>
  <anchor x="658" y="603" name="rsb"/>
  <anchor x="658" y="810" name="rsb.cap"/>
  <anchor x="273" y="603" name="top"/>
  <outline>
    <contour>
      <point x="115" y="0" type="curve" smooth="yes"/>
      <point x="648" y="0" type="line"/>
      <point x="648" y="71" type="line"/>
      <point x="603" y="71"/>
      <point x="580" y="78"/>
      <point x="553" y="135" type="curve" smooth="yes"/>
      <point x="415" y="426" type="line" smooth="yes"/>
      <point x="378" y="503"/>
      <point x="330" y="537"/>
      <point x="244" y="537" type="curve" smooth="yes"/>
      <point x="205" y="537" type="line"/>
      <point x="205" y="466" type="line"/>
      <point x="284" y="466"/>
      <point x="305" y="453"/>
      <point x="327" y="402" type="curve"/>
      <point x="146" y="71" type="line"/>
      <point x="109" y="71"/>
      <point x="85" y="77"/>
      <point x="85" y="119" type="curve"/>
      <point x="10" y="119" type="line"/>
      <point x="10" y="53"/>
      <point x="35" y="0"/>
    </contour>
    <contour>
      <point x="237" y="71" type="line"/>
      <point x="370" y="328" type="line"/>
      <point x="495" y="71" type="line"/>
    </contour>
  </outline>
</glyph>
<glyph name="uni2C87" format="2">
  <advance width="658"/>
  <unicode hex="2C87"/>
  <outline>
    <contour>
      <point x="115" y="0" type="curve" smooth="yes"/>
      <point x="648" y="0" type="line"/>
      <point x="648" y="71" type="line"/>
      <point x="603" y="71"/>
      <point x="580" y="78"/>
      <point x="553" y="135" type="curve" smooth="yes"/>
      <point x="415" y="426" type="line" smooth="yes"/>
      <point x="378" y="503"/>
      <point x="330" y="537"/>
      <point x="244" y="537" type="curve" smooth="yes"/>
      <point x="205" y="537" type="line"/>
      <point x="205" y="466" type="line"/>
      <point x="284" y="466"/>
      <point x="305" y="453"/>
      <point x="327" y="402" type="curve"/>
      <point x="146" y="71" type="line"/>
      <point x="109" y="71"/>
      <point x="85" y="77"/>
      <point x="85" y="119" type="curve"/>
      <point x="10" y="119" type="line"/>
      <point x="10" y="53"/>
      <point x="35" y="0"/>
    </contour>
    <contour>
      <point x="237" y="71" type="line"/>
      <point x="370" y="328" type="line"/>
      <point x="495" y="71" type="line"/>
    </contour>
  </outline>
</glyph>
<glyph name="Eie-coptic" format="2">
  <advance width="643"/>
  <unicode hex="2C88"/>
  <anchor x="371" y="810" name="above"/>
  <anchor x="322" y="810" name="above.cap"/>
  <anchor x="400" y="0" name="bottom"/>
  <anchor x="361" y="810" name="top"/>
  <outline>
    <contour>
      <point x="395" y="-10" type="curve" smooth="yes"/>
      <point x="470" y="-10"/>
      <point x="532" y="-1"/>
      <point x="586" y="19" type="curve"/>
      <point x="586" y="97" type="line"/>
      <point x="530" y="81"/>
      <point x="472" y="69"/>
      <point x="407" y="69" type="curve" smooth="yes"/>
      <point x="245" y="69"/>
      <point x="163" y="164"/>
      <point x="156" y="333" type="curve"/>
      <point x="506" y="333" type="line"/>
      <point x="506" y="411" type="line"/>
      <point x="158" y="411" type="line"/>
      <point x="175" y="566"/>
      <point x="266" y="645"/>
      <point x="407" y="645" type="curve" smooth="yes"/>
      <point x="475" y="645"/>
      <point x="530" y="627"/>
      <point x="577" y="604" type="curve"/>
      <point x="614" y="681" type="line"/>
      <point x="559" y="708"/>
      <point x="495" y="725"/>
      <point x="409" y="725" type="curve" smooth="yes"/>
      <point x="183" y="725"/>
      <point x="61" y="578"/>
      <point x="61" y="358" type="curve" smooth="yes"/>
      <point x="61" y="137"/>
      <point x="163" y="-10"/>
    </contour>
  </outline>
</glyph>
<glyph name="uni2C88" format="2">
  <advance width="643"/>
  <unicode hex="2C88"/>
  <outline>
    <contour>
      <point x="395" y="-10" type="curve" smooth="yes"/>
      <point x="470" y="-10"/>
      <point x="532" y="-1"/>
      <point x="586" y="19" type="curve"/>
      <point x="586" y="97" type="line"/>
      <point x="530" y="81"/>
      <point x="472" y="69"/>
      <point x="407" y="69" type="curve" smooth="yes"/>
      <point x="245" y="69"/>
      <point x="163" y="164"/>
      <point x="156" y="333" type="curve"/>
      <point x="506" y="333" type="line"/>
      <point x="506" y="411" type="line"/>
      <point x="158" y="411" type="line"/>
      <point x="175" y="566"/>
      <point x="266" y="645"/>
      <point x="407" y="645" type="curve" smooth="yes"/>
      <point x="475" y="645"/>
      <point x="530" y="627"/>
      <point x="577" y="604" type="curve"/>
      <point x="614" y="681" type="line"/>
      <point x="559" y="708"/>
      <point x="495" y="725"/>
      <point x="409" y="725" type="curve" smooth="yes"/>
      <point x="183" y="725"/>
      <point x="61" y="578"/>
      <point x="61" y="358" type="curve" smooth="yes"/>
      <point x="61" y="137"/>
      <point x="163" y="-10"/>
    </contour>
  </outline>
</glyph>
<glyph name="eie-coptic" format="2">
  <advance width="495"/>
  <unicode hex="2C89"/>
  <anchor x="307" y="603" name="above"/>
  <anchor x="253" y="810" name="above.cap"/>
  <anchor x="312" y="0" name="bottom"/>
  <anchor x="0" y="603" name="lsb"/>
  <anchor x="0" y="810" name="lsb.cap"/>
  <anchor x="495" y="603" name="rsb"/>
  <anchor x="495" y="810" name="rsb.cap"/>
  <anchor x="273" y="603" name="top"/>
  <outline>
    <contour>
      <point x="310" y="-10" type="curve" smooth="yes"/>
      <point x="372" y="-10"/>
      <point x="415" y="0"/>
      <point x="453" y="19" type="curve"/>
      <point x="453" y="95" type="line"/>
      <point x="413" y="79"/>
      <point x="368" y="65"/>
      <point x="308" y="65" type="curve" smooth="yes"/>
      <point x="204" y="65"/>
      <point x="151" y="121"/>
      <point x="145" y="240" type="curve"/>
      <point x="409" y="240" type="line"/>
      <point x="409" y="312" type="line"/>
      <point x="146" y="312" type="line"/>
      <point x="157" y="419"/>
      <point x="208" y="470"/>
      <point x="311" y="470" type="curve" smooth="yes"/>
      <point x="349" y="470"/>
      <point x="398" y="459"/>
      <point x="435" y="445" type="curve"/>
      <point x="461" y="517" type="line"/>
      <point x="423" y="534"/>
      <point x="367" y="546"/>
      <point x="313" y="546" type="curve" smooth="yes"/>
      <point x="166" y="546"/>
      <point x="55" y="465"/>
      <point x="55" y="265" type="curve" smooth="yes"/>
      <point x="55" y="72"/>
      <point x="162" y="-10"/>
    </contour>
  </outline>
</glyph>
<glyph name="Sou-coptic" format="2">
  <advance width="556"/>
  <unicode hex="2C8A"/>
  <anchor x="307" y="810" name="above"/>
  <anchor x="278" y="810" name="above.cap"/>
  <anchor x="273" y="-49" name="bottom"/>
  <anchor x="302" y="810" name="top"/>
  <outline>
    <contour>
      <point x="264" y="-70" type="curve" smooth="yes"/>
      <point x="388" y="-70"/>
      <point x="469" y="10"/>
      <point x="469" y="118" type="curve" smooth="yes"/>
      <point x="469" y="346"/>
      <point x="136" y="328"/>
      <point x="136" y="503" type="curve" smooth="yes"/>
      <point x="136" y="579"/>
      <point x="179" y="641"/>
      <point x="274" y="641" type="curve" smooth="yes"/>
      <point x="334" y="641"/>
      <point x="371" y="625"/>
      <point x="425" y="625" type="curve" smooth="yes"/>
      <point x="498" y="625"/>
      <point x="542" y="646"/>
      <point x="580" y="703" type="curve"/>
      <point x="518" y="747" type="line"/>
      <point x="497" y="718"/>
      <point x="474" y="703"/>
      <point x="422" y="703" type="curve" smooth="yes"/>
      <point x="380" y="703"/>
      <point x="348" y="719"/>
      <point x="280" y="719" type="curve" smooth="yes"/>
      <point x="139" y="719"/>
      <point x="45" y="629"/>
      <point x="45" y="502" type="curve" smooth="yes"/>
      <point x="45" y="264"/>
      <point x="379" y="282"/>
      <point x="379" y="111" type="curve" smooth="yes"/>
      <point x="379" y="42"/>
      <point x="330" y="8"/>
      <point x="268" y="8" type="curve" smooth="yes"/>
      <point x="250" y="8"/>
      <point x="232" y="9"/>
      <point x="215" y="11" type="curve"/>
      <point x="215" y="-69" type="line"/>
      <point x="230" y="-70"/>
      <point x="248" y="-70"/>
    </contour>
  </outline>
</glyph>
<glyph name="sou-coptic" format="2">
  <advance width="479"/>
  <unicode hex="2C8B"/>
  <anchor x="258" y="603" name="above"/>
  <anchor x="239" y="810" name="above.cap"/>
  <anchor x="283" y="-137" name="bottom"/>
  <anchor x="0" y="603" name="lsb"/>
  <anchor x="0" y="810" name="lsb.cap"/>
  <anchor x="479" y="603" name="rsb"/>
  <anchor x="479" y="810" name="rsb.cap"/>
  <anchor x="273" y="603" name="top"/>
  <outline>
    <contour>
      <point x="238" y="-176" type="curve" smooth="yes"/>
      <point x="364" y="-176"/>
      <point x="427" y="-78"/>
      <point x="427" y="7" type="curve" smooth="yes"/>
      <point x="427" y="208"/>
      <point x="132" y="192"/>
      <point x="132" y="353" type="curve" smooth="yes"/>
      <point x="132" y="416"/>
      <point x="171" y="470"/>
      <point x="249" y="470" type="curve" smooth="yes"/>
      <point x="297" y="470"/>
      <point x="327" y="458"/>
      <point x="387" y="458" type="curve" smooth="yes"/>
      <point x="448" y="458"/>
      <point x="484" y="484"/>
      <point x="513" y="531" type="curve"/>
      <point x="455" y="571" type="line"/>
      <point x="435" y="541"/>
      <point x="412" y="530"/>
      <point x="380" y="530" type="curve" smooth="yes"/>
      <point x="338" y="530"/>
      <point x="301" y="543"/>
      <point x="247" y="543" type="curve" smooth="yes"/>
      <point x="138" y="543"/>
      <point x="48" y="472"/>
      <point x="48" y="354" type="curve" smooth="yes"/>
      <point x="48" y="136"/>
      <point x="337" y="152"/>
      <point x="337" y="1" type="curve" smooth="yes"/>
      <point x="337" y="-49"/>
      <point x="307" y="-100"/>
      <point x="237" y="-100" type="curve" smooth="yes"/>
      <point x="225" y="-100"/>
      <point x="220" y="-99"/>
      <point x="210" y="-98" type="curve"/>
      <point x="210" y="-174" type="line"/>
      <point x="217" y="-175"/>
      <point x="225" y="-176"/>
    </contour>
  </outline>
</glyph>
<glyph name="Zata-coptic" format="2">
  <advance width="572"/>
  <unicode hex="2C8C"/>
  <anchor x="307" y="810" name="above"/>
  <anchor x="273" y="810" name="above.cap"/>
  <anchor x="273" y="0" name="bottom"/>
  <anchor x="302" y="810" name="top"/>
  <outline>
    <contour>
      <point x="523" y="646" type="line"/>
      <point x="523" y="714" type="line"/>
      <point x="50" y="714" type="line"/>
      <point x="50" y="634" type="line"/>
      <point x="414" y="634" type="line"/>
      <point x="38" y="68" type="line"/>
      <point x="38" y="0" type="line"/>
      <point x="382" y="0" type="line" smooth="yes"/>
      <point x="452" y="0"/>
      <point x="467" y="-29"/>
      <point x="468" y="-91" type="curve"/>
      <point x="555" y="-91" type="line"/>
      <point x="555" y="31"/>
      <point x="521" y="80"/>
      <point x="404" y="80" type="curve" smooth="yes"/>
      <point x="147" y="80" type="line"/>
    </contour>
  </outline>
</glyph>
<glyph name="uni2C8D" format="2">
  <advance width="454"/>
  <unicode hex="2C8D"/>
  <outline>
    <contour>
      <point x="373" y="-91" type="curve"/>
      <point x="453" y="-91" type="line"/>
      <point x="451" y="19"/>
      <point x="436" y="68"/>
      <point x="313" y="68" type="curve" smooth="yes"/>
      <point x="140" y="68" type="line"/>
      <point x="424" y="470" type="line"/>
      <point x="424" y="536" type="line"/>
      <point x="56" y="536" type="line"/>
      <point x="56" y="468" type="line"/>
      <point x="327" y="468" type="line"/>
      <point x="39" y="58" type="line"/>
      <point x="39" y="0" type="line"/>
      <point x="293" y="0" type="line" smooth="yes"/>
      <point x="362" y="0"/>
      <point x="373" y="-18"/>
    </contour>
  </outline>
</glyph>
<glyph name="zata-coptic" format="2">
  <advance width="454"/>
  <unicode hex="2C8D"/>
  <anchor x="258" y="603" name="above"/>
  <anchor x="222" y="810" name="above.cap"/>
  <anchor x="224" y="0" name="bottom"/>
  <anchor x="0" y="603" name="lsb"/>
  <anchor x="0" y="810" name="lsb.cap"/>
  <anchor x="454" y="603" name="rsb"/>
  <anchor x="454" y="810" name="rsb.cap"/>
  <anchor x="234" y="603" name="top"/>
  <outline>
    <contour>
      <point x="373" y="-91" type="curve"/>
      <point x="453" y="-91" type="line"/>
      <point x="451" y="19"/>
      <point x="436" y="68"/>
      <point x="313" y="68" type="curve" smooth="yes"/>
      <point x="140" y="68" type="line"/>
      <point x="424" y="470" type="line"/>
      <point x="424" y="536" type="line"/>
      <point x="56" y="536" type="line"/>
      <point x="56" y="468" type="line"/>
      <point x="327" y="468" type="line"/>
      <point x="39" y="58" type="line"/>
      <point x="39" y="0" type="line"/>
      <point x="293" y="0" type="line" smooth="yes"/>
      <point x="362" y="0"/>
      <point x="373" y="-18"/>
    </contour>
  </outline>
</glyph>
<glyph name="Hate-coptic" format="2">
  <advance width="741"/>
  <unicode hex="2C8E"/>
  <anchor x="371" y="810" name="above"/>
  <anchor x="366" y="810" name="above.cap"/>
  <anchor x="366" y="0" name="bottom"/>
  <anchor x="361" y="810" name="top"/>
  <outline>
    <contour>
      <point x="97" y="0" type="line"/>
      <point x="187" y="0" type="line"/>
      <point x="187" y="333" type="line"/>
      <point x="553" y="333" type="line"/>
      <point x="553" y="0" type="line"/>
      <point x="643" y="0" type="line"/>
      <point x="643" y="714" type="line"/>
      <point x="553" y="714" type="line"/>
      <point x="553" y="412" type="line"/>
      <point x="187" y="412" type="line"/>
      <point x="187" y="714" type="line"/>
      <point x="97" y="714" type="line"/>
    </contour>
  </outline>
</glyph>
<glyph name="uni2C8E" format="2">
  <advance width="741"/>
  <unicode hex="2C8E"/>
  <outline>
    <contour>
      <point x="97" y="0" type="line"/>
      <point x="187" y="0" type="line"/>
      <point x="187" y="333" type="line"/>
      <point x="553" y="333" type="line"/>
      <point x="553" y="0" type="line"/>
      <point x="643" y="0" type="line"/>
      <point x="643" y="714" type="line"/>
      <point x="553" y="714" type="line"/>
      <point x="553" y="412" type="line"/>
      <point x="187" y="412" type="line"/>
      <point x="187" y="714" type="line"/>
      <point x="97" y="714" type="line"/>
    </contour>
  </outline>
</glyph>
<glyph name="hate-coptic" format="2">
  <advance width="637"/>
  <unicode hex="2C8F"/>
  <anchor x="341" y="603" name="above"/>
  <anchor x="317" y="810" name="above.cap"/>
  <anchor x="317" y="0" name="bottom"/>
  <anchor x="0" y="603" name="lsb"/>
  <anchor x="0" y="810" name="lsb.cap"/>
  <anchor x="637" y="603" name="rsb"/>
  <anchor x="637" y="810" name="rsb.cap"/>
  <anchor x="302" y="603" name="top"/>
  <outline>
    <contour>
      <point x="85" y="0" type="line"/>
      <point x="173" y="0" type="line"/>
      <point x="173" y="239" type="line"/>
      <point x="464" y="239" type="line"/>
      <point x="464" y="0" type="line"/>
      <point x="552" y="0" type="line"/>
      <point x="552" y="536" type="line"/>
      <point x="464" y="536" type="line"/>
      <point x="464" y="313" type="line"/>
      <point x="173" y="313" type="line"/>
      <point x="173" y="536" type="line"/>
      <point x="85" y="536" type="line"/>
    </contour>
  </outline>
</glyph>
<glyph name="uni2C8F" format="2">
  <advance width="637"/>
  <unicode hex="2C8F"/>
  <outline>
    <contour>
      <point x="85" y="0" type="line"/>
      <point x="173" y="0" type="line"/>
      <point x="173" y="239" type="line"/>
      <point x="464" y="239" type="line"/>
      <point x="464" y="0" type="line"/>
      <point x="552" y="0" type="line"/>
      <point x="552" y="536" type="line"/>
      <point x="464" y="536" type="line"/>
      <point x="464" y="313" type="line"/>
      <point x="173" y="313" type="line"/>
      <point x="173" y="536" type="line"/>
      <point x="85" y="536" type="line"/>
    </contour>
  </outline>
</glyph>
<glyph name="Thethe-coptic" format="2">
  <advance width="782"/>
  <unicode hex="2C90"/>
  <anchor x="419" y="810" name="above"/>
  <anchor x="390" y="810" name="above.cap"/>
  <anchor x="410" y="0" name="bottom"/>
  <anchor x="415" y="810" name="top"/>
  <outline>
    <contour>
      <point x="391" y="-10" type="curve" smooth="yes"/>
      <point x="606" y="-10"/>
      <point x="720" y="137"/>
      <point x="720" y="358" type="curve" smooth="yes"/>
      <point x="720" y="580"/>
      <point x="606" y="725"/>
      <point x="392" y="725" type="curve" smooth="yes"/>
      <point x="168" y="725"/>
      <point x="61" y="578"/>
      <point x="61" y="359" type="curve" smooth="yes"/>
      <point x="61" y="138"/>
      <point x="168" y="-10"/>
    </contour>
    <contour>
      <point x="391" y="68" type="curve" smooth="yes"/>
      <point x="238" y="68"/>
      <point x="165" y="164"/>
      <point x="157" y="325" type="curve"/>
      <point x="624" y="325" type="line"/>
      <point x="616" y="164"/>
      <point x="543" y="68"/>
    </contour>
    <contour>
      <point x="157" y="403" type="line"/>
      <point x="169" y="555"/>
      <point x="242" y="646"/>
      <point x="392" y="646" type="curve" smooth="yes"/>
      <point x="540" y="646"/>
      <point x="611" y="555"/>
      <point x="623" y="403" type="curve"/>
    </contour>
  </outline>
</glyph>
<glyph name="thethe-coptic" format="2">
  <advance width="605"/>
  <unicode hex="2C91"/>
  <anchor x="307" y="603" name="above"/>
  <anchor x="302" y="810" name="above.cap"/>
  <anchor x="317" y="0" name="bottom"/>
  <anchor x="0" y="603" name="lsb"/>
  <anchor x="0" y="810" name="lsb.cap"/>
  <anchor x="605" y="603" name="rsb"/>
  <anchor x="605" y="810" name="rsb.cap"/>
  <anchor x="302" y="603" name="top"/>
  <outline>
    <contour>
      <point x="301" y="-10" type="curve" smooth="yes"/>
      <point x="454" y="-10"/>
      <point x="551" y="91"/>
      <point x="551" y="269" type="curve" smooth="yes"/>
      <point x="551" y="446"/>
      <point x="449" y="546"/>
      <point x="304" y="546" type="curve" smooth="yes"/>
      <point x="150" y="546"/>
      <point x="55" y="446"/>
      <point x="55" y="269" type="curve" smooth="yes"/>
      <point x="55" y="91"/>
      <point x="159" y="-10"/>
    </contour>
    <contour>
      <point x="303" y="63" type="curve" smooth="yes"/>
      <point x="202" y="63"/>
      <point x="152" y="124"/>
      <point x="146" y="239" type="curve"/>
      <point x="459" y="239" type="line"/>
      <point x="452" y="124"/>
      <point x="405" y="63"/>
    </contour>
    <contour>
      <point x="147" y="312" type="line"/>
      <point x="156" y="417"/>
      <point x="203" y="472"/>
      <point x="302" y="472" type="curve" smooth="yes"/>
      <point x="399" y="472"/>
      <point x="449" y="417"/>
      <point x="459" y="312" type="curve"/>
    </contour>
  </outline>
</glyph>
<glyph name="Iauda-coptic" format="2">
  <advance width="284"/>
  <unicode hex="2C92"/>
  <anchor x="161" y="810" name="above"/>
  <anchor x="141" y="810" name="above.cap"/>
  <anchor x="146" y="0" name="bottom"/>
  <anchor x="156" y="810" name="top"/>
  <outline>
    <contour>
      <point x="97" y="0" type="line"/>
      <point x="187" y="0" type="line"/>
      <point x="187" y="714" type="line"/>
      <point x="97" y="714" type="line"/>
    </contour>
  </outline>
</glyph>
<glyph name="iauda-coptic" format="2">
  <advance width="258"/>
  <unicode hex="2C93"/>
  <anchor x="161" y="603" name="above"/>
  <anchor x="129" y="810" name="above.cap"/>
  <anchor x="122" y="0" name="bottom"/>
  <anchor x="0" y="603" name="lsb"/>
  <anchor x="0" y="810" name="lsb.cap"/>
  <anchor x="258" y="603" name="rsb"/>
  <anchor x="258" y="810" name="rsb.cap"/>
  <anchor x="122" y="603" name="top"/>
  <outline>
    <contour>
      <point x="85" y="0" type="line"/>
      <point x="173" y="0" type="line"/>
      <point x="173" y="536" type="line"/>
      <point x="85" y="536" type="line"/>
    </contour>
  </outline>
</glyph>
<glyph name="Kapa-coptic" format="2">
  <advance width="619"/>
  <unicode hex="2C94"/>
  <anchor x="307" y="810" name="above"/>
  <anchor x="307" y="810" name="above.cap"/>
  <anchor x="312" y="0" name="bottom"/>
  <anchor x="302" y="810" name="top"/>
  <outline>
    <contour>
      <point x="97" y="0" type="line"/>
      <point x="187" y="0" type="line"/>
      <point x="187" y="277" type="line"/>
      <point x="260" y="341" type="line"/>
      <point x="513" y="0" type="line"/>
      <point x="619" y="0" type="line"/>
      <point x="325" y="403" type="line"/>
      <point x="608" y="714" type="line"/>
      <point x="503" y="714" type="line"/>
      <point x="310" y="498" type="line" smooth="yes"/>
      <point x="269" y="452"/>
      <point x="227" y="407"/>
      <point x="187" y="362" type="curve"/>
      <point x="187" y="714" type="line"/>
      <point x="97" y="714" type="line"/>
    </contour>
  </outline>
</glyph>
<glyph name="kapa-coptic" format="2">
  <advance width="534"/>
  <unicode hex="2C95"/>
  <anchor x="307" y="603" name="above"/>
  <anchor x="266" y="810" name="above.cap"/>
  <anchor x="273" y="0" name="bottom"/>
  <anchor x="0" y="603" name="lsb"/>
  <anchor x="0" y="810" name="lsb.cap"/>
  <anchor x="534" y="603" name="rsb"/>
  <anchor x="534" y="810" name="rsb.cap"/>
  <anchor x="273" y="603" name="top"/>
  <outline>
    <contour>
      <point x="85" y="0" type="line"/>
      <point x="178" y="0" type="line"/>
      <point x="178" y="188" type="line"/>
      <point x="244" y="242" type="line"/>
      <point x="303" y="161"/>
      <point x="362" y="80"/>
      <point x="420" y="0" type="curve"/>
      <point x="525" y="0" type="line"/>
      <point x="453" y="99"/>
      <point x="378" y="198"/>
      <point x="306" y="298" type="curve"/>
      <point x="374" y="377"/>
      <point x="442" y="456"/>
      <point x="509" y="535" type="curve"/>
      <point x="403" y="535" type="line"/>
      <point x="172" y="262" type="line"/>
      <point x="175" y="289"/>
      <point x="178" y="343"/>
      <point x="178" y="396" type="curve" smooth="yes"/>
      <point x="178" y="535" type="line"/>
      <point x="85" y="535" type="line"/>
    </contour>
  </outline>
</glyph>
<glyph name="uni2C95" format="2">
  <advance width="534"/>
  <unicode hex="2C95"/>
  <outline>
    <contour>
      <point x="85" y="0" type="line"/>
      <point x="178" y="0" type="line"/>
      <point x="178" y="188" type="line"/>
      <point x="244" y="242" type="line"/>
      <point x="303" y="161"/>
      <point x="362" y="80"/>
      <point x="420" y="0" type="curve"/>
      <point x="525" y="0" type="line"/>
      <point x="453" y="99"/>
      <point x="378" y="198"/>
      <point x="306" y="298" type="curve"/>
      <point x="374" y="377"/>
      <point x="442" y="456"/>
      <point x="509" y="535" type="curve"/>
      <point x="403" y="535" type="line"/>
      <point x="172" y="262" type="line"/>
      <point x="175" y="289"/>
      <point x="178" y="343"/>
      <point x="178" y="396" type="curve" smooth="yes"/>
      <point x="178" y="535" type="line"/>
      <point x="85" y="535" type="line"/>
    </contour>
  </outline>
</glyph>
<glyph name="Laula-coptic" format="2">
  <advance width="581"/>
  <unicode hex="2C96"/>
  <anchor x="307" y="810" name="above"/>
  <anchor x="273" y="810" name="above.cap"/>
  <anchor x="273" y="0" name="bottom"/>
  <anchor x="302" y="810" name="top"/>
  <outline>
    <contour>
      <point x="525" y="-10" type="curve" smooth="yes"/>
      <point x="548" y="-10"/>
      <point x="569" y="-5"/>
      <point x="584" y="2" type="curve"/>
      <point x="584" y="67" type="line"/>
      <point x="577" y="65"/>
      <point x="564" y="62"/>
      <point x="554" y="62" type="curve" smooth="yes"/>
      <point x="531" y="62"/>
      <point x="515" y="77"/>
      <point x="495" y="130" type="curve" smooth="yes"/>
      <point x="316" y="599" type="line" smooth="yes"/>
      <point x="281" y="690"/>
      <point x="238" y="724"/>
      <point x="169" y="724" type="curve" smooth="yes"/>
      <point x="140" y="724"/>
      <point x="113" y="718"/>
      <point x="95" y="710" type="curve"/>
      <point x="115" y="637" type="line"/>
      <point x="124" y="641"/>
      <point x="137" y="645"/>
      <point x="151" y="645" type="curve" smooth="yes"/>
      <point x="182" y="645"/>
      <point x="210" y="627"/>
      <point x="232" y="569" type="curve" smooth="yes"/>
      <point x="258" y="502" type="line"/>
      <point x="-2" y="0" type="line"/>
      <point x="94" y="0" type="line"/>
      <point x="299" y="403" type="line"/>
      <point x="414" y="89" type="line" smooth="yes"/>
      <point x="443" y="9"/>
      <point x="476" y="-10"/>
    </contour>
  </outline>
</glyph>
<glyph name="laula-coptic" format="2">
  <advance width="467"/>
  <unicode hex="2C97"/>
  <anchor x="258" y="603" name="above"/>
  <anchor x="227" y="810" name="above.cap"/>
  <anchor x="244" y="0" name="bottom"/>
  <anchor x="0" y="603" name="lsb"/>
  <anchor x="0" y="810" name="lsb.cap"/>
  <anchor x="467" y="603" name="rsb"/>
  <anchor x="467" y="810" name="rsb.cap"/>
  <anchor x="205" y="603" name="top"/>
  <outline>
    <contour>
      <point x="101" y="536" type="line"/>
      <point x="101" y="467" type="line"/>
      <point x="144" y="467"/>
      <point x="160" y="461"/>
      <point x="182" y="414" type="curve" smooth="yes"/>
      <point x="199" y="378" type="line"/>
      <point x="-15" y="0" type="line"/>
      <point x="74" y="0" type="line"/>
      <point x="238" y="294" type="line"/>
      <point x="316" y="119" type="line" smooth="yes"/>
      <point x="360" y="19"/>
      <point x="377" y="0"/>
      <point x="457" y="0" type="curve" smooth="yes"/>
      <point x="471" y="0" type="line"/>
      <point x="471" y="70" type="line"/>
      <point x="437" y="70"/>
      <point x="425" y="78"/>
      <point x="400" y="134" type="curve" smooth="yes"/>
      <point x="259" y="446" type="line" smooth="yes"/>
      <point x="224" y="523"/>
      <point x="192" y="536"/>
      <point x="119" y="536" type="curve" smooth="yes"/>
    </contour>
  </outline>
</glyph>
<glyph name="uni2C97" format="2">
  <advance width="467"/>
  <unicode hex="2C97"/>
  <outline>
    <contour>
      <point x="101" y="536" type="line"/>
      <point x="101" y="467" type="line"/>
      <point x="144" y="467"/>
      <point x="160" y="461"/>
      <point x="182" y="414" type="curve" smooth="yes"/>
      <point x="199" y="378" type="line"/>
      <point x="-15" y="0" type="line"/>
      <point x="74" y="0" type="line"/>
      <point x="238" y="294" type="line"/>
      <point x="316" y="119" type="line" smooth="yes"/>
      <point x="360" y="19"/>
      <point x="377" y="0"/>
      <point x="457" y="0" type="curve" smooth="yes"/>
      <point x="471" y="0" type="line"/>
      <point x="471" y="70" type="line"/>
      <point x="437" y="70"/>
      <point x="425" y="78"/>
      <point x="400" y="134" type="curve" smooth="yes"/>
      <point x="259" y="446" type="line" smooth="yes"/>
      <point x="224" y="523"/>
      <point x="192" y="536"/>
      <point x="119" y="536" type="curve" smooth="yes"/>
    </contour>
  </outline>
</glyph>
<glyph name="Mi-coptic" format="2">
  <advance width="800"/>
  <unicode hex="2C98"/>
  <anchor x="390" y="810" name="above"/>
  <anchor x="371" y="810" name="above.cap"/>
  <anchor x="371" y="0" name="bottom"/>
  <anchor x="361" y="810" name="top"/>
  <outline>
    <contour>
      <point x="613" y="714" type="line"/>
      <point x="613" y="544" type="line" smooth="yes"/>
      <point x="613" y="333"/>
      <point x="521" y="117"/>
      <point x="402" y="117" type="curve" smooth="yes"/>
      <point x="284" y="117"/>
      <point x="187" y="313"/>
      <point x="187" y="546" type="curve" smooth="yes"/>
      <point x="187" y="714" type="line"/>
      <point x="97" y="714" type="line"/>
      <point x="97" y="0" type="line"/>
      <point x="187" y="0" type="line"/>
      <point x="187" y="214" type="line"/>
      <point x="230" y="89"/>
      <point x="306" y="22"/>
      <point x="399" y="22" type="curve" smooth="yes"/>
      <point x="496" y="22"/>
      <point x="556" y="81"/>
      <point x="613" y="214" type="curve"/>
      <point x="613" y="0" type="line"/>
      <point x="703" y="0" type="line"/>
      <point x="703" y="714" type="line"/>
    </contour>
  </outline>
</glyph>
<glyph name="mi-coptic" format="2">
  <advance width="746"/>
  <unicode hex="2C99"/>
  <anchor x="371" y="603" name="above"/>
  <anchor x="371" y="810" name="above.cap"/>
  <anchor x="380" y="0" name="bottom"/>
  <anchor x="0" y="603" name="lsb"/>
  <anchor x="0" y="810" name="lsb.cap"/>
  <anchor x="746" y="603" name="rsb"/>
  <anchor x="746" y="810" name="rsb.cap"/>
  <anchor x="380" y="603" name="top"/>
  <outline>
    <contour>
      <point x="371" y="-8" type="curve" smooth="yes"/>
      <point x="464" y="-8"/>
      <point x="526" y="55"/>
      <point x="566" y="214" type="curve"/>
      <point x="568" y="214" type="line"/>
      <point x="572" y="143"/>
      <point x="586" y="77"/>
      <point x="605" y="0" type="curve"/>
      <point x="690" y="0" type="line"/>
      <point x="673" y="54"/>
      <point x="639" y="168"/>
      <point x="618" y="325" type="curve"/>
      <point x="624" y="536" type="line"/>
      <point x="526" y="536" type="line"/>
      <point x="528" y="325" type="line"/>
      <point x="494" y="176"/>
      <point x="448" y="84"/>
      <point x="372" y="84" type="curve" smooth="yes"/>
      <point x="315" y="84"/>
      <point x="268" y="149"/>
      <point x="238" y="325" type="curve"/>
      <point x="243" y="536" type="line"/>
      <point x="143" y="536" type="line"/>
      <point x="148" y="325" type="line"/>
      <point x="120" y="186"/>
      <point x="86" y="82"/>
      <point x="60" y="0" type="curve"/>
      <point x="144" y="0" type="line"/>
      <point x="161" y="71"/>
      <point x="181" y="132"/>
      <point x="189" y="214" type="curve"/>
      <point x="191" y="214" type="line"/>
      <point x="217" y="56"/>
      <point x="285" y="-8"/>
    </contour>
  </outline>
</glyph>
<glyph name="uni2C99" format="2">
  <advance width="746"/>
  <unicode hex="2C99"/>
  <outline>
    <contour>
      <point x="371" y="-8" type="curve" smooth="yes"/>
      <point x="464" y="-8"/>
      <point x="526" y="55"/>
      <point x="566" y="214" type="curve"/>
      <point x="568" y="214" type="line"/>
      <point x="572" y="143"/>
      <point x="586" y="77"/>
      <point x="605" y="0" type="curve"/>
      <point x="690" y="0" type="line"/>
      <point x="673" y="54"/>
      <point x="639" y="168"/>
      <point x="618" y="325" type="curve"/>
      <point x="624" y="536" type="line"/>
      <point x="526" y="536" type="line"/>
      <point x="528" y="325" type="line"/>
      <point x="494" y="176"/>
      <point x="448" y="84"/>
      <point x="372" y="84" type="curve" smooth="yes"/>
      <point x="315" y="84"/>
      <point x="268" y="149"/>
      <point x="238" y="325" type="curve"/>
      <point x="243" y="536" type="line"/>
      <point x="143" y="536" type="line"/>
      <point x="148" y="325" type="line"/>
      <point x="120" y="186"/>
      <point x="86" y="82"/>
      <point x="60" y="0" type="curve"/>
      <point x="144" y="0" type="line"/>
      <point x="161" y="71"/>
      <point x="181" y="132"/>
      <point x="189" y="214" type="curve"/>
      <point x="191" y="214" type="line"/>
      <point x="217" y="56"/>
      <point x="285" y="-8"/>
    </contour>
  </outline>
</glyph>
<glyph name="Ni-coptic" format="2">
  <advance width="760"/>
  <unicode hex="2C9A"/>
  <anchor x="419" y="810" name="above"/>
  <anchor x="378" y="810" name="above.cap"/>
  <anchor x="361" y="0" name="bottom"/>
  <anchor x="415" y="810" name="top"/>
  <outline>
    <contour>
      <point x="97" y="0" type="line"/>
      <point x="187" y="0" type="line"/>
      <point x="187" y="399" type="line" smooth="yes"/>
      <point x="187" y="472"/>
      <point x="182" y="546"/>
      <point x="179" y="593" type="curve"/>
      <point x="183" y="593" type="line"/>
      <point x="550" y="0" type="line"/>
      <point x="655" y="0" type="line"/>
      <point x="655" y="714" type="line"/>
      <point x="564" y="714" type="line"/>
      <point x="564" y="311" type="line" smooth="yes"/>
      <point x="564" y="246"/>
      <point x="569" y="155"/>
      <point x="571" y="123" type="curve"/>
      <point x="567" y="123" type="line"/>
      <point x="201" y="714" type="line"/>
      <point x="97" y="714" type="line"/>
    </contour>
  </outline>
</glyph>
<glyph name="uni2C9A" format="2">
  <advance width="760"/>
  <unicode hex="2C9A"/>
  <outline>
    <contour>
      <point x="97" y="0" type="line"/>
      <point x="187" y="0" type="line"/>
      <point x="187" y="399" type="line" smooth="yes"/>
      <point x="187" y="472"/>
      <point x="182" y="546"/>
      <point x="179" y="593" type="curve"/>
      <point x="183" y="593" type="line"/>
      <point x="550" y="0" type="line"/>
      <point x="655" y="0" type="line"/>
      <point x="655" y="714" type="line"/>
      <point x="564" y="714" type="line"/>
      <point x="564" y="311" type="line" smooth="yes"/>
      <point x="564" y="246"/>
      <point x="569" y="155"/>
      <point x="571" y="123" type="curve"/>
      <point x="567" y="123" type="line"/>
      <point x="201" y="714" type="line"/>
      <point x="97" y="714" type="line"/>
    </contour>
  </outline>
</glyph>
<glyph name="ni-coptic" format="2">
  <advance width="632"/>
  <unicode hex="2C9B"/>
  <anchor x="341" y="603" name="above"/>
  <anchor x="312" y="810" name="above.cap"/>
  <anchor x="312" y="0" name="bottom"/>
  <anchor x="0" y="603" name="lsb"/>
  <anchor x="0" y="810" name="lsb.cap"/>
  <anchor x="632" y="603" name="rsb"/>
  <anchor x="632" y="810" name="rsb.cap"/>
  <anchor x="312" y="603" name="top"/>
  <outline>
    <contour>
      <point x="85" y="0" type="line"/>
      <point x="173" y="0" type="line"/>
      <point x="173" y="405" type="line"/>
      <point x="464" y="83" type="line"/>
      <point x="464" y="0" type="line"/>
      <point x="552" y="0" type="line"/>
      <point x="552" y="536" type="line"/>
      <point x="464" y="536" type="line"/>
      <point x="464" y="204" type="line"/>
      <point x="173" y="536" type="line"/>
      <point x="85" y="536" type="line"/>
    </contour>
  </outline>
</glyph>
<glyph name="uni2C9B" format="2">
  <advance width="632"/>
  <unicode hex="2C9B"/>
  <outline>
    <contour>
      <point x="85" y="0" type="line"/>
      <point x="173" y="0" type="line"/>
      <point x="173" y="405" type="line"/>
      <point x="464" y="83" type="line"/>
      <point x="464" y="0" type="line"/>
      <point x="552" y="0" type="line"/>
      <point x="552" y="536" type="line"/>
      <point x="464" y="536" type="line"/>
      <point x="464" y="204" type="line"/>
      <point x="173" y="536" type="line"/>
      <point x="85" y="536" type="line"/>
    </contour>
  </outline>
</glyph>
<glyph name="Ksi-coptic" format="2">
  <advance width="572"/>
  <unicode hex="2C9C"/>
  <anchor x="307" y="810" name="above"/>
  <anchor x="273" y="810" name="above.cap"/>
  <anchor x="273" y="0" name="bottom"/>
  <anchor x="302" y="810" name="top"/>
  <outline>
    <contour>
      <point x="229" y="437" type="line"/>
      <point x="513" y="642" type="line"/>
      <point x="513" y="714" type="line"/>
      <point x="50" y="714" type="line"/>
      <point x="50" y="634" type="line"/>
      <point x="161" y="634" type="line" smooth="yes"/>
      <point x="260" y="634"/>
      <point x="335" y="637"/>
      <point x="390" y="643" type="curve"/>
      <point x="390" y="641" type="line"/>
      <point x="98" y="429" type="line"/>
      <point x="98" y="362" type="line"/>
      <point x="206" y="362" type="line" smooth="yes"/>
      <point x="321" y="362"/>
      <point x="418" y="352"/>
      <point x="418" y="264" type="curve" smooth="yes"/>
      <point x="418" y="168"/>
      <point x="245" y="100"/>
      <point x="38" y="80" type="curve"/>
      <point x="38" y="0" type="line"/>
      <point x="382" y="0" type="line" smooth="yes"/>
      <point x="452" y="0"/>
      <point x="467" y="-29"/>
      <point x="468" y="-91" type="curve"/>
      <point x="555" y="-91" type="line"/>
      <point x="555" y="-29"/>
      <point x="546" y="10"/>
      <point x="527" y="35" type="curve" smooth="yes"/>
      <point x="496" y="77"/>
      <point x="442" y="80"/>
      <point x="390" y="80" type="curve" smooth="yes"/>
      <point x="334" y="80"/>
      <point x="275" y="74"/>
      <point x="260" y="72" type="curve"/>
      <point x="260" y="76" type="line"/>
      <point x="429" y="111"/>
      <point x="522" y="180"/>
      <point x="522" y="274" type="curve" smooth="yes"/>
      <point x="522" y="385"/>
      <point x="436" y="434"/>
      <point x="229" y="434" type="curve"/>
    </contour>
  </outline>
</glyph>
<glyph name="ksi-coptic" format="2">
  <advance width="470"/>
  <unicode hex="2C9D"/>
  <anchor x="258" y="603" name="above"/>
  <anchor x="234" y="810" name="above.cap"/>
  <anchor x="224" y="0" name="bottom"/>
  <anchor x="0" y="603" name="lsb"/>
  <anchor x="0" y="810" name="lsb.cap"/>
  <anchor x="470" y="603" name="rsb"/>
  <anchor x="470" y="810" name="rsb.cap"/>
  <anchor x="224" y="603" name="top"/>
  <outline>
    <contour>
      <point x="44" y="0" type="line"/>
      <point x="269" y="0" type="line" smooth="yes"/>
      <point x="353" y="0"/>
      <point x="372" y="-18"/>
      <point x="372" y="-91" type="curve"/>
      <point x="452" y="-91" type="line"/>
      <point x="450" y="19"/>
      <point x="441" y="62"/>
      <point x="330" y="62" type="curve" smooth="yes"/>
      <point x="312" y="62" type="line" smooth="yes"/>
      <point x="284" y="62"/>
      <point x="245" y="57"/>
      <point x="228" y="55" type="curve"/>
      <point x="228" y="59" type="line"/>
      <point x="380" y="84"/>
      <point x="425" y="144"/>
      <point x="425" y="215" type="curve" smooth="yes"/>
      <point x="425" y="282"/>
      <point x="375" y="332"/>
      <point x="197" y="332" type="curve"/>
      <point x="197" y="335" type="line"/>
      <point x="419" y="465" type="line"/>
      <point x="419" y="536" type="line"/>
      <point x="41" y="536" type="line"/>
      <point x="41" y="468" type="line"/>
      <point x="185" y="468" type="line" smooth="yes"/>
      <point x="237" y="468"/>
      <point x="295" y="470"/>
      <point x="319" y="471" type="curve"/>
      <point x="319" y="467" type="line"/>
      <point x="299" y="459"/>
      <point x="250" y="436"/>
      <point x="210" y="411" type="curve" smooth="yes"/>
      <point x="90" y="335" type="line"/>
      <point x="90" y="275" type="line"/>
      <point x="172" y="275" type="line" smooth="yes"/>
      <point x="290" y="275"/>
      <point x="338" y="250"/>
      <point x="338" y="200" type="curve" smooth="yes"/>
      <point x="338" y="153"/>
      <point x="293" y="111"/>
      <point x="154" y="81" type="curve" smooth="yes"/>
      <point x="123" y="74"/>
      <point x="79" y="69"/>
      <point x="44" y="66" type="curve"/>
    </contour>
  </outline>
</glyph>
<glyph name="O-coptic" format="2">
  <advance width="781"/>
  <unicode hex="2C9E"/>
  <anchor x="419" y="810" name="above"/>
  <anchor x="390" y="810" name="above.cap"/>
  <anchor x="400" y="0" name="bottom"/>
  <anchor x="415" y="810" name="top"/>
  <outline>
    <contour>
      <point x="391" y="-10" type="curve" smooth="yes"/>
      <point x="606" y="-10"/>
      <point x="720" y="137"/>
      <point x="720" y="358" type="curve" smooth="yes"/>
      <point x="720" y="580"/>
      <point x="606" y="725"/>
      <point x="392" y="725" type="curve" smooth="yes"/>
      <point x="168" y="725"/>
      <point x="61" y="578"/>
      <point x="61" y="359" type="curve" smooth="yes"/>
      <point x="61" y="138"/>
      <point x="168" y="-10"/>
    </contour>
    <contour>
      <point x="391" y="68" type="curve" smooth="yes"/>
      <point x="230" y="68"/>
      <point x="156" y="178"/>
      <point x="156" y="358" type="curve" smooth="yes"/>
      <point x="156" y="538"/>
      <point x="230" y="646"/>
      <point x="392" y="646" type="curve" smooth="yes"/>
      <point x="553" y="646"/>
      <point x="625" y="538"/>
      <point x="625" y="358" type="curve" smooth="yes"/>
      <point x="625" y="178"/>
      <point x="553" y="68"/>
    </contour>
  </outline>
</glyph>
<glyph name="o-coptic" format="2">
  <advance width="605"/>
  <unicode hex="2C9F"/>
  <anchor x="307" y="603" name="above"/>
  <anchor x="302" y="810" name="above.cap"/>
  <anchor x="317" y="0" name="bottom"/>
  <anchor x="0" y="603" name="lsb"/>
  <anchor x="0" y="810" name="lsb.cap"/>
  <anchor x="605" y="603" name="rsb"/>
  <anchor x="605" y="810" name="rsb.cap"/>
  <anchor x="292" y="603" name="top"/>
  <outline>
    <contour>
      <point x="301" y="-10" type="curve" smooth="yes"/>
      <point x="454" y="-10"/>
      <point x="551" y="91"/>
      <point x="551" y="269" type="curve" smooth="yes"/>
      <point x="551" y="446"/>
      <point x="449" y="546"/>
      <point x="304" y="546" type="curve" smooth="yes"/>
      <point x="150" y="546"/>
      <point x="55" y="446"/>
      <point x="55" y="269" type="curve" smooth="yes"/>
      <point x="55" y="91"/>
      <point x="159" y="-10"/>
    </contour>
    <contour>
      <point x="303" y="63" type="curve" smooth="yes"/>
      <point x="194" y="63"/>
      <point x="146" y="142"/>
      <point x="146" y="269" type="curve" smooth="yes"/>
      <point x="146" y="396"/>
      <point x="193" y="472"/>
      <point x="302" y="472" type="curve" smooth="yes"/>
      <point x="411" y="472"/>
      <point x="460" y="396"/>
      <point x="460" y="269" type="curve" smooth="yes"/>
      <point x="460" y="142"/>
      <point x="411" y="63"/>
    </contour>
  </outline>
</glyph>
<glyph name="Pi-coptic" format="2">
  <advance width="731"/>
  <unicode hex="2CA0"/>
  <anchor x="371" y="810" name="above"/>
  <anchor x="366" y="810" name="above.cap"/>
  <anchor x="371" y="0" name="bottom"/>
  <anchor x="361" y="810" name="top"/>
  <outline>
    <contour>
      <point x="97" y="0" type="line"/>
      <point x="187" y="0" type="line"/>
      <point x="187" y="635" type="line"/>
      <point x="544" y="635" type="line"/>
      <point x="544" y="0" type="line"/>
      <point x="633" y="0" type="line"/>
      <point x="633" y="714" type="line"/>
      <point x="97" y="714" type="line"/>
    </contour>
  </outline>
</glyph>
<glyph name="pi-coptic" format="2">
  <advance width="624"/>
  <unicode hex="2CA1"/>
  <anchor x="307" y="603" name="above"/>
  <anchor x="310" y="810" name="above.cap"/>
  <anchor x="307" y="0" name="bottom"/>
  <anchor x="0" y="603" name="lsb"/>
  <anchor x="0" y="810" name="lsb.cap"/>
  <anchor x="624" y="603" name="rsb"/>
  <anchor x="624" y="810" name="rsb.cap"/>
  <anchor x="302" y="603" name="top"/>
  <outline>
    <contour>
      <point x="85" y="0" type="line"/>
      <point x="173" y="0" type="line"/>
      <point x="173" y="461" type="line"/>
      <point x="450" y="461" type="line"/>
      <point x="450" y="0" type="line"/>
      <point x="538" y="0" type="line"/>
      <point x="538" y="536" type="line"/>
      <point x="85" y="536" type="line"/>
    </contour>
  </outline>
</glyph>
<glyph name="Ro-coptic" format="2">
  <advance width="605"/>
  <unicode hex="2CA2"/>
  <anchor x="307" y="810" name="above"/>
  <anchor x="302" y="810" name="above.cap"/>
  <anchor x="273" y="0" name="bottom"/>
  <anchor x="302" y="810" name="top"/>
  <outline>
    <contour>
      <point x="97" y="0" type="line"/>
      <point x="187" y="0" type="line"/>
      <point x="187" y="278" type="line"/>
      <point x="269" y="278" type="line" smooth="yes"/>
      <point x="483" y="278"/>
      <point x="554" y="386"/>
      <point x="554" y="504" type="curve" smooth="yes"/>
      <point x="554" y="637"/>
      <point x="473" y="714"/>
      <point x="286" y="714" type="curve" smooth="yes"/>
      <point x="97" y="714" type="line"/>
    </contour>
    <contour>
      <point x="187" y="355" type="line"/>
      <point x="187" y="637" type="line"/>
      <point x="278" y="637" type="line" smooth="yes"/>
      <point x="404" y="637"/>
      <point x="461" y="592"/>
      <point x="461" y="500" type="curve" smooth="yes"/>
      <point x="461" y="395"/>
      <point x="395" y="355"/>
      <point x="259" y="355" type="curve" smooth="yes"/>
    </contour>
  </outline>
</glyph>
<glyph name="ro-coptic" format="2">
  <advance width="530"/>
  <unicode hex="2CA3"/>
  <anchor x="307" y="603" name="above"/>
  <anchor x="283" y="810" name="above.cap"/>
  <anchor x="294" y="0" name="bottom"/>
  <anchor x="0" y="603" name="lsb"/>
  <anchor x="0" y="810" name="lsb.cap"/>
  <anchor x="530" y="603" name="rsb"/>
  <anchor x="530" y="810" name="rsb.cap"/>
  <anchor x="253" y="603" name="top"/>
  <outline>
    <contour>
      <point x="86" y="-240" type="line"/>
      <point x="175" y="-240" type="line"/>
      <point x="175" y="123" type="line"/>
      <point x="252" y="123" type="line" smooth="yes"/>
      <point x="410" y="123"/>
      <point x="490" y="211"/>
      <point x="490" y="335" type="curve" smooth="yes"/>
      <point x="490" y="444"/>
      <point x="426" y="536"/>
      <point x="268" y="536" type="curve" smooth="yes"/>
      <point x="86" y="536" type="line"/>
    </contour>
    <contour>
      <point x="175" y="194" type="line"/>
      <point x="175" y="465" type="line"/>
      <point x="255" y="465" type="line" smooth="yes"/>
      <point x="353" y="465"/>
      <point x="399" y="412"/>
      <point x="399" y="332" type="curve" smooth="yes"/>
      <point x="399" y="241"/>
      <point x="345" y="194"/>
      <point x="247" y="194" type="curve" smooth="yes"/>
    </contour>
  </outline>
</glyph>
<glyph name="Sima-coptic" format="2">
  <advance width="632"/>
  <unicode hex="2CA4"/>
  <anchor x="371" y="810" name="above"/>
  <anchor x="317" y="810" name="above.cap"/>
  <anchor x="390" y="0" name="bottom"/>
  <anchor x="361" y="810" name="top"/>
  <outline>
    <contour>
      <point x="389" y="-10" type="curve" smooth="yes"/>
      <point x="468" y="-10"/>
      <point x="520" y="-1"/>
      <point x="573" y="19" type="curve"/>
      <point x="573" y="97" type="line"/>
      <point x="519" y="81"/>
      <point x="464" y="69"/>
      <point x="402" y="69" type="curve" smooth="yes"/>
      <point x="238" y="69"/>
      <point x="156" y="180"/>
      <point x="156" y="357" type="curve" smooth="yes"/>
      <point x="156" y="536"/>
      <point x="250" y="645"/>
      <point x="403" y="645" type="curve" smooth="yes"/>
      <point x="467" y="645"/>
      <point x="521" y="626"/>
      <point x="565" y="606" type="curve"/>
      <point x="601" y="682" type="line"/>
      <point x="547" y="709"/>
      <point x="477" y="724"/>
      <point x="404" y="724" type="curve" smooth="yes"/>
      <point x="183" y="724"/>
      <point x="61" y="574"/>
      <point x="61" y="358" type="curve" smooth="yes"/>
      <point x="61" y="133"/>
      <point x="170" y="-10"/>
    </contour>
  </outline>
</glyph>
<glyph name="sima-coptic" format="2">
  <advance width="480"/>
  <unicode hex="2CA5"/>
  <anchor x="307" y="603" name="above"/>
  <anchor x="234" y="810" name="above.cap"/>
  <anchor x="307" y="0" name="bottom"/>
  <anchor x="0" y="603" name="lsb"/>
  <anchor x="0" y="810" name="lsb.cap"/>
  <anchor x="480" y="603" name="rsb"/>
  <anchor x="480" y="810" name="rsb.cap"/>
  <anchor x="273" y="603" name="top"/>
  <outline>
    <contour>
      <point x="300" y="-10" type="curve" smooth="yes"/>
      <point x="361" y="-10"/>
      <point x="402" y="0"/>
      <point x="438" y="19" type="curve"/>
      <point x="438" y="97" type="line"/>
      <point x="401" y="80"/>
      <point x="357" y="66"/>
      <point x="299" y="66" type="curve" smooth="yes"/>
      <point x="198" y="66"/>
      <point x="146" y="137"/>
      <point x="146" y="266" type="curve" smooth="yes"/>
      <point x="146" y="400"/>
      <point x="197" y="469"/>
      <point x="304" y="469" type="curve" smooth="yes"/>
      <point x="341" y="469"/>
      <point x="388" y="456"/>
      <point x="420" y="444" type="curve"/>
      <point x="447" y="517" type="line"/>
      <point x="415" y="533"/>
      <point x="360" y="546"/>
      <point x="306" y="546" type="curve" smooth="yes"/>
      <point x="162" y="546"/>
      <point x="55" y="463"/>
      <point x="55" y="265" type="curve" smooth="yes"/>
      <point x="55" y="75"/>
      <point x="157" y="-10"/>
    </contour>
  </outline>
</glyph>
<glyph name="Tau-coptic" format="2">
  <advance width="610"/>
  <unicode hex="2CA6"/>
  <anchor x="307" y="810" name="above"/>
  <anchor x="305" y="810" name="above.cap"/>
  <anchor x="302" y="0" name="bottom"/>
  <anchor x="302" y="810" name="top"/>
  <outline>
    <contour>
      <point x="260" y="0" type="line"/>
      <point x="350" y="0" type="line"/>
      <point x="350" y="635" type="line"/>
      <point x="452" y="635" type="line" smooth="yes"/>
      <point x="496" y="635"/>
      <point x="513" y="609"/>
      <point x="513" y="571" type="curve"/>
      <point x="599" y="571" type="line"/>
      <point x="599" y="638"/>
      <point x="576" y="714"/>
      <point x="457" y="714" type="curve" smooth="yes"/>
      <point x="153" y="714" type="line" smooth="yes"/>
      <point x="34" y="714"/>
      <point x="11" y="638"/>
      <point x="11" y="571" type="curve"/>
      <point x="97" y="571" type="line"/>
      <point x="97" y="609"/>
      <point x="114" y="635"/>
      <point x="158" y="635" type="curve" smooth="yes"/>
      <point x="260" y="635" type="line"/>
    </contour>
  </outline>
</glyph>
<glyph name="uni2CA6" format="2">
  <advance width="610"/>
  <unicode hex="2CA6"/>
  <outline>
    <contour>
      <point x="260" y="0" type="line"/>
      <point x="350" y="0" type="line"/>
      <point x="350" y="635" type="line"/>
      <point x="452" y="635" type="line" smooth="yes"/>
      <point x="496" y="635"/>
      <point x="513" y="609"/>
      <point x="513" y="571" type="curve"/>
      <point x="599" y="571" type="line"/>
      <point x="599" y="638"/>
      <point x="576" y="714"/>
      <point x="457" y="714" type="curve" smooth="yes"/>
      <point x="153" y="714" type="line" smooth="yes"/>
      <point x="34" y="714"/>
      <point x="11" y="638"/>
      <point x="11" y="571" type="curve"/>
      <point x="97" y="571" type="line"/>
      <point x="97" y="609"/>
      <point x="114" y="635"/>
      <point x="158" y="635" type="curve" smooth="yes"/>
      <point x="260" y="635" type="line"/>
    </contour>
  </outline>
</glyph>
<glyph name="tau-coptic" format="2">
  <advance width="567"/>
  <unicode hex="2CA7"/>
  <anchor x="307" y="603" name="above"/>
  <anchor x="283" y="810" name="above.cap"/>
  <anchor x="283" y="0" name="bottom"/>
  <anchor x="0" y="603" name="lsb"/>
  <anchor x="0" y="810" name="lsb.cap"/>
  <anchor x="567" y="603" name="rsb"/>
  <anchor x="567" y="810" name="rsb.cap"/>
  <anchor x="273" y="603" name="top"/>
  <outline>
    <contour>
      <point x="239" y="0" type="line"/>
      <point x="328" y="0" type="line"/>
      <point x="328" y="462" type="line"/>
      <point x="425" y="462" type="line" smooth="yes"/>
      <point x="456" y="462"/>
      <point x="472" y="445"/>
      <point x="472" y="415" type="curve"/>
      <point x="551" y="415" type="line"/>
      <point x="551" y="465"/>
      <point x="534" y="536"/>
      <point x="432" y="536" type="curve" smooth="yes"/>
      <point x="135" y="536" type="line" smooth="yes"/>
      <point x="33" y="536"/>
      <point x="16" y="465"/>
      <point x="16" y="415" type="curve"/>
      <point x="95" y="415" type="line"/>
      <point x="95" y="445"/>
      <point x="111" y="462"/>
      <point x="142" y="462" type="curve" smooth="yes"/>
      <point x="239" y="462" type="line"/>
    </contour>
  </outline>
</glyph>
<glyph name="Ua-coptic" format="2">
  <advance width="566"/>
  <unicode hex="2CA8"/>
  <anchor x="307" y="810" name="above"/>
  <anchor x="284" y="810" name="above.cap"/>
  <anchor x="283" y="0" name="bottom"/>
  <anchor x="302" y="810" name="top"/>
  <outline>
    <contour>
      <point x="238" y="0" type="line"/>
      <point x="328" y="0" type="line"/>
      <point x="328" y="277" type="line"/>
      <point x="566" y="714" type="line"/>
      <point x="469" y="714" type="line"/>
      <point x="283" y="363" type="line"/>
      <point x="98" y="714" type="line"/>
      <point x="0" y="714" type="line"/>
      <point x="238" y="273" type="line"/>
    </contour>
  </outline>
</glyph>
<glyph name="uni2CA8" format="2">
  <advance width="566"/>
  <unicode hex="2CA8"/>
  <outline>
    <contour>
      <point x="238" y="0" type="line"/>
      <point x="328" y="0" type="line"/>
      <point x="328" y="277" type="line"/>
      <point x="566" y="714" type="line"/>
      <point x="469" y="714" type="line"/>
      <point x="283" y="363" type="line"/>
      <point x="98" y="714" type="line"/>
      <point x="0" y="714" type="line"/>
      <point x="238" y="273" type="line"/>
    </contour>
  </outline>
</glyph>
<glyph name="ua-coptic" format="2">
  <advance width="508"/>
  <unicode hex="2CA9"/>
  <anchor x="307" y="603" name="above"/>
  <anchor x="253" y="810" name="above.cap"/>
  <anchor x="253" y="-235" name="bottom"/>
  <anchor x="0" y="603" name="lsb"/>
  <anchor x="0" y="810" name="lsb.cap"/>
  <anchor x="508" y="603" name="rsb"/>
  <anchor x="508" y="810" name="rsb.cap"/>
  <anchor x="244" y="603" name="top"/>
  <outline>
    <contour>
      <point x="210" y="-240" type="line"/>
      <point x="298" y="-240" type="line"/>
      <point x="298" y="134" type="line"/>
      <point x="550" y="536" type="line"/>
      <point x="444" y="536" type="line"/>
      <point x="254" y="220" type="line"/>
      <point x="64" y="536" type="line"/>
      <point x="-42" y="536" type="line"/>
      <point x="210" y="134" type="line"/>
    </contour>
  </outline>
</glyph>
<glyph name="uni2CA9" format="2">
  <advance width="508"/>
  <unicode hex="2CA9"/>
  <outline>
    <contour>
      <point x="210" y="-240" type="line"/>
      <point x="298" y="-240" type="line"/>
      <point x="298" y="134" type="line"/>
      <point x="550" y="536" type="line"/>
      <point x="444" y="536" type="line"/>
      <point x="254" y="220" type="line"/>
      <point x="64" y="536" type="line"/>
      <point x="-42" y="536" type="line"/>
      <point x="210" y="134" type="line"/>
    </contour>
  </outline>
</glyph>
<glyph name="Fi-coptic" format="2">
  <advance width="804"/>
  <unicode hex="2CAA"/>
  <anchor x="419" y="810" name="above"/>
  <anchor x="402" y="810" name="above.cap"/>
  <anchor x="400" y="0" name="bottom"/>
  <anchor x="415" y="810" name="top"/>
  <outline>
    <contour>
      <point x="357" y="-10" type="line"/>
      <point x="446" y="-10" type="line"/>
      <point x="446" y="100" type="line"/>
      <point x="465" y="100" type="line" smooth="yes"/>
      <point x="679" y="100"/>
      <point x="752" y="245"/>
      <point x="752" y="370" type="curve" smooth="yes"/>
      <point x="752" y="507"/>
      <point x="670" y="636"/>
      <point x="479" y="636" type="curve" smooth="yes"/>
      <point x="446" y="636" type="line"/>
      <point x="446" y="724" type="line"/>
      <point x="357" y="724" type="line"/>
      <point x="357" y="636" type="line"/>
      <point x="325" y="636" type="line" smooth="yes"/>
      <point x="135" y="636"/>
      <point x="51" y="503"/>
      <point x="51" y="370" type="curve" smooth="yes"/>
      <point x="51" y="249"/>
      <point x="122" y="100"/>
      <point x="336" y="100" type="curve" smooth="yes"/>
      <point x="357" y="100" type="line"/>
    </contour>
    <contour>
      <point x="346" y="174" type="line" smooth="yes"/>
      <point x="209" y="174"/>
      <point x="142" y="255"/>
      <point x="142" y="371" type="curve" smooth="yes"/>
      <point x="142" y="476"/>
      <point x="202" y="560"/>
      <point x="330" y="560" type="curve" smooth="yes"/>
      <point x="357" y="560" type="line"/>
      <point x="357" y="174" type="line"/>
    </contour>
    <contour>
      <point x="446" y="174" type="line"/>
      <point x="446" y="560" type="line"/>
      <point x="473" y="560" type="line" smooth="yes"/>
      <point x="601" y="560"/>
      <point x="661" y="478"/>
      <point x="661" y="371" type="curve" smooth="yes"/>
      <point x="661" y="256"/>
      <point x="594" y="174"/>
      <point x="458" y="174" type="curve" smooth="yes"/>
    </contour>
  </outline>
</glyph>
<glyph name="fi-coptic" format="2">
  <advance width="725"/>
  <unicode hex="2CAB"/>
  <anchor x="371" y="810" name="above"/>
  <anchor x="371" y="810" name="above.cap"/>
  <anchor x="361" y="-196" name="bottom"/>
  <anchor x="0" y="603" name="lsb"/>
  <anchor x="0" y="810" name="lsb.cap"/>
  <anchor x="725" y="603" name="rsb"/>
  <anchor x="725" y="810" name="rsb.cap"/>
  <anchor x="361" y="810" name="top"/>
  <outline>
    <contour>
      <point x="319" y="-240" type="line"/>
      <point x="405" y="-240" type="line"/>
      <point x="405" y="-8" type="line"/>
      <point x="570" y="6"/>
      <point x="670" y="106"/>
      <point x="670" y="268" type="curve" smooth="yes"/>
      <point x="670" y="430"/>
      <point x="564" y="529"/>
      <point x="405" y="544" type="curve"/>
      <point x="405" y="760" type="line"/>
      <point x="322" y="760" type="line"/>
      <point x="322" y="544" type="line"/>
      <point x="153" y="531"/>
      <point x="54" y="431"/>
      <point x="54" y="268" type="curve" smooth="yes"/>
      <point x="54" y="105"/>
      <point x="160" y="5"/>
      <point x="319" y="-8" type="curve"/>
    </contour>
    <contour>
      <point x="322" y="64" type="line"/>
      <point x="200" y="76"/>
      <point x="146" y="147"/>
      <point x="146" y="268" type="curve" smooth="yes"/>
      <point x="146" y="389"/>
      <point x="199" y="459"/>
      <point x="322" y="471" type="curve"/>
    </contour>
    <contour>
      <point x="405" y="64" type="curve"/>
      <point x="405" y="470" type="line"/>
      <point x="523" y="457"/>
      <point x="579" y="388"/>
      <point x="579" y="268" type="curve" smooth="yes"/>
      <point x="579" y="148"/>
      <point x="525" y="77"/>
    </contour>
  </outline>
</glyph>
<glyph name="Khi-coptic" format="2">
  <advance width="586"/>
  <unicode hex="2CAC"/>
  <anchor x="307" y="810" name="above"/>
  <anchor x="292" y="810" name="above.cap"/>
  <anchor x="273" y="0" name="bottom"/>
  <anchor x="302" y="810" name="top"/>
  <outline>
    <contour>
      <point x="4" y="0" type="line"/>
      <point x="99" y="0" type="line"/>
      <point x="291" y="310" type="line"/>
      <point x="480" y="0" type="line"/>
      <point x="582" y="0" type="line"/>
      <point x="344" y="374" type="line"/>
      <point x="565" y="714" type="line"/>
      <point x="470" y="714" type="line"/>
      <point x="294" y="434" type="line"/>
      <point x="119" y="714" type="line"/>
      <point x="19" y="714" type="line"/>
      <point x="241" y="372" type="line"/>
    </contour>
  </outline>
</glyph>
<glyph name="uni2CAC" format="2">
  <advance width="586"/>
  <unicode hex="2CAC"/>
  <outline>
    <contour>
      <point x="4" y="0" type="line"/>
      <point x="99" y="0" type="line"/>
      <point x="291" y="310" type="line"/>
      <point x="480" y="0" type="line"/>
      <point x="582" y="0" type="line"/>
      <point x="344" y="374" type="line"/>
      <point x="565" y="714" type="line"/>
      <point x="470" y="714" type="line"/>
      <point x="294" y="434" type="line"/>
      <point x="119" y="714" type="line"/>
      <point x="19" y="714" type="line"/>
      <point x="241" y="372" type="line"/>
    </contour>
  </outline>
</glyph>
<glyph name="khi-coptic" format="2">
  <advance width="529"/>
  <unicode hex="2CAD"/>
  <anchor x="307" y="603" name="above"/>
  <anchor x="283" y="810" name="above.cap"/>
  <anchor x="273" y="0" name="bottom"/>
  <anchor x="0" y="603" name="lsb"/>
  <anchor x="0" y="810" name="lsb.cap"/>
  <anchor x="529" y="603" name="rsb"/>
  <anchor x="529" y="810" name="rsb.cap"/>
  <anchor x="263" y="603" name="top"/>
  <outline>
    <contour>
      <point x="18" y="0" type="line"/>
      <point x="117" y="0" type="line"/>
      <point x="265" y="214" type="line"/>
      <point x="411" y="0" type="line"/>
      <point x="511" y="0" type="line"/>
      <point x="316" y="274" type="line"/>
      <point x="501" y="536" type="line"/>
      <point x="402" y="536" type="line"/>
      <point x="265" y="334" type="line"/>
      <point x="127" y="536" type="line"/>
      <point x="27" y="536" type="line"/>
      <point x="212" y="274" type="line"/>
    </contour>
  </outline>
</glyph>
<glyph name="Psi-coptic" format="2">
  <advance width="834"/>
  <unicode hex="2CAE"/>
  <anchor x="419" y="810" name="above"/>
  <anchor x="415" y="810" name="above.cap"/>
  <anchor x="415" y="0" name="bottom"/>
  <anchor x="415" y="810" name="top"/>
  <outline>
    <contour>
      <point x="372" y="0" type="line"/>
      <point x="460" y="0" type="line"/>
      <point x="460" y="227" type="line"/>
      <point x="682" y="241"/>
      <point x="786" y="398"/>
      <point x="786" y="559" type="curve" smooth="yes"/>
      <point x="786" y="624" type="line"/>
      <point x="694" y="624" type="line"/>
      <point x="694" y="568" type="line" smooth="yes"/>
      <point x="694" y="406"/>
      <point x="605" y="316"/>
      <point x="460" y="304" type="curve"/>
      <point x="460" y="714" type="line"/>
      <point x="372" y="714" type="line"/>
      <point x="372" y="304" type="line"/>
      <point x="235" y="309"/>
      <point x="138" y="401"/>
      <point x="138" y="570" type="curve" smooth="yes"/>
      <point x="138" y="624" type="line"/>
      <point x="48" y="624" type="line"/>
      <point x="48" y="560" type="line" smooth="yes"/>
      <point x="48" y="379"/>
      <point x="155" y="239"/>
      <point x="372" y="227" type="curve"/>
    </contour>
  </outline>
</glyph>
<glyph name="psi-coptic" format="2">
  <advance width="700"/>
  <unicode hex="2CAF"/>
  <anchor x="351" y="603" name="above"/>
  <anchor x="356" y="810" name="above.cap"/>
  <anchor x="346" y="-186" name="bottom"/>
  <anchor x="0" y="603" name="lsb"/>
  <anchor x="0" y="810" name="lsb.cap"/>
  <anchor x="700" y="603" name="rsb"/>
  <anchor x="700" y="810" name="rsb.cap"/>
  <anchor x="346" y="603" name="top"/>
  <outline>
    <contour>
      <point x="306" y="-240" type="line"/>
      <point x="391" y="-240" type="line"/>
      <point x="391" y="109" type="line"/>
      <point x="587" y="121"/>
      <point x="661" y="268"/>
      <point x="661" y="405" type="curve" smooth="yes"/>
      <point x="661" y="461" type="line"/>
      <point x="573" y="461" type="line"/>
      <point x="573" y="413" type="line" smooth="yes"/>
      <point x="573" y="275"/>
      <point x="519" y="197"/>
      <point x="391" y="187" type="curve"/>
      <point x="391" y="536" type="line"/>
      <point x="306" y="536" type="line"/>
      <point x="306" y="187" type="line"/>
      <point x="185" y="191"/>
      <point x="126" y="271"/>
      <point x="126" y="415" type="curve" smooth="yes"/>
      <point x="126" y="461" type="line"/>
      <point x="39" y="461" type="line"/>
      <point x="39" y="406" type="line" smooth="yes"/>
      <point x="39" y="252"/>
      <point x="115" y="120"/>
      <point x="306" y="109" type="curve"/>
    </contour>
  </outline>
</glyph>
<glyph name="Oou-coptic" format="2">
  <advance width="1032"/>
  <unicode hex="2CB0"/>
  <anchor x="532" y="810" name="above"/>
  <anchor x="515" y="810" name="above.cap"/>
  <anchor x="512" y="0" name="bottom"/>
  <anchor x="532" y="810" name="top"/>
  <outline>
    <contour>
      <point x="326" y="-10" type="curve" smooth="yes"/>
      <point x="412" y="-10"/>
      <point x="479" y="37"/>
      <point x="513" y="141" type="curve"/>
      <point x="516" y="141" type="line"/>
      <point x="543" y="38"/>
      <point x="618" y="-10"/>
      <point x="703" y="-10" type="curve" smooth="yes"/>
      <point x="861" y="-10"/>
      <point x="971" y="121"/>
      <point x="971" y="347" type="curve" smooth="yes"/>
      <point x="971" y="502"/>
      <point x="913" y="646"/>
      <point x="771" y="731" type="curve"/>
      <point x="705" y="674" type="line"/>
      <point x="822" y="607"/>
      <point x="876" y="488"/>
      <point x="876" y="341" type="curve" smooth="yes"/>
      <point x="876" y="159"/>
      <point x="791" y="72"/>
      <point x="702" y="72" type="curve" smooth="yes"/>
      <point x="605" y="72"/>
      <point x="560" y="143"/>
      <point x="560" y="319" type="curve" smooth="yes"/>
      <point x="560" y="694" type="line"/>
      <point x="470" y="694" type="line"/>
      <point x="470" y="319" type="line" smooth="yes"/>
      <point x="470" y="126"/>
      <point x="417" y="72"/>
      <point x="329" y="72" type="curve" smooth="yes"/>
      <point x="231" y="72"/>
      <point x="155" y="168"/>
      <point x="155" y="341" type="curve" smooth="yes"/>
      <point x="155" y="495"/>
      <point x="204" y="599"/>
      <point x="322" y="669" type="curve"/>
      <point x="271" y="729" type="line"/>
      <point x="128" y="649"/>
      <point x="61" y="520"/>
      <point x="61" y="341" type="curve" smooth="yes"/>
      <point x="61" y="116"/>
      <point x="172" y="-10"/>
    </contour>
  </outline>
</glyph>
<glyph name="oou-coptic" format="2">
  <advance width="816"/>
  <unicode hex="2CB1"/>
  <anchor x="419" y="603" name="above"/>
  <anchor x="407" y="810" name="above.cap"/>
  <anchor x="405" y="0" name="bottom"/>
  <anchor x="0" y="603" name="lsb"/>
  <anchor x="0" y="810" name="lsb.cap"/>
  <anchor x="816" y="603" name="rsb"/>
  <anchor x="816" y="810" name="rsb.cap"/>
  <anchor x="400" y="603" name="top"/>
  <outline>
    <contour>
      <point x="249" y="-10" type="curve" smooth="yes"/>
      <point x="338" y="-10"/>
      <point x="381" y="32"/>
      <point x="404" y="102" type="curve"/>
      <point x="407" y="102" type="line"/>
      <point x="427" y="28"/>
      <point x="478" y="-10"/>
      <point x="552" y="-10" type="curve" smooth="yes"/>
      <point x="669" y="-10"/>
      <point x="761" y="102"/>
      <point x="761" y="260" type="curve" smooth="yes"/>
      <point x="761" y="402"/>
      <point x="690" y="508"/>
      <point x="627" y="560" type="curve"/>
      <point x="562" y="511" type="line"/>
      <point x="622" y="458"/>
      <point x="673" y="381"/>
      <point x="673" y="260" type="curve" smooth="yes"/>
      <point x="673" y="134"/>
      <point x="612" y="68"/>
      <point x="551" y="68" type="curve" smooth="yes"/>
      <point x="479" y="68"/>
      <point x="450" y="143"/>
      <point x="450" y="224" type="curve" smooth="yes"/>
      <point x="450" y="507" type="line"/>
      <point x="366" y="507" type="line"/>
      <point x="366" y="224" type="line" smooth="yes"/>
      <point x="366" y="150"/>
      <point x="343" y="68"/>
      <point x="257" y="68" type="curve" smooth="yes"/>
      <point x="194" y="68"/>
      <point x="143" y="129"/>
      <point x="143" y="257" type="curve" smooth="yes"/>
      <point x="143" y="386"/>
      <point x="188" y="457"/>
      <point x="257" y="511" type="curve"/>
      <point x="194" y="560" type="line"/>
      <point x="116" y="502"/>
      <point x="55" y="409"/>
      <point x="55" y="257" type="curve" smooth="yes"/>
      <point x="55" y="83"/>
      <point x="148" y="-10"/>
    </contour>
  </outline>
</glyph>
<glyph name="AlefDialectP-coptic" format="2">
  <advance width="647"/>
  <unicode hex="2CB2"/>
  <anchor x="341" y="810" name="above"/>
  <anchor x="322" y="810" name="above.cap"/>
  <anchor x="307" y="0" name="bottom"/>
  <anchor x="292" y="810" name="top"/>
  <outline>
    <contour>
      <point x="10" y="204" type="line"/>
      <point x="637" y="204" type="line"/>
      <point x="637" y="291" type="line"/>
      <point x="356" y="291" type="line"/>
      <point x="356" y="600" type="line"/>
      <point x="269" y="600" type="line"/>
      <point x="269" y="291" type="line"/>
      <point x="10" y="291" type="line"/>
    </contour>
  </outline>
</glyph>
<glyph name="uni2CB2" format="2">
  <advance width="647"/>
  <unicode hex="2CB2"/>
  <outline>
    <contour>
      <point x="10" y="204" type="line"/>
      <point x="637" y="204" type="line"/>
      <point x="637" y="291" type="line"/>
      <point x="356" y="291" type="line"/>
      <point x="356" y="600" type="line"/>
      <point x="269" y="600" type="line"/>
      <point x="269" y="291" type="line"/>
      <point x="10" y="291" type="line"/>
    </contour>
  </outline>
</glyph>
<glyph name="alefDialectP-coptic" format="2">
  <advance width="506"/>
  <unicode hex="2CB3"/>
  <anchor x="307" y="603" name="above"/>
  <anchor x="263" y="810" name="above.cap"/>
  <anchor x="249" y="0" name="bottom"/>
  <anchor x="0" y="603" name="lsb"/>
  <anchor x="0" y="810" name="lsb.cap"/>
  <anchor x="506" y="603" name="rsb"/>
  <anchor x="506" y="810" name="rsb.cap"/>
  <anchor x="244" y="603" name="top"/>
  <outline>
    <contour>
      <point x="10" y="130" type="line"/>
      <point x="496" y="130" type="line"/>
      <point x="496" y="215" type="line"/>
      <point x="293" y="215" type="line"/>
      <point x="293" y="479" type="line"/>
      <point x="209" y="479" type="line"/>
      <point x="209" y="215" type="line"/>
      <point x="10" y="215" type="line"/>
    </contour>
  </outline>
</glyph>
<glyph name="uni2CB3" format="2">
  <advance width="506"/>
  <unicode hex="2CB3"/>
  <outline>
    <contour>
      <point x="10" y="130" type="line"/>
      <point x="496" y="130" type="line"/>
      <point x="496" y="215" type="line"/>
      <point x="293" y="215" type="line"/>
      <point x="293" y="479" type="line"/>
      <point x="209" y="479" type="line"/>
      <point x="209" y="215" type="line"/>
      <point x="10" y="215" type="line"/>
    </contour>
  </outline>
</glyph>
<glyph name="AinOld-coptic" format="2">
  <advance width="554"/>
  <unicode hex="2CB4"/>
  <anchor x="307" y="810" name="above"/>
  <anchor x="275" y="810" name="above.cap"/>
  <anchor x="307" y="0" name="bottom"/>
  <anchor x="302" y="810" name="top"/>
  <outline>
    <contour>
      <point x="376" y="0" type="line"/>
      <point x="499" y="0" type="line"/>
      <point x="122" y="373" type="line"/>
      <point x="488" y="714" type="line"/>
      <point x="366" y="714" type="line"/>
      <point x="33" y="405" type="line"/>
      <point x="33" y="334" type="line"/>
    </contour>
    <contour>
      <point x="449" y="312" type="curve" smooth="yes"/>
      <point x="483" y="312"/>
      <point x="514" y="332"/>
      <point x="514" y="376" type="curve" smooth="yes"/>
      <point x="514" y="421"/>
      <point x="483" y="441"/>
      <point x="449" y="441" type="curve" smooth="yes"/>
      <point x="412" y="441"/>
      <point x="383" y="421"/>
      <point x="383" y="376" type="curve" smooth="yes"/>
      <point x="383" y="332"/>
      <point x="412" y="312"/>
    </contour>
  </outline>
</glyph>
<glyph name="uni2CB4" format="2">
  <advance width="554"/>
  <unicode hex="2CB4"/>
  <outline>
    <contour>
      <point x="376" y="0" type="line"/>
      <point x="499" y="0" type="line"/>
      <point x="122" y="373" type="line"/>
      <point x="488" y="714" type="line"/>
      <point x="366" y="714" type="line"/>
      <point x="33" y="405" type="line"/>
      <point x="33" y="334" type="line"/>
    </contour>
    <contour>
      <point x="449" y="312" type="curve" smooth="yes"/>
      <point x="483" y="312"/>
      <point x="514" y="332"/>
      <point x="514" y="376" type="curve" smooth="yes"/>
      <point x="514" y="421"/>
      <point x="483" y="441"/>
      <point x="449" y="441" type="curve" smooth="yes"/>
      <point x="412" y="441"/>
      <point x="383" y="421"/>
      <point x="383" y="376" type="curve" smooth="yes"/>
      <point x="383" y="332"/>
      <point x="412" y="312"/>
    </contour>
  </outline>
</glyph>
<glyph name="ainOld-coptic" format="2">
  <advance width="572"/>
  <unicode hex="2CB5"/>
  <anchor x="307" y="603" name="above"/>
  <anchor x="273" y="810" name="above.cap"/>
  <anchor x="249" y="0" name="bottom"/>
  <anchor x="0" y="603" name="lsb"/>
  <anchor x="0" y="810" name="lsb.cap"/>
  <anchor x="572" y="603" name="rsb"/>
  <anchor x="572" y="810" name="rsb.cap"/>
  <anchor x="244" y="603" name="top"/>
  <outline>
    <contour>
      <point x="336" y="0" type="line"/>
      <point x="461" y="0" type="line"/>
      <point x="157" y="289" type="line"/>
      <point x="453" y="536" type="line"/>
      <point x="323" y="536" type="line"/>
      <point x="77" y="325" type="line"/>
      <point x="77" y="253" type="line"/>
    </contour>
    <contour>
      <point x="441" y="224" type="curve" smooth="yes"/>
      <point x="473" y="224"/>
      <point x="501" y="243"/>
      <point x="501" y="284" type="curve" smooth="yes"/>
      <point x="501" y="326"/>
      <point x="473" y="344"/>
      <point x="441" y="344" type="curve" smooth="yes"/>
      <point x="406" y="344"/>
      <point x="380" y="326"/>
      <point x="380" y="284" type="curve" smooth="yes"/>
      <point x="380" y="243"/>
      <point x="406" y="224"/>
    </contour>
  </outline>
</glyph>
<glyph name="uni2CB5" format="2">
  <advance width="572"/>
  <unicode hex="2CB5"/>
  <outline>
    <contour>
      <point x="336" y="0" type="line"/>
      <point x="461" y="0" type="line"/>
      <point x="157" y="289" type="line"/>
      <point x="453" y="536" type="line"/>
      <point x="323" y="536" type="line"/>
      <point x="77" y="325" type="line"/>
      <point x="77" y="253" type="line"/>
    </contour>
    <contour>
      <point x="441" y="224" type="curve" smooth="yes"/>
      <point x="473" y="224"/>
      <point x="501" y="243"/>
      <point x="501" y="284" type="curve" smooth="yes"/>
      <point x="501" y="326"/>
      <point x="473" y="344"/>
      <point x="441" y="344" type="curve" smooth="yes"/>
      <point x="406" y="344"/>
      <point x="380" y="326"/>
      <point x="380" y="284" type="curve" smooth="yes"/>
      <point x="380" y="243"/>
      <point x="406" y="224"/>
    </contour>
  </outline>
</glyph>
<glyph name="Cryptogrammiceie-coptic" format="2">
  <advance width="630"/>
  <unicode hex="2CB6"/>
  <anchor x="332" y="810" name="above"/>
  <anchor x="322" y="810" name="above.cap"/>
  <anchor x="307" y="0" name="bottom"/>
  <anchor x="302" y="810" name="top"/>
  <outline>
    <contour>
      <point x="28" y="320" type="line"/>
      <point x="601" y="320" type="line"/>
      <point x="601" y="400" type="line"/>
      <point x="28" y="400" type="line"/>
    </contour>
    <contour>
      <point x="28" y="0" type="line"/>
      <point x="601" y="0" type="line"/>
      <point x="601" y="79" type="line"/>
      <point x="28" y="79" type="line"/>
    </contour>
    <contour>
      <point x="28" y="635" type="line"/>
      <point x="601" y="635" type="line"/>
      <point x="601" y="714" type="line"/>
      <point x="28" y="714" type="line"/>
    </contour>
  </outline>
</glyph>
<glyph name="cryptogrammiceie-coptic" format="2">
  <advance width="552"/>
  <unicode hex="2CB7"/>
  <anchor x="307" y="603" name="above"/>
  <anchor x="275" y="810" name="above.cap"/>
  <anchor x="263" y="0" name="bottom"/>
  <anchor x="0" y="603" name="lsb"/>
  <anchor x="0" y="810" name="lsb.cap"/>
  <anchor x="552" y="603" name="rsb"/>
  <anchor x="552" y="810" name="rsb.cap"/>
  <anchor x="273" y="603" name="top"/>
  <outline>
    <contour>
      <point x="34" y="459" type="line"/>
      <point x="513" y="459" type="line"/>
      <point x="513" y="536" type="line"/>
      <point x="34" y="536" type="line"/>
    </contour>
    <contour>
      <point x="34" y="0" type="line"/>
      <point x="513" y="0" type="line"/>
      <point x="513" y="77" type="line"/>
      <point x="34" y="77" type="line"/>
    </contour>
    <contour>
      <point x="34" y="233" type="line"/>
      <point x="513" y="233" type="line"/>
      <point x="513" y="309" type="line"/>
      <point x="34" y="309" type="line"/>
    </contour>
  </outline>
</glyph>
<glyph name="uni2CB7" format="2">
  <advance width="552"/>
  <unicode hex="2CB7"/>
  <outline>
    <contour>
      <point x="34" y="459" type="line"/>
      <point x="513" y="459" type="line"/>
      <point x="513" y="536" type="line"/>
      <point x="34" y="536" type="line"/>
    </contour>
    <contour>
      <point x="34" y="0" type="line"/>
      <point x="513" y="0" type="line"/>
      <point x="513" y="77" type="line"/>
      <point x="34" y="77" type="line"/>
    </contour>
    <contour>
      <point x="34" y="233" type="line"/>
      <point x="513" y="233" type="line"/>
      <point x="513" y="309" type="line"/>
      <point x="34" y="309" type="line"/>
    </contour>
  </outline>
</glyph>
<glyph name="dialectPkapa-coptic" format="2">
  <advance width="572"/>
  <unicode hex="2CB8"/>
  <anchor x="307" y="810" name="above"/>
  <anchor x="273" y="810" name="above.cap"/>
  <anchor x="307" y="0" name="bottom"/>
  <anchor x="302" y="810" name="top"/>
  <outline>
    <contour>
      <point x="526" y="360" type="line"/>
      <point x="526" y="428" type="line"/>
      <point x="73" y="714" type="line"/>
      <point x="73" y="612" type="line"/>
      <point x="427" y="391" type="line"/>
      <point x="38" y="92" type="line"/>
      <point x="38" y="0" type="line"/>
      <point x="382" y="0" type="line" smooth="yes"/>
      <point x="452" y="0"/>
      <point x="467" y="-29"/>
      <point x="468" y="-91" type="curve"/>
      <point x="555" y="-91" type="line"/>
      <point x="555" y="31"/>
      <point x="521" y="80"/>
      <point x="404" y="80" type="curve" smooth="yes"/>
      <point x="151" y="80" type="line"/>
    </contour>
  </outline>
</glyph>
<glyph name="uni2CB8" format="2">
  <advance width="572"/>
  <unicode hex="2CB8"/>
  <outline>
    <contour>
      <point x="526" y="360" type="line"/>
      <point x="526" y="428" type="line"/>
      <point x="73" y="714" type="line"/>
      <point x="73" y="612" type="line"/>
      <point x="427" y="391" type="line"/>
      <point x="38" y="92" type="line"/>
      <point x="38" y="0" type="line"/>
      <point x="382" y="0" type="line" smooth="yes"/>
      <point x="452" y="0"/>
      <point x="467" y="-29"/>
      <point x="468" y="-91" type="curve"/>
      <point x="555" y="-91" type="line"/>
      <point x="555" y="31"/>
      <point x="521" y="80"/>
      <point x="404" y="80" type="curve" smooth="yes"/>
      <point x="151" y="80" type="line"/>
    </contour>
  </outline>
</glyph>
<glyph name="dialectpkapa-coptic" format="2">
  <advance width="470"/>
  <unicode hex="2CB9"/>
  <anchor x="258" y="603" name="above"/>
  <anchor x="234" y="810" name="above.cap"/>
  <anchor x="249" y="0" name="bottom"/>
  <anchor x="0" y="603" name="lsb"/>
  <anchor x="0" y="810" name="lsb.cap"/>
  <anchor x="470" y="603" name="rsb"/>
  <anchor x="470" y="810" name="rsb.cap"/>
  <anchor x="244" y="603" name="top"/>
  <outline>
    <contour>
      <point x="419" y="260" type="line"/>
      <point x="419" y="336" type="line"/>
      <point x="62" y="536" type="line"/>
      <point x="62" y="446" type="line"/>
      <point x="339" y="293" type="line"/>
      <point x="32" y="68" type="line"/>
      <point x="32" y="0" type="line"/>
      <point x="293" y="0" type="line" smooth="yes"/>
      <point x="361" y="0"/>
      <point x="373" y="-14"/>
      <point x="373" y="-91" type="curve"/>
      <point x="453" y="-91" type="line"/>
      <point x="451" y="26"/>
      <point x="433" y="68"/>
      <point x="313" y="68" type="curve" smooth="yes"/>
      <point x="145" y="68" type="line"/>
    </contour>
  </outline>
</glyph>
<glyph name="dialectPni-coptic" format="2">
  <advance width="647"/>
  <unicode hex="2CBA"/>
  <anchor x="332" y="810" name="above"/>
  <anchor x="322" y="810" name="above.cap"/>
  <anchor x="307" y="0" name="bottom"/>
  <anchor x="312" y="810" name="top"/>
  <outline>
    <contour>
      <point x="10" y="547" type="line"/>
      <point x="637" y="547" type="line"/>
      <point x="637" y="634" type="line"/>
      <point x="10" y="634" type="line"/>
    </contour>
  </outline>
</glyph>
<glyph name="uni2CBA" format="2">
  <advance width="647"/>
  <unicode hex="2CBA"/>
  <outline>
    <contour>
      <point x="10" y="547" type="line"/>
      <point x="637" y="547" type="line"/>
      <point x="637" y="634" type="line"/>
      <point x="10" y="634" type="line"/>
    </contour>
  </outline>
</glyph>
<glyph name="dialectpni-coptic" format="2">
  <advance width="506"/>
  <unicode hex="2CBB"/>
  <anchor x="307" y="603" name="above"/>
  <anchor x="263" y="810" name="above.cap"/>
  <anchor x="249" y="0" name="bottom"/>
  <anchor x="0" y="603" name="lsb"/>
  <anchor x="0" y="810" name="lsb.cap"/>
  <anchor x="506" y="603" name="rsb"/>
  <anchor x="506" y="810" name="rsb.cap"/>
  <anchor x="244" y="603" name="top"/>
  <outline>
    <contour>
      <point x="10" y="380" type="line"/>
      <point x="496" y="380" type="line"/>
      <point x="496" y="465" type="line"/>
      <point x="10" y="465" type="line"/>
    </contour>
  </outline>
</glyph>
<glyph name="Cryptogrammicni-coptic" format="2">
  <advance width="788"/>
  <unicode hex="2CBC"/>
  <anchor x="419" y="810" name="above"/>
  <anchor x="395" y="810" name="above.cap"/>
  <anchor x="395" y="0" name="bottom"/>
  <anchor x="390" y="810" name="top"/>
  <outline>
    <contour>
      <point x="353" y="0" type="line"/>
      <point x="433" y="0" type="line"/>
      <point x="433" y="714" type="line"/>
      <point x="353" y="714" type="line"/>
    </contour>
    <contour>
      <point x="97" y="0" type="line"/>
      <point x="176" y="0" type="line"/>
      <point x="176" y="714" type="line"/>
      <point x="97" y="714" type="line"/>
    </contour>
    <contour>
      <point x="612" y="0" type="line"/>
      <point x="691" y="0" type="line"/>
      <point x="691" y="714" type="line"/>
      <point x="612" y="714" type="line"/>
    </contour>
  </outline>
</glyph>
<glyph name="uni2CBC" format="2">
  <advance width="788"/>
  <unicode hex="2CBC"/>
  <outline>
    <contour>
      <point x="353" y="0" type="line"/>
      <point x="433" y="0" type="line"/>
      <point x="433" y="714" type="line"/>
      <point x="353" y="714" type="line"/>
    </contour>
    <contour>
      <point x="97" y="0" type="line"/>
      <point x="176" y="0" type="line"/>
      <point x="176" y="714" type="line"/>
      <point x="97" y="714" type="line"/>
    </contour>
    <contour>
      <point x="612" y="0" type="line"/>
      <point x="691" y="0" type="line"/>
      <point x="691" y="714" type="line"/>
      <point x="612" y="714" type="line"/>
    </contour>
  </outline>
</glyph>
<glyph name="cryptogrammicni-coptic" format="2">
  <advance width="706"/>
  <unicode hex="2CBD"/>
  <anchor x="371" y="603" name="above"/>
  <anchor x="356" y="810" name="above.cap"/>
  <anchor x="356" y="0" name="bottom"/>
  <anchor x="0" y="603" name="lsb"/>
  <anchor x="0" y="810" name="lsb.cap"/>
  <anchor x="706" y="603" name="rsb"/>
  <anchor x="706" y="810" name="rsb.cap"/>
  <anchor x="351" y="603" name="top"/>
  <outline>
    <contour>
      <point x="544" y="0" type="line"/>
      <point x="621" y="0" type="line"/>
      <point x="621" y="536" type="line"/>
      <point x="544" y="536" type="line"/>
    </contour>
    <contour>
      <point x="85" y="0" type="line"/>
      <point x="162" y="0" type="line"/>
      <point x="162" y="536" type="line"/>
      <point x="85" y="536" type="line"/>
    </contour>
    <contour>
      <point x="315" y="0" type="line"/>
      <point x="391" y="0" type="line"/>
      <point x="391" y="536" type="line"/>
      <point x="315" y="536" type="line"/>
    </contour>
  </outline>
</glyph>
<glyph name="OouOld-coptic" format="2">
  <advance width="816"/>
  <unicode hex="2CBE"/>
  <anchor x="419" y="810" name="above"/>
  <anchor x="395" y="810" name="above.cap"/>
  <anchor x="395" y="0" name="bottom"/>
  <anchor x="390" y="810" name="top"/>
  <outline>
    <contour>
      <point x="97" y="0" type="line"/>
      <point x="176" y="0" type="line"/>
      <point x="176" y="326" type="line"/>
      <point x="353" y="326" type="line"/>
      <point x="353" y="0" type="line"/>
      <point x="433" y="0" type="line"/>
      <point x="433" y="326" type="line"/>
      <point x="612" y="326" type="line"/>
      <point x="612" y="0" type="line"/>
      <point x="691" y="0" type="line"/>
      <point x="691" y="326" type="line"/>
      <point x="806" y="326" type="line"/>
      <point x="806" y="398" type="line"/>
      <point x="691" y="398" type="line"/>
      <point x="691" y="714" type="line"/>
      <point x="612" y="714" type="line"/>
      <point x="612" y="398" type="line"/>
      <point x="433" y="398" type="line"/>
      <point x="433" y="714" type="line"/>
      <point x="353" y="714" type="line"/>
      <point x="353" y="398" type="line"/>
      <point x="176" y="398" type="line"/>
      <point x="176" y="714" type="line"/>
      <point x="97" y="714" type="line"/>
    </contour>
  </outline>
</glyph>
<glyph name="uni2CBE" format="2">
  <advance width="816"/>
  <unicode hex="2CBE"/>
  <outline>
    <contour>
      <point x="97" y="0" type="line"/>
      <point x="176" y="0" type="line"/>
      <point x="176" y="326" type="line"/>
      <point x="353" y="326" type="line"/>
      <point x="353" y="0" type="line"/>
      <point x="433" y="0" type="line"/>
      <point x="433" y="326" type="line"/>
      <point x="612" y="326" type="line"/>
      <point x="612" y="0" type="line"/>
      <point x="691" y="0" type="line"/>
      <point x="691" y="326" type="line"/>
      <point x="806" y="326" type="line"/>
      <point x="806" y="398" type="line"/>
      <point x="691" y="398" type="line"/>
      <point x="691" y="714" type="line"/>
      <point x="612" y="714" type="line"/>
      <point x="612" y="398" type="line"/>
      <point x="433" y="398" type="line"/>
      <point x="433" y="714" type="line"/>
      <point x="353" y="714" type="line"/>
      <point x="353" y="398" type="line"/>
      <point x="176" y="398" type="line"/>
      <point x="176" y="714" type="line"/>
      <point x="97" y="714" type="line"/>
    </contour>
  </outline>
</glyph>
<glyph name="oouOld-coptic" format="2">
  <advance width="745"/>
  <unicode hex="2CBF"/>
  <anchor x="371" y="603" name="above"/>
  <anchor x="356" y="810" name="above.cap"/>
  <anchor x="356" y="0" name="bottom"/>
  <anchor x="0" y="603" name="lsb"/>
  <anchor x="0" y="810" name="lsb.cap"/>
  <anchor x="745" y="603" name="rsb"/>
  <anchor x="745" y="810" name="rsb.cap"/>
  <anchor x="351" y="603" name="top"/>
  <outline>
    <contour>
      <point x="85" y="0" type="line"/>
      <point x="162" y="0" type="line"/>
      <point x="162" y="239" type="line"/>
      <point x="315" y="239" type="line"/>
      <point x="315" y="0" type="line"/>
      <point x="391" y="0" type="line"/>
      <point x="391" y="239" type="line"/>
      <point x="544" y="239" type="line"/>
      <point x="544" y="0" type="line"/>
      <point x="621" y="0" type="line"/>
      <point x="621" y="239" type="line"/>
      <point x="733" y="239" type="line"/>
      <point x="733" y="311" type="line"/>
      <point x="621" y="311" type="line"/>
      <point x="621" y="536" type="line"/>
      <point x="544" y="536" type="line"/>
      <point x="544" y="311" type="line"/>
      <point x="391" y="311" type="line"/>
      <point x="391" y="536" type="line"/>
      <point x="315" y="536" type="line"/>
      <point x="315" y="311" type="line"/>
      <point x="162" y="311" type="line"/>
      <point x="162" y="536" type="line"/>
      <point x="85" y="536" type="line"/>
    </contour>
  </outline>
</glyph>
<glyph name="uni2CBF" format="2">
  <advance width="745"/>
  <unicode hex="2CBF"/>
  <outline>
    <contour>
      <point x="85" y="0" type="line"/>
      <point x="162" y="0" type="line"/>
      <point x="162" y="239" type="line"/>
      <point x="315" y="239" type="line"/>
      <point x="315" y="0" type="line"/>
      <point x="391" y="0" type="line"/>
      <point x="391" y="239" type="line"/>
      <point x="544" y="239" type="line"/>
      <point x="544" y="0" type="line"/>
      <point x="621" y="0" type="line"/>
      <point x="621" y="239" type="line"/>
      <point x="733" y="239" type="line"/>
      <point x="733" y="311" type="line"/>
      <point x="621" y="311" type="line"/>
      <point x="621" y="536" type="line"/>
      <point x="544" y="536" type="line"/>
      <point x="544" y="311" type="line"/>
      <point x="391" y="311" type="line"/>
      <point x="391" y="536" type="line"/>
      <point x="315" y="536" type="line"/>
      <point x="315" y="311" type="line"/>
      <point x="162" y="311" type="line"/>
      <point x="162" y="536" type="line"/>
      <point x="85" y="536" type="line"/>
    </contour>
  </outline>
</glyph>
<glyph name="Sampi-coptic" format="2">
  <advance width="649"/>
  <unicode hex="2CC0"/>
  <anchor x="371" y="810" name="above"/>
  <anchor x="341" y="810" name="above.cap"/>
  <anchor x="371" y="0" name="bottom"/>
  <anchor x="341" y="810" name="top"/>
  <outline>
    <contour>
      <point x="141" y="-163" type="line"/>
      <point x="231" y="-163" type="line"/>
      <point x="231" y="65" type="line"/>
      <point x="513" y="65" type="line"/>
      <point x="513" y="143" type="line"/>
      <point x="231" y="143" type="line"/>
      <point x="231" y="278" type="line"/>
      <point x="313" y="278" type="line" smooth="yes"/>
      <point x="527" y="278"/>
      <point x="598" y="386"/>
      <point x="598" y="504" type="curve" smooth="yes"/>
      <point x="598" y="637"/>
      <point x="517" y="714"/>
      <point x="330" y="714" type="curve" smooth="yes"/>
      <point x="141" y="714" type="line"/>
      <point x="141" y="143" type="line"/>
      <point x="2" y="143" type="line"/>
      <point x="2" y="65" type="line"/>
      <point x="141" y="65" type="line"/>
    </contour>
    <contour>
      <point x="231" y="355" type="line"/>
      <point x="231" y="637" type="line"/>
      <point x="322" y="637" type="line" smooth="yes"/>
      <point x="448" y="637"/>
      <point x="505" y="592"/>
      <point x="505" y="500" type="curve" smooth="yes"/>
      <point x="505" y="395"/>
      <point x="439" y="355"/>
      <point x="303" y="355" type="curve" smooth="yes"/>
    </contour>
  </outline>
</glyph>
<glyph name="uni2CC0" format="2">
  <advance width="649"/>
  <unicode hex="2CC0"/>
  <outline>
    <contour>
      <point x="141" y="-163" type="line"/>
      <point x="231" y="-163" type="line"/>
      <point x="231" y="65" type="line"/>
      <point x="513" y="65" type="line"/>
      <point x="513" y="143" type="line"/>
      <point x="231" y="143" type="line"/>
      <point x="231" y="278" type="line"/>
      <point x="313" y="278" type="line" smooth="yes"/>
      <point x="527" y="278"/>
      <point x="598" y="386"/>
      <point x="598" y="504" type="curve" smooth="yes"/>
      <point x="598" y="637"/>
      <point x="517" y="714"/>
      <point x="330" y="714" type="curve" smooth="yes"/>
      <point x="141" y="714" type="line"/>
      <point x="141" y="143" type="line"/>
      <point x="2" y="143" type="line"/>
      <point x="2" y="65" type="line"/>
      <point x="141" y="65" type="line"/>
    </contour>
    <contour>
      <point x="231" y="355" type="line"/>
      <point x="231" y="637" type="line"/>
      <point x="322" y="637" type="line" smooth="yes"/>
      <point x="448" y="637"/>
      <point x="505" y="592"/>
      <point x="505" y="500" type="curve" smooth="yes"/>
      <point x="505" y="395"/>
      <point x="439" y="355"/>
      <point x="303" y="355" type="curve" smooth="yes"/>
    </contour>
  </outline>
</glyph>
<glyph name="sampi-coptic" format="2">
  <advance width="538"/>
  <unicode hex="2CC1"/>
  <anchor x="307" y="603" name="above"/>
  <anchor x="268" y="810" name="above.cap"/>
  <anchor x="307" y="-35" name="bottom"/>
  <anchor x="0" y="603" name="lsb"/>
  <anchor x="0" y="810" name="lsb.cap"/>
  <anchor x="538" y="603" name="rsb"/>
  <anchor x="538" y="810" name="rsb.cap"/>
  <anchor x="244" y="603" name="top"/>
  <outline>
    <contour>
      <point x="94" y="-240" type="line"/>
      <point x="183" y="-240" type="line"/>
      <point x="183" y="-56" type="line"/>
      <point x="362" y="-56" type="line"/>
      <point x="362" y="15" type="line"/>
      <point x="183" y="15" type="line"/>
      <point x="183" y="123" type="line"/>
      <point x="260" y="123" type="line" smooth="yes"/>
      <point x="418" y="123"/>
      <point x="498" y="211"/>
      <point x="498" y="335" type="curve" smooth="yes"/>
      <point x="498" y="444"/>
      <point x="434" y="536"/>
      <point x="276" y="536" type="curve" smooth="yes"/>
      <point x="94" y="536" type="line"/>
      <point x="94" y="15" type="line"/>
      <point x="-2" y="15" type="line"/>
      <point x="-2" y="-56" type="line"/>
      <point x="94" y="-56" type="line"/>
    </contour>
    <contour>
      <point x="183" y="194" type="line"/>
      <point x="183" y="465" type="line"/>
      <point x="263" y="465" type="line" smooth="yes"/>
      <point x="361" y="465"/>
      <point x="407" y="412"/>
      <point x="407" y="332" type="curve" smooth="yes"/>
      <point x="407" y="241"/>
      <point x="353" y="194"/>
      <point x="255" y="194" type="curve" smooth="yes"/>
    </contour>
  </outline>
</glyph>
<glyph name="uni2CC1" format="2">
  <advance width="538"/>
  <unicode hex="2CC1"/>
  <outline>
    <contour>
      <point x="94" y="-240" type="line"/>
      <point x="183" y="-240" type="line"/>
      <point x="183" y="-56" type="line"/>
      <point x="362" y="-56" type="line"/>
      <point x="362" y="15" type="line"/>
      <point x="183" y="15" type="line"/>
      <point x="183" y="123" type="line"/>
      <point x="260" y="123" type="line" smooth="yes"/>
      <point x="418" y="123"/>
      <point x="498" y="211"/>
      <point x="498" y="335" type="curve" smooth="yes"/>
      <point x="498" y="444"/>
      <point x="434" y="536"/>
      <point x="276" y="536" type="curve" smooth="yes"/>
      <point x="94" y="536" type="line"/>
      <point x="94" y="15" type="line"/>
      <point x="-2" y="15" type="line"/>
      <point x="-2" y="-56" type="line"/>
      <point x="94" y="-56" type="line"/>
    </contour>
    <contour>
      <point x="183" y="194" type="line"/>
      <point x="183" y="465" type="line"/>
      <point x="263" y="465" type="line" smooth="yes"/>
      <point x="361" y="465"/>
      <point x="407" y="412"/>
      <point x="407" y="332" type="curve" smooth="yes"/>
      <point x="407" y="241"/>
      <point x="353" y="194"/>
      <point x="255" y="194" type="curve" smooth="yes"/>
    </contour>
  </outline>
</glyph>
<glyph name="sheiCrossed-coptic" format="2">
  <advance width="816"/>
  <unicode hex="2CC3"/>
  <anchor x="419" y="927" name="above"/>
  <anchor x="410" y="922" name="above.cap"/>
  <anchor x="274" y="0" name="bottom"/>
  <anchor x="0" y="603" name="lsb"/>
  <anchor x="0" y="810" name="lsb.cap"/>
  <anchor x="816" y="603" name="rsb"/>
  <anchor x="816" y="810" name="rsb.cap"/>
  <anchor x="404" y="922" name="top"/>
  <outline>
    <contour>
      <point x="447" y="-190" type="curve" smooth="yes"/>
      <point x="596" y="-190"/>
      <point x="761" y="-58"/>
      <point x="761" y="256" type="curve" smooth="yes"/>
      <point x="761" y="419"/>
      <point x="690" y="508"/>
      <point x="627" y="560" type="curve"/>
      <point x="562" y="511" type="line"/>
      <point x="622" y="458"/>
      <point x="673" y="378"/>
      <point x="673" y="257" type="curve" smooth="yes"/>
      <point x="673" y="129"/>
      <point x="613" y="68"/>
      <point x="551" y="68" type="curve" smooth="yes"/>
      <point x="479" y="68"/>
      <point x="450" y="137"/>
      <point x="450" y="223" type="curve" smooth="yes"/>
      <point x="450" y="536" type="line"/>
      <point x="366" y="536" type="line"/>
      <point x="366" y="223" type="line" smooth="yes"/>
      <point x="366" y="150"/>
      <point x="341" y="68"/>
      <point x="257" y="68" type="curve" smooth="yes"/>
      <point x="194" y="68"/>
      <point x="143" y="129"/>
      <point x="143" y="257" type="curve" smooth="yes"/>
      <point x="143" y="386"/>
      <point x="188" y="457"/>
      <point x="257" y="511" type="curve"/>
      <point x="194" y="560" type="line"/>
      <point x="116" y="502"/>
      <point x="55" y="409"/>
      <point x="55" y="257" type="curve" smooth="yes"/>
      <point x="55" y="80"/>
      <point x="148" y="-10"/>
      <point x="249" y="-10" type="curve" smooth="yes"/>
      <point x="330" y="-10"/>
      <point x="383" y="34"/>
      <point x="406" y="104" type="curve"/>
      <point x="409" y="104" type="line"/>
      <point x="429" y="30"/>
      <point x="471" y="-10"/>
      <point x="536" y="-10" type="curve" smooth="yes"/>
      <point x="585" y="-10"/>
      <point x="621" y="11"/>
      <point x="652" y="49" type="curve"/>
      <point x="655" y="47" type="line"/>
      <point x="608" y="-59"/>
      <point x="548" y="-109"/>
      <point x="446" y="-109" type="curve" smooth="yes"/>
      <point x="417" y="-109"/>
      <point x="390" y="-105"/>
      <point x="373" y="-100" type="curve"/>
      <point x="373" y="-180" type="line"/>
      <point x="389" y="-185"/>
      <point x="414" y="-190"/>
    </contour>
    <contour>
      <point x="263" y="779" type="curve" smooth="yes"/>
      <point x="288" y="779"/>
      <point x="310" y="795"/>
      <point x="310" y="829" type="curve" smooth="yes"/>
      <point x="310" y="864"/>
      <point x="288" y="878"/>
      <point x="263" y="878" type="curve" smooth="yes"/>
      <point x="237" y="878"/>
      <point x="216" y="864"/>
      <point x="216" y="829" type="curve" smooth="yes"/>
      <point x="216" y="795"/>
      <point x="237" y="779"/>
    </contour>
    <contour>
      <point x="372" y="600" type="line"/>
      <point x="443" y="600" type="line"/>
      <point x="443" y="670" type="line"/>
      <point x="606" y="670" type="line"/>
      <point x="606" y="737" type="line"/>
      <point x="443" y="737" type="line"/>
      <point x="443" y="874" type="line"/>
      <point x="372" y="874" type="line"/>
      <point x="372" y="737" type="line"/>
      <point x="209" y="737" type="line"/>
      <point x="209" y="670" type="line"/>
      <point x="372" y="670" type="line"/>
    </contour>
    <contour>
      <point x="550" y="779" type="curve" smooth="yes"/>
      <point x="575" y="779"/>
      <point x="597" y="795"/>
      <point x="597" y="829" type="curve" smooth="yes"/>
      <point x="597" y="864"/>
      <point x="575" y="878"/>
      <point x="550" y="878" type="curve" smooth="yes"/>
      <point x="525" y="878"/>
      <point x="504" y="864"/>
      <point x="504" y="829" type="curve" smooth="yes"/>
      <point x="504" y="795"/>
      <point x="525" y="779"/>
    </contour>
  </outline>
</glyph>
<glyph name="SheiOld-coptic" format="2">
  <advance width="584"/>
  <unicode hex="2CC4"/>
  <anchor x="307" y="810" name="above"/>
  <anchor x="283" y="810" name="above.cap"/>
  <anchor x="250" y="0" name="bottom"/>
  <anchor x="283" y="810" name="top"/>
  <outline>
    <contour>
      <point x="241" y="-10" type="curve" smooth="yes"/>
      <point x="436" y="-10"/>
      <point x="529" y="86"/>
      <point x="529" y="221" type="curve" smooth="yes"/>
      <point x="529" y="362"/>
      <point x="416" y="436"/>
      <point x="291" y="440" type="curve"/>
      <point x="499" y="643" type="line"/>
      <point x="499" y="714" type="line"/>
      <point x="55" y="714" type="line"/>
      <point x="55" y="634" type="line"/>
      <point x="386" y="634" type="line"/>
      <point x="180" y="432" type="line"/>
      <point x="180" y="367" type="line"/>
      <point x="242" y="367" type="line" smooth="yes"/>
      <point x="357" y="367"/>
      <point x="435" y="322"/>
      <point x="435" y="222" type="curve" smooth="yes"/>
      <point x="435" y="121"/>
      <point x="371" y="64"/>
      <point x="242" y="64" type="curve" smooth="yes"/>
      <point x="175" y="64"/>
      <point x="97" y="81"/>
      <point x="35" y="111" type="curve"/>
      <point x="35" y="29" type="line"/>
      <point x="95" y="0"/>
      <point x="164" y="-10"/>
    </contour>
  </outline>
</glyph>
<glyph name="sheiOld-coptic" format="2">
  <advance width="498"/>
  <unicode hex="2CC5"/>
  <anchor x="258" y="603" name="above"/>
  <anchor x="244" y="810" name="above.cap"/>
  <anchor x="209" y="-167" name="bottom"/>
  <anchor x="0" y="603" name="lsb"/>
  <anchor x="0" y="810" name="lsb.cap"/>
  <anchor x="498" y="603" name="rsb"/>
  <anchor x="498" y="810" name="rsb.cap"/>
  <anchor x="244" y="603" name="top"/>
  <outline>
    <contour>
      <point x="191" y="-190" type="curve" smooth="yes"/>
      <point x="352" y="-190"/>
      <point x="464" y="-99"/>
      <point x="464" y="43" type="curve" smooth="yes"/>
      <point x="464" y="188"/>
      <point x="362" y="256"/>
      <point x="218" y="258" type="curve"/>
      <point x="437" y="472" type="line"/>
      <point x="437" y="536" type="line"/>
      <point x="28" y="536" type="line"/>
      <point x="28" y="462" type="line"/>
      <point x="334" y="462" type="line"/>
      <point x="115" y="249" type="line"/>
      <point x="115" y="188" type="line"/>
      <point x="164" y="188" type="line" smooth="yes"/>
      <point x="285" y="188"/>
      <point x="376" y="153"/>
      <point x="376" y="41" type="curve" smooth="yes"/>
      <point x="376" y="-62"/>
      <point x="298" y="-117"/>
      <point x="195" y="-117" type="curve" smooth="yes"/>
      <point x="117" y="-117"/>
      <point x="56" y="-95"/>
      <point x="14" y="-77" type="curve"/>
      <point x="14" y="-157" type="line"/>
      <point x="53" y="-174"/>
      <point x="112" y="-190"/>
    </contour>
  </outline>
</glyph>
<glyph name="EshOld-coptic" format="2">
  <advance width="441"/>
  <unicode hex="2CC6"/>
  <anchor x="258" y="810" name="above"/>
  <anchor x="219" y="810" name="above.cap"/>
  <anchor x="225" y="0" name="bottom"/>
  <anchor x="263" y="810" name="top"/>
  <outline>
    <contour>
      <point x="14" y="0" type="line"/>
      <point x="100" y="0" type="line"/>
      <point x="426" y="714" type="line"/>
      <point x="340" y="714" type="line"/>
    </contour>
  </outline>
</glyph>
<glyph name="eshOld-coptic" format="2">
  <advance width="380"/>
  <unicode hex="2CC7"/>
  <anchor x="258" y="603" name="above"/>
  <anchor x="170" y="810" name="above.cap"/>
  <anchor x="210" y="0" name="bottom"/>
  <anchor x="0" y="603" name="lsb"/>
  <anchor x="0" y="810" name="lsb.cap"/>
  <anchor x="380" y="603" name="rsb"/>
  <anchor x="380" y="810" name="rsb.cap"/>
  <anchor x="244" y="603" name="top"/>
  <outline>
    <contour>
      <point x="10" y="0" type="line"/>
      <point x="96" y="0" type="line"/>
      <point x="370" y="536" type="line"/>
      <point x="284" y="536" type="line"/>
    </contour>
  </outline>
</glyph>
<glyph name="KheiAkhmimic-coptic" format="2">
  <advance width="549"/>
  <unicode hex="2CC8"/>
  <anchor x="307" y="810" name="above"/>
  <anchor x="312" y="810" name="above.cap"/>
  <anchor x="390" y="-84" name="bottom"/>
  <anchor x="302" y="810" name="top"/>
  <outline>
    <contour>
      <point x="391" y="-99" type="curve" smooth="yes"/>
      <point x="443" y="-99"/>
      <point x="490" y="-88"/>
      <point x="511" y="-82" type="curve"/>
      <point x="511" y="2" type="line"/>
      <point x="483" y="-7"/>
      <point x="442" y="-13"/>
      <point x="393" y="-13" type="curve" smooth="yes"/>
      <point x="260" y="-13"/>
      <point x="181" y="29"/>
      <point x="157" y="123" type="curve"/>
      <point x="300" y="159"/>
      <point x="396" y="214"/>
      <point x="454" y="282" type="curve"/>
      <point x="542" y="282" type="line"/>
      <point x="542" y="344" type="line"/>
      <point x="496" y="344" type="line"/>
      <point x="519" y="390"/>
      <point x="530" y="441"/>
      <point x="530" y="496" type="curve" smooth="yes"/>
      <point x="530" y="616"/>
      <point x="455" y="724"/>
      <point x="285" y="724" type="curve" smooth="yes"/>
      <point x="148" y="724"/>
      <point x="39" y="650"/>
      <point x="39" y="517" type="curve" smooth="yes"/>
      <point x="39" y="483"/>
      <point x="50" y="440"/>
      <point x="69" y="409" type="curve"/>
      <point x="152" y="441" type="line"/>
      <point x="139" y="464"/>
      <point x="132" y="496"/>
      <point x="132" y="514" type="curve" smooth="yes"/>
      <point x="132" y="598"/>
      <point x="190" y="645"/>
      <point x="279" y="645" type="curve" smooth="yes"/>
      <point x="380" y="645"/>
      <point x="434" y="579"/>
      <point x="434" y="480" type="curve" smooth="yes"/>
      <point x="434" y="429"/>
      <point x="422" y="384"/>
      <point x="394" y="344" type="curve"/>
      <point x="210" y="344" type="line"/>
      <point x="210" y="282" type="line"/>
      <point x="336" y="282" type="line"/>
      <point x="276" y="237"/>
      <point x="181" y="200"/>
      <point x="49" y="173" type="curve"/>
      <point x="80" y="-22"/>
      <point x="214" y="-99"/>
    </contour>
  </outline>
</glyph>
<glyph name="kheiAkhmimic-coptic" format="2">
  <advance width="525"/>
  <unicode hex="2CC9"/>
  <anchor x="307" y="603" name="above"/>
  <anchor x="268" y="810" name="above.cap"/>
  <anchor x="317" y="-118" name="bottom"/>
  <anchor x="0" y="603" name="lsb"/>
  <anchor x="0" y="810" name="lsb.cap"/>
  <anchor x="525" y="603" name="rsb"/>
  <anchor x="525" y="810" name="rsb.cap"/>
  <anchor x="273" y="603" name="top"/>
  <outline>
    <contour>
      <point x="342" y="-134" type="curve" smooth="yes"/>
      <point x="407" y="-134"/>
      <point x="463" y="-118"/>
      <point x="482" y="-110" type="curve"/>
      <point x="482" y="-35" type="line"/>
      <point x="453" y="-49"/>
      <point x="400" y="-61"/>
      <point x="354" y="-61" type="curve" smooth="yes"/>
      <point x="229" y="-61"/>
      <point x="163" y="-16"/>
      <point x="143" y="64" type="curve"/>
      <point x="257" y="90"/>
      <point x="354" y="129"/>
      <point x="412" y="193" type="curve"/>
      <point x="487" y="193" type="line"/>
      <point x="487" y="249" type="line"/>
      <point x="448" y="249" type="line"/>
      <point x="464" y="280"/>
      <point x="473" y="316"/>
      <point x="473" y="357" type="curve" smooth="yes"/>
      <point x="473" y="446"/>
      <point x="427" y="546"/>
      <point x="275" y="546" type="curve" smooth="yes"/>
      <point x="127" y="546"/>
      <point x="63" y="454"/>
      <point x="63" y="370" type="curve" smooth="yes"/>
      <point x="63" y="339"/>
      <point x="72" y="308"/>
      <point x="90" y="279" type="curve"/>
      <point x="168" y="309" type="line"/>
      <point x="156" y="330"/>
      <point x="150" y="351"/>
      <point x="150" y="368" type="curve" smooth="yes"/>
      <point x="150" y="436"/>
      <point x="194" y="474"/>
      <point x="269" y="474" type="curve" smooth="yes"/>
      <point x="352" y="474"/>
      <point x="384" y="418"/>
      <point x="384" y="354" type="curve" smooth="yes"/>
      <point x="384" y="312"/>
      <point x="374" y="276"/>
      <point x="354" y="249" type="curve"/>
      <point x="175" y="249" type="line"/>
      <point x="175" y="193" type="line"/>
      <point x="297" y="193" type="line"/>
      <point x="242" y="159"/>
      <point x="157" y="134"/>
      <point x="50" y="113" type="curve"/>
      <point x="77" y="-56"/>
      <point x="171" y="-134"/>
    </contour>
  </outline>
</glyph>
<glyph name="HoriDialectP-coptic" format="2">
  <advance width="572"/>
  <unicode hex="2CCA"/>
  <anchor x="307" y="810" name="above"/>
  <anchor x="292" y="810" name="above.cap"/>
  <anchor x="307" y="0" name="bottom"/>
  <anchor x="302" y="810" name="top"/>
  <outline>
    <contour>
      <point x="99" y="-10" type="line"/>
      <point x="323" y="-10"/>
      <point x="532" y="117"/>
      <point x="532" y="423" type="curve" smooth="yes"/>
      <point x="532" y="645"/>
      <point x="415" y="724"/>
      <point x="282" y="724" type="curve" smooth="yes"/>
      <point x="141" y="724"/>
      <point x="45" y="641"/>
      <point x="45" y="508" type="curve" smooth="yes"/>
      <point x="45" y="377"/>
      <point x="141" y="300"/>
      <point x="281" y="282" type="curve"/>
      <point x="300" y="358" type="line"/>
      <point x="188" y="376"/>
      <point x="136" y="424"/>
      <point x="136" y="511" type="curve" smooth="yes"/>
      <point x="136" y="585"/>
      <point x="180" y="648"/>
      <point x="282" y="648" type="curve" smooth="yes"/>
      <point x="384" y="648"/>
      <point x="439" y="563"/>
      <point x="439" y="412" type="curve" smooth="yes"/>
      <point x="439" y="157"/>
      <point x="278" y="72"/>
      <point x="99" y="72" type="curve"/>
    </contour>
  </outline>
</glyph>
<glyph name="horiDialectP-coptic" format="2">
  <advance width="572"/>
  <unicode hex="2CCB"/>
  <anchor x="307" y="603" name="above"/>
  <anchor x="268" y="810" name="above.cap"/>
  <anchor x="312" y="-167" name="bottom"/>
  <anchor x="0" y="603" name="lsb"/>
  <anchor x="0" y="810" name="lsb.cap"/>
  <anchor x="572" y="603" name="rsb"/>
  <anchor x="572" y="810" name="rsb.cap"/>
  <anchor x="273" y="603" name="top"/>
  <outline>
    <contour>
      <point x="104" y="-239" type="line"/>
      <point x="328" y="-239"/>
      <point x="532" y="-60"/>
      <point x="532" y="238" type="curve" smooth="yes"/>
      <point x="532" y="428"/>
      <point x="449" y="546"/>
      <point x="287" y="546" type="curve" smooth="yes"/>
      <point x="138" y="546"/>
      <point x="51" y="437"/>
      <point x="51" y="312" type="curve" smooth="yes"/>
      <point x="51" y="169"/>
      <point x="148" y="104"/>
      <point x="277" y="73" type="curve"/>
      <point x="308" y="149" type="line"/>
      <point x="207" y="176"/>
      <point x="142" y="220"/>
      <point x="142" y="320" type="curve" smooth="yes"/>
      <point x="142" y="398"/>
      <point x="186" y="472"/>
      <point x="284" y="472" type="curve" smooth="yes"/>
      <point x="374" y="472"/>
      <point x="439" y="402"/>
      <point x="439" y="234" type="curve" smooth="yes"/>
      <point x="439" y="-20"/>
      <point x="283" y="-159"/>
      <point x="104" y="-159" type="curve"/>
    </contour>
  </outline>
</glyph>
<glyph name="HoriOld-coptic" format="2">
  <advance width="588"/>
  <unicode hex="2CCC"/>
  <anchor x="307" y="810" name="above"/>
  <anchor x="292" y="810" name="above.cap"/>
  <anchor x="263" y="0" name="bottom"/>
  <anchor x="302" y="810" name="top"/>
  <outline>
    <contour>
      <point x="246" y="-10" type="curve" smooth="yes"/>
      <point x="438" y="-10"/>
      <point x="534" y="76"/>
      <point x="534" y="202" type="curve" smooth="yes"/>
      <point x="534" y="296"/>
      <point x="470" y="357"/>
      <point x="350" y="373" type="curve"/>
      <point x="350" y="377" type="line"/>
      <point x="453" y="393"/>
      <point x="519" y="450"/>
      <point x="519" y="547" type="curve" smooth="yes"/>
      <point x="519" y="650"/>
      <point x="437" y="724"/>
      <point x="283" y="724" type="curve" smooth="yes"/>
      <point x="180" y="724"/>
      <point x="97" y="691"/>
      <point x="41" y="650" type="curve"/>
      <point x="84" y="589" type="line"/>
      <point x="140" y="625"/>
      <point x="192" y="650"/>
      <point x="282" y="650" type="curve" smooth="yes"/>
      <point x="367" y="650"/>
      <point x="426" y="610"/>
      <point x="426" y="538" type="curve" smooth="yes"/>
      <point x="426" y="458"/>
      <point x="356" y="407"/>
      <point x="215" y="407" type="curve" smooth="yes"/>
      <point x="118" y="407" type="line"/>
      <point x="118" y="332" type="line"/>
      <point x="220" y="332" type="line" smooth="yes"/>
      <point x="358" y="332"/>
      <point x="440" y="292"/>
      <point x="440" y="202" type="curve" smooth="yes"/>
      <point x="440" y="114"/>
      <point x="373" y="64"/>
      <point x="245" y="64" type="curve" smooth="yes"/>
      <point x="179" y="64"/>
      <point x="100" y="81"/>
      <point x="38" y="111" type="curve"/>
      <point x="38" y="29" type="line"/>
      <point x="98" y="0"/>
      <point x="169" y="-10"/>
    </contour>
  </outline>
</glyph>
<glyph name="horiOld-coptic" format="2">
  <advance width="510"/>
  <unicode hex="2CCD"/>
  <anchor x="307" y="603" name="above"/>
  <anchor x="205" y="810" name="above.cap"/>
  <anchor x="209" y="-157" name="bottom"/>
  <anchor x="0" y="603" name="lsb"/>
  <anchor x="0" y="810" name="lsb.cap"/>
  <anchor x="510" y="603" name="rsb"/>
  <anchor x="510" y="810" name="rsb.cap"/>
  <anchor x="244" y="603" name="top"/>
  <outline>
    <contour>
      <point x="201" y="-190" type="curve" smooth="yes"/>
      <point x="378" y="-190"/>
      <point x="466" y="-96"/>
      <point x="466" y="29" type="curve" smooth="yes"/>
      <point x="466" y="114"/>
      <point x="419" y="184"/>
      <point x="295" y="201" type="curve"/>
      <point x="295" y="205" type="line"/>
      <point x="376" y="219"/>
      <point x="440" y="271"/>
      <point x="440" y="368" type="curve" smooth="yes"/>
      <point x="440" y="469"/>
      <point x="377" y="546"/>
      <point x="237" y="546" type="curve" smooth="yes"/>
      <point x="147" y="546"/>
      <point x="85" y="513"/>
      <point x="37" y="473" type="curve"/>
      <point x="76" y="413" type="line"/>
      <point x="125" y="448"/>
      <point x="166" y="472"/>
      <point x="238" y="472" type="curve" smooth="yes"/>
      <point x="313" y="472"/>
      <point x="355" y="430"/>
      <point x="355" y="362" type="curve" smooth="yes"/>
      <point x="355" y="286"/>
      <point x="304" y="235"/>
      <point x="176" y="235" type="curve" smooth="yes"/>
      <point x="130" y="235" type="line"/>
      <point x="130" y="160" type="line"/>
      <point x="175" y="160" type="line" smooth="yes"/>
      <point x="324" y="160"/>
      <point x="377" y="110"/>
      <point x="377" y="28" type="curve" smooth="yes"/>
      <point x="377" y="-60"/>
      <point x="322" y="-117"/>
      <point x="202" y="-117" type="curve" smooth="yes"/>
      <point x="127" y="-117"/>
      <point x="70" y="-95"/>
      <point x="28" y="-77" type="curve"/>
      <point x="28" y="-157" type="line"/>
      <point x="67" y="-174"/>
      <point x="122" y="-190"/>
    </contour>
  </outline>
</glyph>
<glyph name="HaOld-coptic" format="2">
  <advance width="617"/>
  <unicode hex="2CCE"/>
  <anchor x="307" y="810" name="above"/>
  <anchor x="307" y="810" name="above.cap"/>
  <anchor x="269" y="0" name="bottom"/>
  <anchor x="380" y="810" name="top"/>
  <outline>
    <contour>
      <point x="7" y="-163" type="line"/>
      <point x="95" y="-163" type="line"/>
      <point x="277" y="637" type="line"/>
      <point x="306" y="637" type="line" smooth="yes"/>
      <point x="432" y="637"/>
      <point x="489" y="592"/>
      <point x="489" y="500" type="curve" smooth="yes"/>
      <point x="489" y="395"/>
      <point x="423" y="355"/>
      <point x="287" y="355" type="curve" smooth="yes"/>
      <point x="257" y="355" type="line"/>
      <point x="257" y="278" type="line"/>
      <point x="297" y="278" type="line" smooth="yes"/>
      <point x="511" y="278"/>
      <point x="582" y="386"/>
      <point x="582" y="504" type="curve" smooth="yes"/>
      <point x="582" y="637"/>
      <point x="501" y="714"/>
      <point x="314" y="714" type="curve" smooth="yes"/>
      <point x="205" y="714" type="line"/>
    </contour>
  </outline>
</glyph>
<glyph name="uni2CCE" format="2">
  <advance width="617"/>
  <unicode hex="2CCE"/>
  <outline>
    <contour>
      <point x="7" y="-163" type="line"/>
      <point x="95" y="-163" type="line"/>
      <point x="277" y="637" type="line"/>
      <point x="306" y="637" type="line" smooth="yes"/>
      <point x="432" y="637"/>
      <point x="489" y="592"/>
      <point x="489" y="500" type="curve" smooth="yes"/>
      <point x="489" y="395"/>
      <point x="423" y="355"/>
      <point x="287" y="355" type="curve" smooth="yes"/>
      <point x="257" y="355" type="line"/>
      <point x="257" y="278" type="line"/>
      <point x="297" y="278" type="line" smooth="yes"/>
      <point x="511" y="278"/>
      <point x="582" y="386"/>
      <point x="582" y="504" type="curve" smooth="yes"/>
      <point x="582" y="637"/>
      <point x="501" y="714"/>
      <point x="314" y="714" type="curve" smooth="yes"/>
      <point x="205" y="714" type="line"/>
    </contour>
  </outline>
</glyph>
<glyph name="haOld-coptic" format="2">
  <advance width="550"/>
  <unicode hex="2CCF"/>
  <anchor x="307" y="603" name="above"/>
  <anchor x="273" y="810" name="above.cap"/>
  <anchor x="249" y="0" name="bottom"/>
  <anchor x="0" y="603" name="lsb"/>
  <anchor x="0" y="810" name="lsb.cap"/>
  <anchor x="550" y="603" name="rsb"/>
  <anchor x="550" y="810" name="rsb.cap"/>
  <anchor x="332" y="603" name="top"/>
  <outline>
    <contour>
      <point x="-23" y="-239" type="line"/>
      <point x="64" y="-239" type="line"/>
      <point x="227" y="464" type="line"/>
      <point x="261" y="464" type="line" smooth="yes"/>
      <point x="368" y="464"/>
      <point x="425" y="422"/>
      <point x="425" y="330" type="curve" smooth="yes"/>
      <point x="425" y="227"/>
      <point x="359" y="192"/>
      <point x="241" y="192" type="curve" smooth="yes"/>
      <point x="215" y="192" type="line"/>
      <point x="215" y="122" type="line"/>
      <point x="250" y="122" type="line" smooth="yes"/>
      <point x="425" y="122"/>
      <point x="515" y="201"/>
      <point x="515" y="335" type="curve" smooth="yes"/>
      <point x="515" y="468"/>
      <point x="436" y="537"/>
      <point x="266" y="537" type="curve" smooth="yes"/>
      <point x="155" y="537" type="line"/>
    </contour>
  </outline>
</glyph>
<glyph name="uni2CCF" format="2">
  <advance width="550"/>
  <unicode hex="2CCF"/>
  <outline>
    <contour>
      <point x="-23" y="-239" type="line"/>
      <point x="64" y="-239" type="line"/>
      <point x="227" y="464" type="line"/>
      <point x="261" y="464" type="line" smooth="yes"/>
      <point x="368" y="464"/>
      <point x="425" y="422"/>
      <point x="425" y="330" type="curve" smooth="yes"/>
      <point x="425" y="227"/>
      <point x="359" y="192"/>
      <point x="241" y="192" type="curve" smooth="yes"/>
      <point x="215" y="192" type="line"/>
      <point x="215" y="122" type="line"/>
      <point x="250" y="122" type="line" smooth="yes"/>
      <point x="425" y="122"/>
      <point x="515" y="201"/>
      <point x="515" y="335" type="curve" smooth="yes"/>
      <point x="515" y="468"/>
      <point x="436" y="537"/>
      <point x="266" y="537" type="curve" smooth="yes"/>
      <point x="155" y="537" type="line"/>
    </contour>
  </outline>
</glyph>
<glyph name="HaLshaped-coptic" format="2">
  <advance width="524"/>
  <unicode hex="2CD0"/>
  <anchor x="307" y="810" name="above"/>
  <anchor x="261" y="810" name="above.cap"/>
  <anchor x="307" y="0" name="bottom"/>
  <anchor x="302" y="810" name="top"/>
  <outline>
    <contour>
      <point x="97" y="0" type="line"/>
      <point x="499" y="0" type="line"/>
      <point x="499" y="80" type="line"/>
      <point x="187" y="80" type="line"/>
      <point x="187" y="714" type="line"/>
      <point x="97" y="714" type="line"/>
    </contour>
  </outline>
</glyph>
<glyph name="haLshaped-coptic" format="2">
  <advance width="435"/>
  <unicode hex="2CD1"/>
  <anchor x="258" y="603" name="above"/>
  <anchor x="214" y="810" name="above.cap"/>
  <anchor x="249" y="0" name="bottom"/>
  <anchor x="0" y="603" name="lsb"/>
  <anchor x="0" y="810" name="lsb.cap"/>
  <anchor x="435" y="603" name="rsb"/>
  <anchor x="435" y="810" name="rsb.cap"/>
  <anchor x="244" y="603" name="top"/>
  <outline>
    <contour>
      <point x="85" y="0" type="line"/>
      <point x="417" y="0" type="line"/>
      <point x="417" y="73" type="line"/>
      <point x="173" y="73" type="line"/>
      <point x="173" y="536" type="line"/>
      <point x="85" y="536" type="line"/>
    </contour>
  </outline>
</glyph>
<glyph name="HeiOld-coptic" format="2">
  <advance width="572"/>
  <unicode hex="2CD2"/>
  <anchor x="307" y="810" name="above"/>
  <anchor x="283" y="810" name="above.cap"/>
  <anchor x="307" y="0" name="bottom"/>
  <anchor x="302" y="810" name="top"/>
  <outline>
    <contour>
      <point x="290" y="-10" type="curve" smooth="yes"/>
      <point x="431" y="-10"/>
      <point x="527" y="73"/>
      <point x="527" y="206" type="curve" smooth="yes"/>
      <point x="527" y="337"/>
      <point x="431" y="414"/>
      <point x="291" y="432" type="curve"/>
      <point x="270" y="356" type="line"/>
      <point x="382" y="338"/>
      <point x="436" y="290"/>
      <point x="436" y="203" type="curve" smooth="yes"/>
      <point x="436" y="129"/>
      <point x="392" y="66"/>
      <point x="290" y="66" type="curve" smooth="yes"/>
      <point x="188" y="66"/>
      <point x="133" y="148"/>
      <point x="133" y="302" type="curve" smooth="yes"/>
      <point x="133" y="557"/>
      <point x="294" y="642"/>
      <point x="473" y="642" type="curve"/>
      <point x="473" y="724" type="line"/>
      <point x="249" y="724"/>
      <point x="40" y="597"/>
      <point x="40" y="291" type="curve" smooth="yes"/>
      <point x="40" y="73"/>
      <point x="157" y="-10"/>
    </contour>
  </outline>
</glyph>
<glyph name="heiOld-coptic" format="2">
  <advance width="572"/>
  <unicode hex="2CD3"/>
  <anchor x="307" y="810" name="above"/>
  <anchor x="273" y="810" name="above.cap"/>
  <anchor x="306" y="0" name="bottom"/>
  <anchor x="0" y="603" name="lsb"/>
  <anchor x="0" y="810" name="lsb.cap"/>
  <anchor x="572" y="603" name="rsb"/>
  <anchor x="572" y="810" name="rsb.cap"/>
  <anchor x="292" y="810" name="top"/>
  <outline>
    <contour>
      <point x="296" y="-10" type="curve" smooth="yes"/>
      <point x="445" y="-10"/>
      <point x="532" y="95"/>
      <point x="532" y="218" type="curve" smooth="yes"/>
      <point x="532" y="371"/>
      <point x="418" y="415"/>
      <point x="303" y="443" type="curve"/>
      <point x="276" y="370" type="line"/>
      <point x="374" y="343"/>
      <point x="444" y="309"/>
      <point x="444" y="212" type="curve" smooth="yes"/>
      <point x="444" y="134"/>
      <point x="397" y="64"/>
      <point x="299" y="64" type="curve" smooth="yes"/>
      <point x="209" y="64"/>
      <point x="143" y="123"/>
      <point x="143" y="286" type="curve" smooth="yes"/>
      <point x="143" y="540"/>
      <point x="300" y="657"/>
      <point x="479" y="657" type="curve"/>
      <point x="479" y="738" type="line"/>
      <point x="255" y="738"/>
      <point x="52" y="580"/>
      <point x="52" y="282" type="curve" smooth="yes"/>
      <point x="52" y="97"/>
      <point x="134" y="-10"/>
    </contour>
  </outline>
</glyph>
<glyph name="uni2CD3" format="2">
  <advance width="572"/>
  <unicode hex="2CD3"/>
  <outline>
    <contour>
      <point x="296" y="-10" type="curve" smooth="yes"/>
      <point x="445" y="-10"/>
      <point x="532" y="95"/>
      <point x="532" y="218" type="curve" smooth="yes"/>
      <point x="532" y="371"/>
      <point x="418" y="415"/>
      <point x="303" y="443" type="curve"/>
      <point x="276" y="370" type="line"/>
      <point x="374" y="343"/>
      <point x="444" y="309"/>
      <point x="444" y="212" type="curve" smooth="yes"/>
      <point x="444" y="134"/>
      <point x="397" y="64"/>
      <point x="299" y="64" type="curve" smooth="yes"/>
      <point x="209" y="64"/>
      <point x="143" y="123"/>
      <point x="143" y="286" type="curve" smooth="yes"/>
      <point x="143" y="540"/>
      <point x="300" y="657"/>
      <point x="479" y="657" type="curve"/>
      <point x="479" y="738" type="line"/>
      <point x="255" y="738"/>
      <point x="52" y="580"/>
      <point x="52" y="282" type="curve" smooth="yes"/>
      <point x="52" y="97"/>
      <point x="134" y="-10"/>
    </contour>
  </outline>
</glyph>
<glyph name="HatOld-coptic" format="2">
  <advance width="357"/>
  <unicode hex="2CD4"/>
  <anchor x="258" y="810" name="above"/>
  <anchor x="195" y="810" name="above.cap"/>
  <anchor x="195" y="-147" name="bottom"/>
  <anchor x="195" y="810" name="top"/>
  <outline>
    <contour>
      <point x="149" y="-163" type="line"/>
      <point x="239" y="-163" type="line"/>
      <point x="239" y="555" type="line"/>
      <point x="107" y="555" type="line"/>
      <point x="118" y="610"/>
      <point x="162" y="649"/>
      <point x="248" y="649" type="curve" smooth="yes"/>
      <point x="275" y="649"/>
      <point x="295" y="646"/>
      <point x="308" y="643" type="curve"/>
      <point x="308" y="716" type="line"/>
      <point x="294" y="719"/>
      <point x="271" y="721"/>
      <point x="246" y="721" type="curve" smooth="yes"/>
      <point x="115" y="721"/>
      <point x="20" y="640"/>
      <point x="11" y="487" type="curve"/>
      <point x="149" y="487" type="line"/>
    </contour>
  </outline>
</glyph>
<glyph name="hatOld-coptic" format="2">
  <advance width="369"/>
  <unicode hex="2CD5"/>
  <anchor x="258" y="603" name="above"/>
  <anchor x="185" y="810" name="above.cap"/>
  <anchor x="195" y="-210" name="bottom"/>
  <anchor x="0" y="603" name="lsb"/>
  <anchor x="0" y="810" name="lsb.cap"/>
  <anchor x="369" y="603" name="rsb"/>
  <anchor x="369" y="810" name="rsb.cap"/>
  <anchor x="175" y="603" name="top"/>
  <outline>
    <contour>
      <point x="153" y="-240" type="line"/>
      <point x="241" y="-240" type="line"/>
      <point x="241" y="390" type="line"/>
      <point x="117" y="390" type="line"/>
      <point x="131" y="442"/>
      <point x="171" y="470"/>
      <point x="235" y="470" type="curve" smooth="yes"/>
      <point x="259" y="470"/>
      <point x="283" y="467"/>
      <point x="291" y="465" type="curve"/>
      <point x="291" y="537" type="line"/>
      <point x="279" y="539"/>
      <point x="254" y="541"/>
      <point x="233" y="541" type="curve" smooth="yes"/>
      <point x="124" y="541"/>
      <point x="31" y="474"/>
      <point x="19" y="322" type="curve"/>
      <point x="153" y="322" type="line"/>
    </contour>
  </outline>
</glyph>
<glyph name="uni2CD5" format="2">
  <advance width="369"/>
  <unicode hex="2CD5"/>
  <outline>
    <contour>
      <point x="153" y="-240" type="line"/>
      <point x="241" y="-240" type="line"/>
      <point x="241" y="390" type="line"/>
      <point x="117" y="390" type="line"/>
      <point x="131" y="442"/>
      <point x="171" y="470"/>
      <point x="235" y="470" type="curve" smooth="yes"/>
      <point x="259" y="470"/>
      <point x="283" y="467"/>
      <point x="291" y="465" type="curve"/>
      <point x="291" y="537" type="line"/>
      <point x="279" y="539"/>
      <point x="254" y="541"/>
      <point x="233" y="541" type="curve" smooth="yes"/>
      <point x="124" y="541"/>
      <point x="31" y="474"/>
      <point x="19" y="322" type="curve"/>
      <point x="153" y="322" type="line"/>
    </contour>
  </outline>
</glyph>
<glyph name="GangiaOld-coptic" format="2">
  <advance width="599"/>
  <unicode hex="2CD6"/>
  <anchor x="307" y="810" name="above"/>
  <anchor x="297" y="810" name="above.cap"/>
  <anchor x="390" y="0" name="bottom"/>
  <anchor x="214" y="810" name="top"/>
  <outline>
    <contour>
      <point x="113" y="-167" type="curve" smooth="yes"/>
      <point x="216" y="-167"/>
      <point x="262" y="-100"/>
      <point x="262" y="0" type="curve"/>
      <point x="574" y="0" type="line"/>
      <point x="574" y="80" type="line"/>
      <point x="262" y="80" type="line"/>
      <point x="262" y="714" type="line"/>
      <point x="172" y="714" type="line"/>
      <point x="172" y="80" type="line"/>
      <point x="157" y="80" type="line" smooth="yes"/>
      <point x="52" y="80"/>
      <point x="-6" y="31"/>
      <point x="-6" y="-49" type="curve" smooth="yes"/>
      <point x="-6" y="-111"/>
      <point x="30" y="-167"/>
    </contour>
    <contour>
      <point x="120" y="-90" type="curve" smooth="yes"/>
      <point x="98" y="-90"/>
      <point x="80" y="-76"/>
      <point x="80" y="-50" type="curve" smooth="yes"/>
      <point x="80" y="-15"/>
      <point x="104" y="0"/>
      <point x="154" y="0" type="curve" smooth="yes"/>
      <point x="172" y="0" type="line"/>
      <point x="172" y="-14" type="line" smooth="yes"/>
      <point x="172" y="-70"/>
      <point x="152" y="-90"/>
    </contour>
  </outline>
</glyph>
<glyph name="gangiaOld-coptic" format="2">
  <advance width="517"/>
  <unicode hex="2CD7"/>
  <anchor x="307" y="603" name="above"/>
  <anchor x="273" y="810" name="above.cap"/>
  <anchor x="356" y="0" name="bottom"/>
  <anchor x="0" y="603" name="lsb"/>
  <anchor x="0" y="810" name="lsb.cap"/>
  <anchor x="517" y="603" name="rsb"/>
  <anchor x="517" y="810" name="rsb.cap"/>
  <anchor x="205" y="603" name="top"/>
  <outline>
    <contour>
      <point x="110" y="-162" type="curve" smooth="yes"/>
      <point x="209" y="-162"/>
      <point x="257" y="-100"/>
      <point x="257" y="0" type="curve"/>
      <point x="496" y="0" type="line"/>
      <point x="496" y="74" type="line"/>
      <point x="257" y="74" type="line"/>
      <point x="257" y="536" type="line"/>
      <point x="169" y="536" type="line"/>
      <point x="169" y="74" type="line"/>
      <point x="162" y="74" type="line" smooth="yes"/>
      <point x="57" y="74"/>
      <point x="-6" y="31"/>
      <point x="-6" y="-49" type="curve" smooth="yes"/>
      <point x="-6" y="-111"/>
      <point x="27" y="-162"/>
    </contour>
    <contour>
      <point x="117" y="-91" type="curve" smooth="yes"/>
      <point x="95" y="-91"/>
      <point x="77" y="-76"/>
      <point x="77" y="-50" type="curve" smooth="yes"/>
      <point x="77" y="-15"/>
      <point x="101" y="0"/>
      <point x="151" y="0" type="curve" smooth="yes"/>
      <point x="169" y="0" type="line"/>
      <point x="169" y="-14" type="line" smooth="yes"/>
      <point x="169" y="-70"/>
      <point x="149" y="-91"/>
    </contour>
  </outline>
</glyph>
<glyph name="DjaOld-coptic" format="2">
  <advance width="731"/>
  <unicode hex="2CD8"/>
  <anchor x="371" y="810" name="above"/>
  <anchor x="363" y="810" name="above.cap"/>
  <anchor x="361" y="0" name="bottom"/>
  <anchor x="361" y="810" name="top"/>
  <outline>
    <contour>
      <point x="97" y="0" type="line"/>
      <point x="633" y="0" type="line"/>
      <point x="633" y="714" type="line"/>
      <point x="543" y="714" type="line"/>
      <point x="543" y="79" type="line"/>
      <point x="186" y="79" type="line"/>
      <point x="186" y="714" type="line"/>
      <point x="97" y="714" type="line"/>
    </contour>
  </outline>
</glyph>
<glyph name="djaOld-coptic" format="2">
  <advance width="624"/>
  <unicode hex="2CD9"/>
  <anchor x="317" y="603" name="above"/>
  <anchor x="310" y="810" name="above.cap"/>
  <anchor x="306" y="0" name="bottom"/>
  <anchor x="0" y="603" name="lsb"/>
  <anchor x="0" y="810" name="lsb.cap"/>
  <anchor x="624" y="603" name="rsb"/>
  <anchor x="624" y="810" name="rsb.cap"/>
  <anchor x="302" y="603" name="top"/>
  <outline>
    <contour>
      <point x="85" y="0" type="line"/>
      <point x="538" y="0" type="line"/>
      <point x="538" y="536" type="line"/>
      <point x="450" y="536" type="line"/>
      <point x="450" y="75" type="line"/>
      <point x="173" y="75" type="line"/>
      <point x="173" y="536" type="line"/>
      <point x="85" y="536" type="line"/>
    </contour>
  </outline>
</glyph>
<glyph name="uni2CD9" format="2">
  <advance width="624"/>
  <unicode hex="2CD9"/>
  <outline>
    <contour>
      <point x="85" y="0" type="line"/>
      <point x="538" y="0" type="line"/>
      <point x="538" y="536" type="line"/>
      <point x="450" y="536" type="line"/>
      <point x="450" y="75" type="line"/>
      <point x="173" y="75" type="line"/>
      <point x="173" y="536" type="line"/>
      <point x="85" y="536" type="line"/>
    </contour>
  </outline>
</glyph>
<glyph name="ShimaOld-coptic" format="2">
  <advance width="814"/>
  <unicode hex="2CDA"/>
  <anchor x="419" y="810" name="above"/>
  <anchor x="405" y="810" name="above.cap"/>
  <anchor x="429" y="0" name="bottom"/>
  <anchor x="400" y="810" name="top"/>
  <outline>
    <contour>
      <point x="156" y="0" type="curve" smooth="yes"/>
      <point x="799" y="0" type="line"/>
      <point x="799" y="79" type="line"/>
      <point x="742" y="79"/>
      <point x="720" y="87"/>
      <point x="684" y="169" type="curve" smooth="yes"/>
      <point x="442" y="714" type="line"/>
      <point x="342" y="714" type="line"/>
      <point x="417" y="555" type="line"/>
      <point x="306" y="327" type="line"/>
      <point x="175" y="405" type="line"/>
      <point x="145" y="359" type="line"/>
      <point x="282" y="278" type="line"/>
      <point x="184" y="79" type="line"/>
      <point x="131" y="79"/>
      <point x="101" y="86"/>
      <point x="101" y="142" type="curve"/>
      <point x="16" y="142" type="line"/>
      <point x="16" y="55"/>
      <point x="50" y="0"/>
    </contour>
    <contour>
      <point x="443" y="79" type="curve" smooth="yes"/>
      <point x="273" y="79" type="line"/>
      <point x="347" y="236" type="line"/>
      <point x="456" y="169" type="line" smooth="yes"/>
      <point x="509" y="136"/>
      <point x="565" y="97"/>
      <point x="605" y="77" type="curve"/>
      <point x="603" y="75" type="line"/>
      <point x="552" y="79"/>
      <point x="490" y="79"/>
    </contour>
    <contour>
      <point x="371" y="287" type="line"/>
      <point x="458" y="474" type="line"/>
      <point x="543" y="280" type="line" smooth="yes"/>
      <point x="570" y="218"/>
      <point x="594" y="156"/>
      <point x="620" y="122" type="curve"/>
      <point x="618" y="120" type="line"/>
      <point x="578" y="153"/>
      <point x="535" y="184"/>
      <point x="495" y="209" type="curve" smooth="yes"/>
    </contour>
  </outline>
</glyph>
<glyph name="shimaOld-coptic" format="2">
  <advance width="658"/>
  <unicode hex="2CDB"/>
  <anchor x="371" y="603" name="above"/>
  <anchor x="322" y="810" name="above.cap"/>
  <anchor x="356" y="0" name="bottom"/>
  <anchor x="0" y="603" name="lsb"/>
  <anchor x="0" y="810" name="lsb.cap"/>
  <anchor x="658" y="603" name="rsb"/>
  <anchor x="658" y="810" name="rsb.cap"/>
  <anchor x="292" y="603" name="top"/>
  <outline>
    <contour>
      <point x="115" y="0" type="curve" smooth="yes"/>
      <point x="648" y="0" type="line"/>
      <point x="648" y="71" type="line"/>
      <point x="603" y="71"/>
      <point x="579" y="78"/>
      <point x="551" y="135" type="curve" smooth="yes"/>
      <point x="357" y="536" type="line"/>
      <point x="262" y="536" type="line"/>
      <point x="327" y="405" type="line"/>
      <point x="245" y="252" type="line"/>
      <point x="163" y="299" type="line"/>
      <point x="138" y="257" type="line"/>
      <point x="222" y="210" type="line"/>
      <point x="146" y="71" type="line"/>
      <point x="109" y="71"/>
      <point x="85" y="77"/>
      <point x="85" y="119" type="curve"/>
      <point x="10" y="119" type="line"/>
      <point x="10" y="53"/>
      <point x="35" y="0"/>
    </contour>
    <contour>
      <point x="471" y="69" type="line"/>
      <point x="433" y="69"/>
      <point x="374" y="71"/>
      <point x="321" y="71" type="curve" smooth="yes"/>
      <point x="233" y="71" type="line"/>
      <point x="286" y="174" type="line"/>
      <point x="351" y="136" type="line" smooth="yes"/>
      <point x="388" y="114"/>
      <point x="438" y="87"/>
      <point x="472" y="71" type="curve"/>
    </contour>
    <contour>
      <point x="474" y="118" type="line"/>
      <point x="448" y="136"/>
      <point x="409" y="160"/>
      <point x="378" y="178" type="curve" smooth="yes"/>
      <point x="309" y="219" type="line"/>
      <point x="368" y="333" type="line"/>
      <point x="421" y="221" type="line" smooth="yes"/>
      <point x="437" y="188"/>
      <point x="461" y="145"/>
      <point x="476" y="120" type="curve"/>
    </contour>
  </outline>
</glyph>
